<svg xmlns="http://www.w3.org/2000/svg" xmlns:xlink="http://www.w3.org/1999/xlink" width="34" height="34" viewBox="0 0 34 34">
  <defs>
    <clipPath id="clip-path">
      <circle id="Ellipse_1" data-name="Ellipse 1" cx="17" cy="17" r="17" transform="translate(320 59)" fill="#c7592a"/>
    </clipPath>
    <clipPath id="clip-path-2">
      <path id="path258" d="M466.875-301.188a7.425,7.425,0,0,1,7.425-7.425,7.425,7.425,0,0,1,7.426,7.425v4.57a7.425,7.425,0,0,1-7.426,7.425,7.425,7.425,0,0,1-7.425-7.425v-4.57m17.179,15.4a11.864,11.864,0,0,0,2.17-6.854v-7.338A11.924,11.924,0,0,0,474.3-311.906a11.923,11.923,0,0,0-11.923,11.924v7.338a11.869,11.869,0,0,0,2.32,7.065c-1.688.756-2.7,1.709-2.7,2.746,0,.8.6,1.547,1.646,2.194.492-.155.962-.328,1.325-.405a4.494,4.494,0,0,1,3.446.295c1,.632,1.953,1.625,3.038,2.223a9.843,9.843,0,0,0,5.324.075c1.144-.584,2.143-1.638,3.184-2.3a4.494,4.494,0,0,1,3.446-.295c.507.107,1.223.4,1.915.574,1.222-.685,1.932-1.495,1.932-2.363,0-1.136-1.21-2.171-3.2-2.957" transform="translate(-461.999 311.906)"/>
    </clipPath>
  </defs>
  <g id="Mask_Group_1" data-name="Mask Group 1" transform="translate(-320 -59)" clip-path="url(#clip-path)">
    <rect id="Rectangle_103" data-name="Rectangle 103" width="43" height="40" transform="translate(316 54)" fill="#ecd6b4"/>
    <g id="Group_72" data-name="Group 72" transform="translate(-35.151 -2098.861)">
      <path id="path218" d="M487.222-131.7a10.26,10.26,0,0,0-1.135-3.122,5.884,5.884,0,0,0-2.528-2.814,36.077,36.077,0,0,0-8.15-2.343.876.876,0,0,0-.333-.014.877.877,0,0,0-.333.014,36.081,36.081,0,0,0-8.15,2.343,5.884,5.884,0,0,0-2.528,2.814,10.278,10.278,0,0,0-1.134,3.122h24.291" transform="translate(-102.789 2326.792)" fill="#f2cc68"/>
      <path id="path220" d="M527.465-164.177h4.5v-7.757h-4.5Z" transform="translate(-157.426 2353.826)" fill="#f8a56f"/>
      <path id="path222" d="M529.727-170.688a7.416,7.416,0,0,1-2.261-.351v-.9h4.5v.9a7.426,7.426,0,0,1-2.236.342" transform="translate(-157.426 2353.826)" fill="#f36837"/>
      <path id="path224" d="M506.275-292.409c-.309-3.376-5.37-4.848-7.983-4.826-2.885.025-6.874,1.346-7.193,4.83a59.566,59.566,0,0,0-.274,6.3,20.336,20.336,0,0,0,.486,5.889c.927,2.816,4.471,3.5,6.958,4.2a1.173,1.173,0,0,0,.417.043,1.175,1.175,0,0,0,.418-.043c2.48-.7,5.82-1.347,6.891-4.034.691-1.735.5-3.908.548-5.741a56.9,56.9,0,0,0-.268-6.622" transform="translate(-126.401 2459.911)" fill="#f8a56f"/>
      <path id="path226" d="M494.547-231.1c-.011-.03-.009-.024,0,0" transform="translate(-129.55 2403.934)" fill="#f8a56f"/>
      <path id="path228" d="M476.378-234.786a7.079,7.079,0,0,0-.331-.7,1.694,1.694,0,0,1-.071-.162c.011.028.033.088.073.2q-.062-.165-.138-.323-.359-.469-.036-.038a1.415,1.415,0,0,0-1-.592,1.315,1.315,0,0,0-.133-.045,1.609,1.609,0,0,0-1.59.539,2.746,2.746,0,0,0,.138,3.43,1.816,1.816,0,0,0,1.428.651,1.892,1.892,0,0,0,1.561-1.049,2.2,2.2,0,0,0,.1-1.909" transform="translate(-110.979 2408.484)" fill="#f8a56f"/>
      <path id="path230" d="M589.665-231.1h0" transform="translate(-210.087 2403.934)" fill="#f8a56f"/>
      <path id="path232" d="M586.21-232.876a1.893,1.893,0,0,0,1.562,1.049,1.816,1.816,0,0,0,1.428-.651,2.745,2.745,0,0,0,.138-3.43,1.609,1.609,0,0,0-1.59-.539,1.305,1.305,0,0,0-.134.045,1.417,1.417,0,0,0-1,.592q.324-.43-.035.038-.076.158-.138.323c.04-.11.062-.17.073-.2a1.709,1.709,0,0,1-.071.162,7.191,7.191,0,0,0-.331.7,2.2,2.2,0,0,0,.1,1.909" transform="translate(-206.931 2408.484)" fill="#f8a56f"/>
      <path id="path234" d="M533.052-241.278c1.08,1.463,2.03,4.105.1,5.3a.281.281,0,0,0-.056.433c.423.524,1.032,1.222,1.764,1.059a.135.135,0,0,0,.059-.224,13.354,13.354,0,0,1-1.434-1.225l-.056.433c2.125-1.516,1.25-4.247-.126-5.976-.115-.145-.366.049-.256.2" transform="translate(-162.133 2412.746)" fill="#d16421"/>
      <path id="path236" d="M512.38-229.867c0,.809-.413,1.466-.923,1.466s-.923-.656-.923-1.466.413-1.466.923-1.466.923.656.923,1.466" transform="translate(-143.092 2404.115)" fill="#331d14"/>
      <path id="path238" d="M565.492-229.867c0,.809-.414,1.466-.923,1.466s-.923-.656-.923-1.466.413-1.466.923-1.466.923.656.923,1.466" transform="translate(-188.059 2404.115)" fill="#331d14"/>
      <path id="path240" d="M505.981-225.708a.992.992,0,0,0,.481.571c.229.117.675.171.809-.113a.164.164,0,0,0-.025-.2c-.239-.2-.62-.044-.753-.4-.118-.317-.628-.182-.511.141" transform="translate(-139.222 2399.625)" fill="#331d14"/>
      <path id="path242" d="M574.073-225.708a.991.991,0,0,1-.481.571c-.229.117-.675.171-.809-.113a.165.165,0,0,1,.025-.2c.239-.2.621-.044.754-.4.118-.317.628-.182.511.141" transform="translate(-195.776 2399.625)" fill="#331d14"/>
      <path id="path244" d="M501.974-287.436a9.821,9.821,0,0,1,7.29,3.011,7.427,7.427,0,0,0-7.29-6.01,7.426,7.426,0,0,0-7.288,6.01,9.819,9.819,0,0,1,7.288-3.011" transform="translate(-129.674 2454.154)" fill="#fff"/>
      <path id="path246" d="M502.8-249.419a2.14,2.14,0,0,1,1.409-1,.981.981,0,0,1,.868.056c.206.161.267.449.473.622a.16.16,0,0,0,.264-.07c.231-.762-.629-1.317-1.306-1.21a2.587,2.587,0,0,0-2,1.475c-.065.167.217.285.289.122" transform="translate(-136.288 2420.792)" fill="#331d14"/>
      <path id="path248" d="M562.106-249.419a2.14,2.14,0,0,0-1.409-1,.981.981,0,0,0-.868.056c-.206.161-.267.449-.474.622a.16.16,0,0,1-.264-.07c-.232-.762.629-1.317,1.305-1.21a2.587,2.587,0,0,1,2,1.475c.065.167-.217.285-.289.122" transform="translate(-184.17 2420.792)" fill="#331d14"/>
      <path id="path250" d="M535.32-192.4a1.852,1.852,0,0,1-1.78,1.051,1.852,1.852,0,0,1-1.879-.86c-.032-.053-.123-.01-.1.048a2.017,2.017,0,0,0,2.007,1.361,2.016,2.016,0,0,0,1.853-1.563c.018-.06-.077-.093-.1-.037" transform="translate(-160.892 2371.178)" fill="#c85032"/>
      <path id="path252" d="M466.875-301.188a7.425,7.425,0,0,1,7.425-7.425,7.425,7.425,0,0,1,7.426,7.425v4.57a7.425,7.425,0,0,1-7.426,7.425,7.425,7.425,0,0,1-7.425-7.425v-4.57m17.179,15.4a11.864,11.864,0,0,0,2.17-6.854v-7.338A11.924,11.924,0,0,0,474.3-311.906a11.923,11.923,0,0,0-11.923,11.924v7.338a11.869,11.869,0,0,0,2.32,7.065c-1.688.756-2.7,1.709-2.7,2.746,0,.8.6,1.547,1.646,2.194.492-.155.962-.328,1.325-.405a4.494,4.494,0,0,1,3.446.295c1,.632,1.953,1.625,3.038,2.223a9.843,9.843,0,0,0,5.324.075c1.144-.584,2.143-1.638,3.184-2.3a4.494,4.494,0,0,1,3.446-.295c.507.107,1.223.4,1.915.574,1.222-.685,1.932-1.495,1.932-2.363,0-1.136-1.21-2.171-3.2-2.957" transform="translate(-102 2472.332)" fill="#be3948"/>
      <g id="g254" transform="translate(359.999 2160.426)">
        <g id="g256" transform="translate(0 0)" clip-path="url(#clip-path-2)">
          <path id="path262" d="M480.019-143.5a17.926,17.926,0,0,1-5.936-1.274q.387-.222.844-.427h0q-.321-.435-.6-.9c.824.248,1.655.472,2.493.691a37.011,37.011,0,0,1,4.306,1.1.386.386,0,0,1-.1.755,9.136,9.136,0,0,1-1,.054" transform="translate(-472.23 171.534)" fill="#9e232c"/>
          <path id="path264" d="M577.11-143.659c-.372,0-.353-.545.009-.582a11.978,11.978,0,0,0,3.8-1.111c.257-.118.518-.258.785-.4q-.2.324-.418.635h0q.409.162.772.337c-.383.134-.763.255-1.117.374a12.821,12.821,0,0,1-3.819.747h-.009" transform="translate(-559.227 171.233)" fill="#9e232c"/>
        </g>
      </g>
    </g>
  </g>
</svg>
