<svg xmlns="http://www.w3.org/2000/svg" xmlns:xlink="http://www.w3.org/1999/xlink" width="60" height="60" viewBox="0 0 60 60">
  <defs>
    <clipPath id="clip-path">
      <rect id="Rectangle_11" data-name="Rectangle 11" width="60" height="60" rx="16" transform="translate(101 345)" fill="#8aa77e" stroke="#707070" stroke-width="1"/>
    </clipPath>
  </defs>
  <g id="Mask_Group_3" data-name="Mask Group 3" transform="translate(-101 -345)" clip-path="url(#clip-path)">
    <g id="Rectangle_111" data-name="Rectangle 111" transform="translate(94 338)" fill="#ecd6b4" stroke="#707070" stroke-width="1">
      <rect width="74" height="70" stroke="none"/>
      <rect x="0.5" y="0.5" width="73" height="69" fill="none"/>
    </g>
    <ellipse id="Ellipse_22" data-name="Ellipse 22" cx="21" cy="5.5" rx="21" ry="5.5" transform="translate(110 380)" fill="#c7ab81"/>
    <g id="Group_117" data-name="Group 117" transform="matrix(1, -0.017, 0.017, 1, 119.305, 339.869)">
      <path id="path430" d="M.46,25.942c-1.181-1.959.227-4.563.734-6.666.452-1.873.589-3.834,1.118-5.73.6-2.149.538-4.35,1.224-6.354A33.541,33.541,0,0,1,6.1,1.868C6.852,1.42,7.7.537,8.549,0c1.65,4.721,1.008,10.729-.742,15.586C7.091,17.577,4.1,27.215,1.03,26.1l-.57-.158" transform="translate(0.273 16.135)" fill="#e7969f"/>
      <path id="path432" d="M45.162,1.123C43.634-.45,40.89-.128,38.877.621c-3.409,1.268-4.8,4.3-7.164,6.8a13.864,13.864,0,0,1-6.458,3.294c-2.771.721-5.186,1.964-7.9,2.8-2.062.638-4.227.8-6.193,1.381-1.868.55-2.969,1.025-3.662,2.914-.549,1.495-.552,3.146-1.016,4.691-.339,1.132-.779,2.247-1.163,3.376a18.522,18.522,0,0,0-.686,2.474q-.054.278-.1.555A32.984,32.984,0,0,1,3.182,35.64,22.237,22.237,0,0,1,1.732,39.6C.107,38.566-.08,42.468.023,43.322a2.814,2.814,0,0,0,1.911,2.3,7.365,7.365,0,0,0,2.517.473c5.339.156,10.5-2.274,14.57-5.524,3.639-2.9,6.266-6.789,8.64-10.74,1.206-2.007,2.356-4.046,3.591-6.035.958-1.545,1.764-3.742,3-5.051,1.357-1.437,2.37-3.381,3.981-4.65a8.414,8.414,0,0,1,2.052-1.139c1.412-.571,2.981-.928,4.332-1.423,1.438-.526,3-2.358,2.885-3.958a14.857,14.857,0,0,0-.779-2.341,19.016,19.016,0,0,0-.865-3.074,3.544,3.544,0,0,0-.7-1.039" transform="translate(0 0)" fill="#f0a9ac"/>
      <path id="path434" d="M5.134.584A2.154,2.154,0,0,0,4.537,0,33,33,0,0,1,3.182,6.732a22.241,22.241,0,0,1-1.451,3.959C.107,9.658-.08,13.561.023,14.415a2.813,2.813,0,0,0,1.911,2.3c-.364-.821.584-1.967,1.1-2.839a7.143,7.143,0,0,0,.931-4.707,11.445,11.445,0,0,1,.3-4.4c.519-1.454,1.963-2.63.872-4.184" transform="translate(0 28.908)" fill="#e7969f"/>
      <path id="path436" d="M39.84,1.123C38.312-.45,35.568-.128,33.556.621c-3.409,1.268-4.8,4.3-7.164,6.8a13.87,13.87,0,0,1-6.458,3.294c-2.771.721-5.187,1.964-7.9,2.8-2.062.638-4.227.8-6.193,1.381-1.868.55-2.969,1.025-3.662,2.914-.549,1.495-.553,3.146-1.016,4.691C.824,23.636.384,24.75,0,25.879c.165-.209.331-.417.495-.626.986-1.246,5-6.907,6.986-5.07.626.578.8,2.335,1.329,3.185.146.234,2.93-4.869,3.442-5.411,2.959-3.133,7.211-4.248,11-6.11C27.281,9.862,30.142,6.09,33.2,3.131A11.427,11.427,0,0,1,37.483.558a5.892,5.892,0,0,1,2.357.565" transform="translate(5.322 0)" fill="#e7969f"/>
      <path id="path438" d="M7.409,3.512A12.72,12.72,0,0,1,6.671,7.3c-.386,1.114-.895,2.177-1.319,3.334-.828,2.259-2.014,4.244-2.62,6.623a20.6,20.6,0,0,0-.791,3.216,8.816,8.816,0,0,1-.226,2.405c-.376,1.049-.684,2.475-1.556,3.195C-.067,26.264,0,23.81.035,23.64c.165-.921.237-1.994.476-2.923.176-.687.538-1.329.752-2.019A81.34,81.34,0,0,0,3.832,8.979a45.875,45.875,0,0,1,.989-4.563C5.2,3.075,5.852.5,7.349,0c.566.789.09,2.565.061,3.512" transform="translate(1.337 16.074)" fill="#d95e54"/>
      <path id="path440" d="M0,12.986c0-.137.024-.157.117-.264a3.333,3.333,0,0,0,.436-.69,5.556,5.556,0,0,0,.454-1.5A21.8,21.8,0,0,0,1.338,7.33a6.968,6.968,0,0,0,.005-1.374c-.015-.09-.187-.585-.071-.448A1.793,1.793,0,0,1,.987,4.469,3.35,3.35,0,0,1,1.46,2.5a4.757,4.757,0,0,0,.6-2.071c.1-.668,1.269-.5,1.174.167-.041.288-.084.575-.138.861a3.2,3.2,0,0,0-.175,1.09,4.059,4.059,0,0,1-.23,2.167,5.087,5.087,0,0,0-.541,1.483c-.058.518-.067,1.041-.107,1.56a12.3,12.3,0,0,1-.593,3.2,6.964,6.964,0,0,1-.658,1.365c-.151.24-.424.727-.74.72A.05.05,0,0,1,0,12.986H0" transform="translate(4.598 17.977)" fill="#d7473f"/>
      <path id="path442" d="M0,1.863C-.029,1.38.529.98.849.681c.359-.334.959-.79,1.468-.657a.2.2,0,0,1,.137.241c-.117.453-.643.745-.986,1.035-.326.275-.817.813-1.273.762A.2.2,0,0,1,0,1.863H0" transform="translate(39.29 3.217)" fill="#f0a9ac"/>
      <path id="path444" d="M1.459.513,1.413.558,1.5.34C1.471.66,1.19.8.913.888A.777.777,0,0,1,.094.822a.343.343,0,0,1-.052-.4c.1-.231.375-.287.6-.333s.5-.157.71-.021L1.116.033,1.18.019a.3.3,0,0,1,.279.493h0" transform="translate(42.004 2.521)" fill="#f0a9ac"/>
      <path id="path446" d="M.382,1.667a.772.772,0,0,1-.271-.28A.92.92,0,0,1,0,.962,1.562,1.562,0,0,1,.18.374L.109.544.116.529.187.358A.721.721,0,0,1,1,.026a.726.726,0,0,1,.5.887,1.71,1.71,0,0,1-.134.321c-.014.026-.028.053-.04.079a1.029,1.029,0,0,1-.157.2l.107-.14a.2.2,0,0,0-.024.04l.065-.154a.093.093,0,0,0-.005.019l.023-.162s0,.007,0,.01a.65.65,0,0,1-.323.546.637.637,0,0,1-.634,0h0" transform="translate(14.358 18.536)" fill="#fabdc4"/>
      <path id="path448" d="M0,.791A.917.917,0,0,1,.915,0,.424.424,0,0,1,1.27.629a1.072,1.072,0,0,1-.925.514A.35.35,0,0,1,0,.791H0" transform="translate(13.901 21.898)" fill="#fabdc4"/>
      <path id="path450" d="M0,.847A.955.955,0,0,1,.1.457C.049.575.1.438.113.415a.821.821,0,0,1,.2-.285A.45.45,0,0,1,.847.059a.445.445,0,0,1,.206.5A.959.959,0,0,1,.9.873a.971.971,0,0,1-.13.136.559.559,0,0,1-.622.1A.292.292,0,0,1,0,.847H0" transform="translate(14.372 23.832)" fill="#fabdc4"/>
      <path id="path452" d="M.209.075C.481-.05.876-.048.97.311L.932.214l0,.007L.8.084C.827.1.889.118.791.084a.325.325,0,0,1,.222.227.331.331,0,0,1-.083.3.242.242,0,0,1-.02.024C.875.672.895.668.93.6L.968.508A.379.379,0,0,1,.776.758C.737.776.7.792.657.807A1.239,1.239,0,0,1,.513.823L.619.81A.492.492,0,0,0,.548.827l.1-.041A.172.172,0,0,0,.62.8.421.421,0,0,1,.052.643.418.418,0,0,1,.209.075h0" transform="translate(14.998 25.985)" fill="#fabdc4"/>
      <path id="path454" d="M.316,1.41a.618.618,0,0,1-.294-.369,1.006,1.006,0,0,1,0-.422A.833.833,0,0,1,.805,0a.61.61,0,0,1,.581.459.624.624,0,0,1-.29.677c-.038.027-.082.041-.121.066l.13-.1a1.154,1.154,0,0,0-.139.125l.055-.072q-.048.069-.1.133c.022-.022-.279.206-.078.052a.446.446,0,0,1-.527.069h0" transform="translate(16.953 17.604)" fill="#fabdc4"/>
      <path id="path456" d="M.163,1.163A.549.549,0,0,1,0,.767.589.589,0,0,0,0,.691.633.633,0,0,1,.331.076L.477.018a.584.584,0,0,1,.3,0A.624.624,0,0,1,1.131.3l.01.014a.607.607,0,0,1,0,.6.655.655,0,0,1-.19.234.618.618,0,0,1-.409.171.533.533,0,0,1-.376-.157h0" transform="translate(16.918 20.364)" fill="#fabdc4"/>
      <path id="path458" d="M.016.59c0-.008,0-.017.007-.025q-.034.2,0-.046A.712.712,0,0,1,.208.236.755.755,0,0,1,.274.167.579.579,0,0,1,.54.016.669.669,0,0,1,.852.022L.709,0,.73,0,.588.021A.6.6,0,0,1,.9.026.539.539,0,0,1,1.265.67a.6.6,0,0,1-.155.27L1.2.827,1.188.846,1.243.713a.639.639,0,0,1-.278.364.746.746,0,0,1-.236.079,1.007,1.007,0,0,1-.2.029.525.525,0,0,1-.257-.071c.069.049.112.039.058.025A.45.45,0,0,1,.016.59h0" transform="translate(17.143 22.558)" fill="#fabdc4"/>
      <path id="path460" d="M0,.615C0,.414.131.3.281.191a1.679,1.679,0,0,1,.23-.13A.579.579,0,0,1,.81,0a.236.236,0,0,1,.2.352A.582.582,0,0,1,.8.576a1.542,1.542,0,0,1-.3.16C.364.783,0,.86,0,.615H0" transform="translate(18.033 24.727)" fill="#fabdc4"/>
      <path id="path462" d="M0,.605A.634.634,0,0,1,.342.043.381.381,0,0,1,.851.183.381.381,0,0,1,.71.692,1.139,1.139,0,0,1,.274.821.222.222,0,0,1,0,.605H0" transform="translate(20.178 16.807)" fill="#fabdc4"/>
      <path id="path464" d="M.009.873.015.93a.49.49,0,0,1,0-.249A1.14,1.14,0,0,1,.131.442.9.9,0,0,1,.662.016c.424-.116.88.407.6.8a1.278,1.278,0,0,1-.372.329c-.039.026-.086.045-.127.069a.491.491,0,0,1-.158.072q-.216.026-.069.007A.43.43,0,0,1,.009.873h0" transform="translate(19.683 18.929)" fill="#fabdc4"/>
      <path id="path466" d="M.008.546A.284.284,0,0,0,.017.507c0,.044,0,.087,0,.13A.471.471,0,0,1,.12.268.467.467,0,0,1,.523,0a.322.322,0,0,1,.3.4A.322.322,0,0,1,.736.557C.69.607.783.49.739.55a.791.791,0,0,1-.2.175C.506.75.47.776.434.8a.277.277,0,0,1-.22.027H.231L.162.817A.221.221,0,0,1,.008.546h0" transform="translate(20.07 21.49)" fill="#fabdc4"/>
      <path id="path468" d="M.041.357a.679.679,0,0,1,.8-.314A.249.249,0,0,1,.973.27.679.679,0,0,1,.291.8.3.3,0,0,1,.041.357h0" transform="translate(20.69 23.24)" fill="#fabdc4"/>
      <path id="path470" d="M0,.683A.626.626,0,0,1,.271.2.846.846,0,0,1,.591.017a.862.862,0,0,1,.351,0,.427.427,0,0,1,.1.778A1.432,1.432,0,0,1,.68.922,1.328,1.328,0,0,1,.311,1,.318.318,0,0,1,0,.683H0" transform="translate(13.955 15.635)" fill="#f0a9ac"/>
      <path id="path472" d="M.044.442a1.407,1.407,0,0,1,.4-.389.4.4,0,0,1,.4,0l.02.01L.689.015c.341.011.476.25.311.548L1.049.385c0,.008,0,.015,0,.022a.4.4,0,0,1-.2.344A1.419,1.419,0,0,1,.3.9.306.306,0,0,1,.044.442h0" transform="translate(16.504 14.941)" fill="#f0a9ac"/>
      <path id="path474" d="M.057.072A.77.77,0,0,1,.249,0,.3.3,0,0,1,.462.064.049.049,0,0,1,.436.155.61.61,0,0,0,.168.268C.047.349-.075.134.057.072h0" transform="translate(19.736 14.364)" fill="#f0a9ac"/>
      <path id="path476" d="M0,.884A1.169,1.169,0,0,1,.117.394.649.649,0,0,1,.729,0a.564.564,0,0,1,.364.153.526.526,0,0,1,.134.51.7.7,0,0,1-.349.42c-.078.043.106-.1,0,0-.013.013-.026.026-.037.041.089-.1.032-.039.013-.005a.461.461,0,0,1-.519.212A.466.466,0,0,1,0,.884H0" transform="translate(10.183 17.156)" fill="#f0a9ac"/>
      <path id="path478" d="M.084.914.1.877q0,.152,0,.3a.392.392,0,0,1-.058-.126Q.108,1.2.025,1A.529.529,0,0,1,.04.648.9.9,0,0,1,.439.07a.563.563,0,0,1,.815.635,1.017,1.017,0,0,1-.465.527.507.507,0,0,1-.311.109q-.062,0,.027-.01a.541.541,0,0,1-.221-.007l.3-.079-.028.029a.3.3,0,0,1-.362.047A.305.305,0,0,1,.084.914h0" transform="translate(10.937 20.611)" fill="#fabdc4"/>
      <path id="path480" d="M.007.626a.793.793,0,0,1,.938-.6.379.379,0,0,1,.261.46A1.034,1.034,0,0,1,.48,1.11C.18,1.219-.044.885.007.626h0" transform="translate(10.767 23.265)" fill="#fabdc4"/>
      <path id="path482" d="M0,.8A.972.972,0,0,1,.2.31C.363.06.729-.134.979.117A.5.5,0,0,1,.826.878a1.388,1.388,0,0,1-.558.2A.275.275,0,0,1,0,.8H0" transform="translate(10.954 25.067)" fill="#fabdc4"/>
      <path id="path484" d="M.008.283C.021.25.035.219.049.186a.327.327,0,0,1,.12-.12A.334.334,0,0,1,.535.046a.243.243,0,0,1,0,.414A.426.426,0,0,1,.3.516c-.026,0-.022,0,.011,0a.233.233,0,0,1-.118,0L.131.5A.176.176,0,0,1,.008.283h0" transform="translate(11.833 27.3)" fill="#fabdc4"/>
      <path id="path486" d="M.022.148.04.129.017.212A.165.165,0,0,1,.088.02.157.157,0,0,1,.3.078.157.157,0,0,1,.241.29.165.165,0,0,1,.04.252L.122.274.1.28A.079.079,0,0,1,.022.148h0" transform="translate(12.176 28.49)" fill="#fabdc4"/>
      <path id="path488" d="M0,.548C.052.217.53,0,.821,0A.307.307,0,0,1,.968.57C.85.628.726.658.607.71a1.092,1.092,0,0,1-.37.149C.063.873-.017.689,0,.548H0" transform="translate(8.047 26.563)" fill="#fabdc4"/>
      <path id="path490" d="M.016.289A.529.529,0,0,1,.6.007.244.244,0,0,1,.535.486l-.043,0C.485.481.419.488.466.48.429.486.394.5.357.507a.73.73,0,0,1-.08.008l-.02,0-.037,0L.154.511.141.51A.15.15,0,0,1,.016.289h0" transform="translate(8.66 28.606)" fill="#fabdc4"/>
      <path id="path492" d="M.434.57.414.578A.3.3,0,0,1,.2.6.277.277,0,0,1,.14.1L.277.037a.267.267,0,0,1,.357.1.262.262,0,0,1-.1.357L.521.5A.265.265,0,0,1,.166.4a.266.266,0,0,1,.1-.355L.277.037a.262.262,0,0,1,.357.1.267.267,0,0,1-.1.357L.414.578A.277.277,0,0,1,.01.264.3.3,0,0,1,.14.1L.158.084A.279.279,0,1,1,.434.57h0" transform="translate(8.411 30.379)" fill="#fabdc4"/>
      <path id="path494" d="M.273.191c.02,0,.18-.05.116-.022a1.107,1.107,0,0,1,.269-.1A5.03,5.03,0,0,1,1.2,0,.509.509,0,0,1,1.69.384.52.52,0,0,1,1.321,1,1.159,1.159,0,0,1,.176.878C-.061.706-.086.253.273.191h0" transform="translate(5.45 43.709)" fill="#fabdc4"/>
      <path id="path496" d="M.038.487A1.022,1.022,0,0,1,.562.049.571.571,0,0,1,.846,0,.306.306,0,0,1,.993.044c.152.088-.085.022.1.028A.089.089,0,0,1,1.17.2C1.145.3,1.133.3,1.133.23a.3.3,0,0,1,0,.153A.565.565,0,0,1,.917.674,1.02,1.02,0,0,1,.272.9.276.276,0,0,1,.038.487h0" transform="translate(6.357 41.472)" fill="#fabdc4"/>
      <path id="path498" d="M.059.087A.25.25,0,0,1,.318.012L.393.036A.105.105,0,0,1,.465.163L.448.241a.251.251,0,0,1-.2.183A.2.2,0,0,1,.059.087h0" transform="translate(7.035 39.963)" fill="#fabdc4"/>
      <path id="path500" d="M.083.2.156.121A.365.365,0,0,1,.518.01.316.316,0,0,1,.737.4.361.361,0,0,1,.466.649L.353.675A.288.288,0,0,1,.036.54.288.288,0,0,1,.083.2h0" transform="translate(7.515 38.032)" fill="#fabdc4"/>
      <path id="path502" d="M.19.4A4.659,4.659,0,0,0,.659.237C.856.153,1,0,1.23,0a.356.356,0,0,1,.351.36C1.5.969.656,1.092.185.9A.262.262,0,0,1,.19.4h0" transform="translate(9.123 42.898)" fill="#fabdc4"/>
      <path id="path504" d="M.051.379A.43.43,0,0,0,.094.306L.056.4A.4.4,0,0,0,.076.324.425.425,0,0,1,.294.051a.4.4,0,0,1,.3-.037A.394.394,0,0,1,.867.3.435.435,0,0,1,.731.749.779.779,0,0,1,.45.908.353.353,0,0,1,.107.813.358.358,0,0,1,.051.379h0" transform="translate(9.631 40.469)" fill="#fabdc4"/>
      <path id="path506" d="M.027.327A.678.678,0,0,0,.075.278L.041.357A.373.373,0,0,1,.2.076,1.244,1.244,0,0,1,.488,0C.525-.005.57.034.542.072A.344.344,0,0,0,.48.2.262.262,0,0,1,.416.361.535.535,0,0,1,.28.451a.259.259,0,0,1-.1.029C.1.479.2.466.121.492A.1.1,0,0,1,.027.327h0" transform="translate(10.231 38.042)" fill="#fabdc4"/>
      <path id="path508" d="M.009.347C.016.31.022.273.03.236A.323.323,0,0,1,.653.408C.64.444.627.479.614.514A.331.331,0,0,1,.466.7.314.314,0,0,1,.039.585.332.332,0,0,1,.009.347h0" transform="translate(10.386 36.117)" fill="#fabdc4"/>
      <path id="path510" d="M.008.5C.037.343.18.274.295.187.331.16.381.143.419.117A.655.655,0,0,1,.568.052C.51.079.5.081.552.058a.446.446,0,0,1,.442,0,.63.63,0,0,1,.163.165.449.449,0,0,1-.072.533.769.769,0,0,1-.578.256A.694.694,0,0,1,.187.925.388.388,0,0,1,.008.5h0" transform="translate(7.412 34.203)" fill="#fabdc4"/>
      <path id="path512" d="M.09.387.255.217A.772.772,0,0,1,.546.042a.392.392,0,0,1,.522.144A.392.392,0,0,1,.924.708a.728.728,0,0,1-.27.153l-.26.06A.321.321,0,0,1,.09.387h0" transform="translate(7.631 32.567)" fill="#fabdc4"/>
      <path id="path514" d="M.085.818A1.271,1.271,0,0,1,.268.6,1.056,1.056,0,0,1,.456.461C.606.372.34.565.475.445A1.364,1.364,0,0,1,1.08.016a.657.657,0,0,1,.788.471,1,1,0,0,1-.5,1.041,1.026,1.026,0,0,1-.913.2.661.661,0,0,1-.373-.291.609.609,0,0,1,0-.615h0" transform="translate(13.136 40.583)" fill="#fabdc4"/>
      <path id="path516" d="M0,.682A.69.69,0,0,1,.175.229a.6.6,0,0,1,.3-.208A.59.59,0,0,1,.911.073a.46.46,0,0,1,.238.421.591.591,0,0,1-.177.4.685.685,0,0,1-.459.168C.289,1.062,0,.946,0,.682H0" transform="translate(13.446 38.568)" fill="#fabdc4"/>
      <path id="path518" d="M.032.347.04.328,0,.457A.5.5,0,0,1,.149.11.443.443,0,0,1,.586.02a.323.323,0,0,1,.224.4.442.442,0,0,1-.3.329A.5.5,0,0,1,.136.69l.13.036-.021,0A.264.264,0,0,1,.031.6a.263.263,0,0,1,0-.249h0" transform="translate(13.675 36.889)" fill="#fabdc4"/>
      <path id="path520" d="M.019.664A.976.976,0,0,1,.471.136.841.841,0,0,1,.876,0a.584.584,0,0,1,.479.268.57.57,0,0,1,.038.421.668.668,0,0,1-.338.38.988.988,0,0,1-.726.142A.445.445,0,0,1,.019.664h0" transform="translate(38.93 9.409)" fill="#fabdc4"/>
      <path id="path522" d="M.05.4A1.074,1.074,0,0,1,.478.047.408.408,0,0,1,.951.111a.338.338,0,0,1,.1.182A.408.408,0,0,1,.866.732,1.074,1.074,0,0,1,.342.917.345.345,0,0,1,.05.4h0" transform="translate(41.54 8.316)" fill="#fabdc4"/>
      <path id="path524" d="M.013.391l0-.013q0,.07,0,.14A.453.453,0,0,1,0,.407.384.384,0,0,1,.1.164C.117.145.131.126.148.109A.379.379,0,0,1,.741.19.38.38,0,0,1,.506.741c-.023,0-.047.007-.07.01A.382.382,0,0,1,.174.714.422.422,0,0,1,.087.644l.121.07-.013,0A.262.262,0,0,1,.013.391h0" transform="translate(43.999 7.322)" fill="#fabdc4"/>
      <path id="path526" d="M.562,1.253C.337,1.278.212,1.1.132.918A.911.911,0,0,1,.029.27.377.377,0,0,1,.713.185a1.355,1.355,0,0,1,.1.606c.015.19-.014.436-.25.462h0" transform="translate(13.515 32.12)" fill="#fabdc4"/>
      <path id="path528" d="M.178.927C.162.887.121.841.1.8A.782.782,0,0,1,.043.606.844.844,0,0,1,.019.182C.074,0,.386-.086.474.126A.8.8,0,0,1,.511.551C.5.619.5.687.482.754S.42.873.405.93a.118.118,0,0,1-.227,0h0" transform="translate(14.133 29.93)" fill="#fabdc4"/>
      <path id="path530" d="M.193,1.382A1.278,1.278,0,0,1,0,.761C.005.477.125.069.446.008A.389.389,0,0,1,.869.189C1,.4.889.623.844.844.872.707.818,1.033.83.953c-.005.036-.015.069-.023.1a.93.93,0,0,0-.027.175.316.316,0,0,1-.586.151h0" transform="translate(17.318 29.379)" fill="#fabdc4"/>
      <path id="path532" d="M.075.691A.5.5,0,0,1,0,.413.443.443,0,0,1,.125.121.39.39,0,0,1,.424,0,.383.383,0,0,1,.61.053.366.366,0,0,1,.789.29a.482.482,0,0,1,0,.215.493.493,0,0,1-.054.12L.77.533A.085.085,0,0,0,.765.552l.014-.1A.2.2,0,0,0,.779.5L.767.4l0,.012a.378.378,0,0,1-.18.42A.381.381,0,0,1,.075.691h0" transform="translate(18.238 26.727)" fill="#fabdc4"/>
      <path id="path534" d="M.346,1.47A.906.906,0,0,1,0,.707.711.711,0,0,1,.423.01C.686-.063.888.284.941.494A1.253,1.253,0,0,1,.976.873a.87.87,0,0,1-.1.457.39.39,0,0,1-.529.14h0" transform="translate(22.677 17.858)" fill="#fabdc4"/>
      <path id="path536" d="M.029.465A.436.436,0,0,0,.02.284.278.278,0,0,1,.029.055a.117.117,0,0,1,.212.03.589.589,0,0,1-.022.2,1.161,1.161,0,0,1-.036.2C.155.565.016.558.029.465h0" transform="translate(23.728 16.013)" fill="#fabdc4"/>
      <path id="path538" d="M.067.726a.43.43,0,0,1-.035-.4A.422.422,0,0,1,.207.083.923.923,0,0,1,.385.006.173.173,0,0,1,.6.131C.6.159.6.188.605.216.611.281.6.173.607.227A.514.514,0,0,1,.6.451C.6.472.593.529.6.439.6.466.609.533.595.429a.764.764,0,0,1,.011.1C.607.443.6.475.608.509a.293.293,0,0,1-.14.327.3.3,0,0,1-.4-.111h0" transform="translate(26.02 14.598)" fill="#fabdc4"/>
    </g>
  </g>
</svg>
