<svg xmlns="http://www.w3.org/2000/svg" width="382.28" height="250.56" viewBox="0 0 382.28 250.56">
  <g id="Group_126" data-name="Group 126" transform="translate(-23 -104.72)">
    <rect id="Rectangle_106" data-name="Rectangle 106" width="334" height="124" rx="14" transform="translate(23 169)" fill="#ecd6b4"/>
    <ellipse id="Ellipse_19" data-name="Ellipse 19" cx="58" cy="52" rx="58" ry="52" transform="translate(216 178)" fill="#fff2dd"/>
    <text id="Fresh_meats" data-name="Fresh meats" transform="translate(44 200)" fill="#414141" font-size="13" font-family="NunitoSans-ExtraBold, Nunito Sans" font-weight="800"><tspan x="0" y="0">Fresh meats</tspan></text>
    <text id="Start_from_Rp._25.000_-_kg" data-name="Start from Rp. 25.000,- / kg" transform="translate(44 215)" fill="#414141" font-size="10" font-family="NunitoSans-Regular, Nunito Sans"><tspan x="0" y="0">Start from </tspan><tspan y="0" font-family="NunitoSans-Bold, Nunito Sans" font-weight="700">Rp. 25.000,- / kg</tspan></text>
    <text id="_70_" data-name="70%" transform="translate(78 265)" fill="#414141" font-size="43" font-family="NunitoSans-Bold, Nunito Sans" font-weight="700"><tspan x="0" y="0">70%</tspan></text>
    <text id="Disc_up_to" data-name="Disc
up to" transform="translate(56.972 266.413) rotate(-90)" fill="#414141" font-size="13" font-family="NunitoSans-Regular, Nunito Sans"><tspan x="0" y="0">Disc</tspan><tspan x="0" y="12">up to</tspan></text>
    <g id="Group_100" data-name="Group 100" transform="translate(-5.618 -4.322)">
      <g id="Group_99" data-name="Group 99" transform="matrix(0.921, 0.391, -0.391, 0.921, 245.627, 214.19)">
        <path id="path714" d="M0,34.378c1.759,5.616,10.35,6.374,15.563,5.644C22.785,39.01,27.85,33.49,31.679,27.5c3.48-5.445,6.787-12.9,7.105-19.5C38.9,5.539,36.719,1.337,34.348.344c-2.191-.918-7.14.128-9,1.669L0,34.378" transform="translate(46.452 2.467)" fill="#e07073"/>
        <path id="path716" d="M37.168,4.132c.044.208.079.429.105.659a9.217,9.217,0,0,1-.466,3.7c-.054.18-.112.361-.175.542h0a61.987,61.987,0,0,1-2.687,5.992c-.079.172-.156.343-.23.509-.161.363-.322.723-.488,1.086q-1.367,3.034-2.887,5.994-.279.55-.564,1.09-.829,1.594-1.7,3.161c-.348.629-.7,1.26-1.045,1.884-.371.654-.745,1.3-1.138,1.921-1.886,3.007-4.141,5.49-7.849,5.967a54.9,54.9,0,0,1-13.463.106,11.75,11.75,0,0,1-2.873-.527C.415,35.709-.118,34.7.022,32.241A22.482,22.482,0,0,1,.363,29.43C.4,29.2.45,28.967.5,28.736a32.871,32.871,0,0,1,2.375-6.9q.211-.47.442-.936c1.029-2.122,2.2-4.176,3.373-6.162.091-.155.18-.309.272-.462l.293-.494c.68-1.147,1.386-2.33,2.148-3.487.2-.31.407-.618.62-.922.581-.843,1.2-1.664,1.852-2.442q.5-.6,1.043-1.155.332-.343.678-.67a9.743,9.743,0,0,1,5.8-2.867c1.086-.181,2.646-.627,4.407-1.073l.326-.083C28.847-.1,34.814-1.169,36.719,2.776a5.688,5.688,0,0,1,.45,1.356" transform="translate(46.056 2.61)" fill="#f89e93"/>
        <path id="path718" d="M35.462,4.132c.044.208.079.429.105.659a9.217,9.217,0,0,1-.466,3.7.317.317,0,0,1-.175.542h0a62.025,62.025,0,0,1-2.687,5.992c-.079.172-.156.343-.23.509-.161.363-.322.724-.488,1.086q-1.367,3.034-2.887,5.994-.279.55-.564,1.089-.829,1.594-1.7,3.161c-.348.629-.7,1.26-1.045,1.884-.371.655-.745,1.3-1.138,1.921-1.886,3.007-4.141,5.49-7.849,5.967a54.9,54.9,0,0,1-13.463.106A11.756,11.756,0,0,1,0,36.211a2,2,0,0,1,.37-.23c1.07-.524,3.442-.234,4.706-.566a7.257,7.257,0,0,0,1.885-.749,4.69,4.69,0,0,0,.952-.72c1.043-1.02,1.493-2.412,2.188-4.164.139-.354.291-.725.458-1.109.07-.16.138-.316.205-.476.711-1.638,1.382-3.268,2.073-4.9q.418-.986.848-1.971c.421-.959.856-1.916,1.315-2.876.31-.649.625-1.3.936-1.951q.551-1.145,1.093-2.3c.74-1.574,1.458-3.16,2.121-4.76.014-.034.027-.068.042-.1.334-.792.707-1.55,1.068-2.314.338-.715.664-1.435.934-2.19.391-1.1.591-2.42.9-3.674l.326-.083C27.141-.1,33.107-1.169,35.012,2.776a5.687,5.687,0,0,1,.45,1.356" transform="translate(47.763 2.61)" fill="#f0867f"/>
        <path id="path720" d="M25.3,1.356a19.467,19.467,0,0,1-2.346.555c-1.567.256-3.147.461-4.708.758A17.684,17.684,0,0,0,9.626,6.343a.8.8,0,0,1-.6.223.479.479,0,0,1-.206-.081A14.122,14.122,0,0,0,2.75,4.434,25.371,25.371,0,0,0,0,4.153Q.5,3.556,1.043,3c.658.038,1.318.1,1.972.19A15.547,15.547,0,0,1,9.064,5.032c.335-.279.68-.54,1.031-.78a19.9,19.9,0,0,1,7.322-2.941c1.618-.343,3.252-.6,4.877-.9C23.146.255,24,.139,24.847,0a5.688,5.688,0,0,1,.45,1.356" transform="translate(57.928 5.386)" fill="#fab8b5"/>
        <path id="path722" d="M27.233.882h0c-3.463.523-6.824.9-10.1,2.234a36.283,36.283,0,0,0-8.89,5.239s0,0,0,0a.578.578,0,0,1-.862-.321A8.664,8.664,0,0,0,3.229,3.378,9.788,9.788,0,0,0,0,2.146c.2-.31.407-.618.62-.922A10.139,10.139,0,0,1,3.712,2.41a10.352,10.352,0,0,1,4.471,4.5q.569-.439,1.153-.858a35.055,35.055,0,0,1,7.756-4.25C20.235.585,23.893-.539,27.279.279a.3.3,0,0,1,.129.062.317.317,0,0,1-.175.542" transform="translate(55.456 10.756)" fill="#fab8b5"/>
        <path id="path724" d="M27.256,1.242c-.079.172-.156.343-.23.509-.161.363-.322.723-.488,1.086-.063.006-.125.015-.189.024a36.841,36.841,0,0,0-6.778,1.61A106.312,106.312,0,0,0,7.856,9.521l-.217.1a.656.656,0,0,1-.753-.28C5.677,7.554,4.694,5.616,3.407,3.876A9.426,9.426,0,0,0,1.12,1.451,2.65,2.65,0,0,0,0,.957C.091.8.18.647.272.494L.564,0a3.5,3.5,0,0,1,.441.146A7.507,7.507,0,0,1,3.7,2.38C5.212,4.154,6.3,6.216,7.629,8.119Q8.161,7.84,8.7,7.55c5.658-2.993,12.1-6.332,18.552-6.308" transform="translate(52.744 16.388)" fill="#fab8b5"/>
        <path id="path726" d="M27.465,1.711q-.279.55-.564,1.09c-.495.091-.988.193-1.48.272a32.573,32.573,0,0,0-5.54,1.406,26.4,26.4,0,0,0-9.513,5.394.681.681,0,0,1-1.146-.261c-.083-.246-.18-.488-.288-.729A15.37,15.37,0,0,0,4.96,4.007,16.175,16.175,0,0,0,1.924,1.82C1.3,1.489.632,1.248,0,.936.141.623.288.31.442,0A5.7,5.7,0,0,1,2.47.729,18.056,18.056,0,0,1,5.8,3.043,18.735,18.735,0,0,1,9.6,7.3a9.766,9.766,0,0,1,.518.956A28.275,28.275,0,0,1,19.44,3.093a28.081,28.081,0,0,1,5.915-1.4,11.259,11.259,0,0,1,2.11.02" transform="translate(48.929 23.507)" fill="#fab8b5"/>
        <path id="path728" d="M26.666.144c-.371.654-.745,1.3-1.138,1.921a34.086,34.086,0,0,1-3.5,1.163A94.048,94.048,0,0,0,9.373,6.977a.6.6,0,0,1-.69-.257c-.113-.223-.24-.439-.378-.655A13.8,13.8,0,0,0,4.5,2.431C3.3,1.611,1.532.471,0,.83.039.6.086.368.136.136c1.426-.525,3.44.587,4.582,1.284A14.654,14.654,0,0,1,9.257,5.346c.061.088.121.179.178.271,4.15-1.727,8.522-2.642,12.831-3.87,1.5-.428,2.933-1.069,4.4-1.6" transform="translate(46.419 31.209)" fill="#fab8b5"/>
        <path id="path730" d="M0,34.378c1.759,5.616,10.35,6.374,15.563,5.644C22.785,39.01,27.85,33.49,31.679,27.5c3.48-5.445,6.787-12.9,7.105-19.5C38.9,5.539,36.72,1.337,34.348.344c-2.191-.918-7.14.128-9,1.669L0,34.378" transform="translate(23.707 1.564)" fill="#e07073"/>
        <path id="path732" d="M37.168,4.132c.044.208.078.429.1.659a9.21,9.21,0,0,1-.465,3.7c-.054.18-.112.361-.175.542h0a61.983,61.983,0,0,1-2.687,5.992c-.079.172-.156.343-.23.509-.161.363-.322.724-.488,1.086q-1.367,3.034-2.887,5.994-.279.55-.564,1.089-.829,1.595-1.7,3.161c-.348.629-.7,1.259-1.044,1.884-.371.655-.745,1.3-1.138,1.921-1.886,3.007-4.141,5.49-7.849,5.967a54.891,54.891,0,0,1-13.463.106,11.756,11.756,0,0,1-2.873-.527C.415,35.709-.118,34.7.021,32.241A22.487,22.487,0,0,1,.363,29.43C.4,29.2.45,28.967.5,28.736a32.9,32.9,0,0,1,2.375-6.9c.141-.313.289-.626.442-.936,1.029-2.122,2.2-4.176,3.373-6.162.091-.155.18-.309.272-.462l.293-.494c.68-1.147,1.386-2.33,2.147-3.487.2-.31.407-.618.62-.922.581-.843,1.195-1.664,1.852-2.442q.5-.6,1.043-1.155.332-.343.678-.67a9.741,9.741,0,0,1,5.8-2.867c1.086-.181,2.646-.627,4.407-1.073l.326-.083C28.847-.1,34.814-1.169,36.719,2.776a5.7,5.7,0,0,1,.45,1.356" transform="translate(23.311 1.707)" fill="#f89e93"/>
        <path id="path734" d="M35.462,4.131c.044.208.078.429.1.659a9.214,9.214,0,0,1-.465,3.7.317.317,0,0,1-.175.542h0a62,62,0,0,1-2.687,5.992c-.079.172-.156.343-.23.509-.161.363-.322.724-.488,1.086q-1.367,3.034-2.887,5.994-.279.55-.564,1.089-.829,1.595-1.7,3.161c-.348.629-.7,1.259-1.044,1.884-.371.654-.745,1.3-1.138,1.921-1.886,3.007-4.141,5.49-7.849,5.967a54.894,54.894,0,0,1-13.463.106A11.753,11.753,0,0,1,0,36.21a2.022,2.022,0,0,1,.37-.23c1.07-.524,3.442-.234,4.706-.566a7.257,7.257,0,0,0,1.885-.749,4.675,4.675,0,0,0,.951-.72c1.044-1.02,1.494-2.412,2.188-4.164.139-.354.29-.725.458-1.109.07-.16.138-.317.205-.475.711-1.638,1.382-3.268,2.073-4.9q.418-.986.848-1.97c.421-.959.856-1.916,1.315-2.876.31-.649.625-1.3.936-1.951q.551-1.145,1.093-2.3c.74-1.574,1.458-3.16,2.121-4.76.014-.034.027-.068.042-.1.334-.792.707-1.55,1.068-2.313.338-.715.664-1.435.934-2.19.391-1.1.591-2.42.9-3.674l.326-.083C27.141-.1,33.107-1.169,35.012,2.776a5.7,5.7,0,0,1,.45,1.356" transform="translate(25.018 1.707)" fill="#f0867f"/>
        <path id="path736" d="M25.3,1.356a19.477,19.477,0,0,1-2.346.555c-1.567.256-3.147.461-4.708.759A17.68,17.68,0,0,0,9.626,6.343a.8.8,0,0,1-.6.223.475.475,0,0,1-.206-.081A14.126,14.126,0,0,0,2.75,4.434,25.4,25.4,0,0,0,0,4.153Q.5,3.556,1.043,3c.658.038,1.318.1,1.972.19A15.548,15.548,0,0,1,9.064,5.032c.335-.278.68-.539,1.031-.78a19.9,19.9,0,0,1,7.322-2.941c1.618-.343,3.252-.6,4.877-.9C23.146.255,24,.139,24.847,0a5.7,5.7,0,0,1,.45,1.356" transform="translate(35.183 4.483)" fill="#fab8b5"/>
        <path id="path738" d="M27.233.882h0c-3.463.523-6.824.9-10.1,2.234A36.3,36.3,0,0,0,8.244,8.356s0,0,0,0a.578.578,0,0,1-.862-.321A8.664,8.664,0,0,0,3.229,3.378,9.777,9.777,0,0,0,0,2.146c.2-.31.407-.618.62-.922A10.142,10.142,0,0,1,3.712,2.41a10.353,10.353,0,0,1,4.471,4.5c.379-.293.762-.58,1.153-.857a35.049,35.049,0,0,1,7.756-4.25C20.235.585,23.893-.539,27.279.279a.309.309,0,0,1,.129.062.317.317,0,0,1-.175.542" transform="translate(32.711 9.853)" fill="#fab8b5"/>
        <path id="path740" d="M27.256,1.242c-.079.172-.156.343-.23.509-.161.363-.322.724-.488,1.086-.062.006-.125.014-.189.023a36.833,36.833,0,0,0-6.778,1.61A106.392,106.392,0,0,0,7.856,9.52l-.217.1a.657.657,0,0,1-.753-.28C5.677,7.553,4.694,5.616,3.407,3.876A9.423,9.423,0,0,0,1.12,1.45,2.649,2.649,0,0,0,0,.957C.091.8.18.647.272.494L.565,0a3.4,3.4,0,0,1,.441.146A7.507,7.507,0,0,1,3.7,2.38c1.512,1.774,2.6,3.836,3.929,5.74Q8.161,7.84,8.7,7.55c5.658-2.994,12.1-6.332,18.552-6.308" transform="translate(29.999 15.486)" fill="#fab8b5"/>
        <path id="path742" d="M27.466,1.711q-.279.55-.564,1.09c-.495.091-.988.193-1.48.272a32.6,32.6,0,0,0-5.54,1.406,26.4,26.4,0,0,0-9.513,5.394.681.681,0,0,1-1.146-.261c-.083-.246-.18-.488-.288-.729A15.376,15.376,0,0,0,4.96,4.007,16.2,16.2,0,0,0,1.924,1.82C1.3,1.489.632,1.248,0,.936.141.623.289.31.442,0A5.7,5.7,0,0,1,2.47.729,18.038,18.038,0,0,1,5.805,3.044,18.731,18.731,0,0,1,9.6,7.3a9.792,9.792,0,0,1,.518.956A28.273,28.273,0,0,1,19.44,3.093a28.076,28.076,0,0,1,5.915-1.4,11.265,11.265,0,0,1,2.11.02" transform="translate(26.185 22.604)" fill="#fab8b5"/>
        <path id="path744" d="M26.666.144c-.371.654-.745,1.3-1.138,1.921a34.064,34.064,0,0,1-3.5,1.163A94.03,94.03,0,0,0,9.373,6.977a.6.6,0,0,1-.69-.257c-.113-.223-.24-.439-.378-.654A13.8,13.8,0,0,0,4.5,2.431C3.3,1.611,1.532.471,0,.83.04.6.086.367.135.136c1.426-.525,3.44.587,4.583,1.284A14.652,14.652,0,0,1,9.257,5.346c.062.088.122.179.178.271,4.15-1.727,8.522-2.642,12.831-3.87,1.5-.428,2.933-1.069,4.4-1.6" transform="translate(23.675 30.307)" fill="#fab8b5"/>
        <path id="path746" d="M0,33.113c1.694,5.409,9.969,6.139,14.99,5.436,6.957-.975,11.835-6.292,15.523-12.061,3.352-5.244,6.537-12.43,6.844-18.786.114-2.367-1.989-6.414-4.273-7.371-2.11-.884-6.877.123-8.669,1.608L0,33.113" transform="translate(0.381 0)" fill="#e07073"/>
        <path id="path748" d="M35.8,3.98c.042.2.076.413.1.634a8.875,8.875,0,0,1-.448,3.56c-.052.173-.108.348-.169.522h0a59.606,59.606,0,0,1-2.588,5.771c-.076.166-.15.33-.222.49-.155.35-.31.7-.47,1.046q-1.317,2.923-2.781,5.773-.269.529-.544,1.05-.8,1.536-1.638,3.045c-.335.606-.67,1.213-1.006,1.815-.358.63-.718,1.25-1.1,1.85-1.816,2.9-3.989,5.288-7.56,5.747a52.876,52.876,0,0,1-12.967.1,11.306,11.306,0,0,1-2.767-.508C.4,34.4-.113,33.424.021,31.055A21.676,21.676,0,0,1,.35,28.347c.038-.224.083-.446.131-.669A31.7,31.7,0,0,1,2.768,21.03c.136-.3.278-.6.425-.9.991-2.044,2.121-4.022,3.249-5.935.088-.149.173-.3.262-.445l.282-.476c.655-1.1,1.335-2.244,2.068-3.359.195-.3.392-.6.6-.888.559-.812,1.151-1.6,1.784-2.352q.483-.575,1-1.113.32-.33.653-.645A9.382,9.382,0,0,1,18.68,2.155c1.046-.174,2.548-.6,4.245-1.034l.314-.08C27.786-.093,33.533-1.126,35.368,2.674A5.477,5.477,0,0,1,35.8,3.98" transform="translate(0 0.137)" fill="#f89e93"/>
        <path id="path750" d="M34.157,3.98c.042.2.076.413.1.634a8.875,8.875,0,0,1-.448,3.56.305.305,0,0,1-.169.522h0a59.6,59.6,0,0,1-2.588,5.771c-.076.166-.15.33-.222.49-.155.35-.31.7-.47,1.046q-1.317,2.923-2.781,5.773-.269.529-.544,1.05-.8,1.536-1.638,3.045c-.335.606-.67,1.213-1.006,1.815-.358.63-.718,1.25-1.1,1.85-1.816,2.9-3.989,5.288-7.56,5.747a52.87,52.87,0,0,1-12.968.1A11.305,11.305,0,0,1,0,34.878a1.948,1.948,0,0,1,.357-.222c1.03-.5,3.315-.225,4.533-.545a6.99,6.99,0,0,0,1.816-.722,4.528,4.528,0,0,0,.917-.694c1-.982,1.439-2.324,2.108-4.011.134-.341.28-.7.441-1.068.067-.154.133-.3.2-.458.684-1.578,1.331-3.148,2-4.717q.4-.949.817-1.9c.406-.924.825-1.845,1.267-2.77.3-.625.6-1.251.9-1.879q.531-1.1,1.052-2.216c.713-1.516,1.4-3.043,2.043-4.584.013-.033.026-.066.04-.1.322-.763.681-1.493,1.029-2.228.326-.689.639-1.382.9-2.11.376-1.056.569-2.331.867-3.539l.314-.08C26.142-.093,31.889-1.126,33.724,2.674a5.477,5.477,0,0,1,.433,1.306" transform="translate(1.644 0.137)" fill="#f0867f"/>
        <path id="path752" d="M24.365,1.306a18.734,18.734,0,0,1-2.259.534c-1.51.247-3.031.444-4.534.731a17.034,17.034,0,0,0-8.3,3.539.768.768,0,0,1-.578.215.461.461,0,0,1-.2-.078A13.606,13.606,0,0,0,2.649,4.271,24.451,24.451,0,0,0,0,4q.484-.575,1-1.112c.634.037,1.269.1,1.9.183A14.977,14.977,0,0,1,8.73,4.847c.323-.268.655-.52.993-.751a19.169,19.169,0,0,1,7.052-2.833c1.558-.33,3.132-.578,4.7-.866.821-.151,1.644-.263,2.46-.4a5.476,5.476,0,0,1,.433,1.306" transform="translate(11.435 2.811)" fill="#fab8b5"/>
        <path id="path754" d="M26.231.85h0c-3.336.5-6.573.867-9.726,2.152A34.949,34.949,0,0,0,7.94,8.049s0,0,0,0a.557.557,0,0,1-.831-.31,8.344,8.344,0,0,0-4-4.489A9.417,9.417,0,0,0,0,2.067c.195-.3.392-.6.6-.888A9.772,9.772,0,0,1,3.575,2.322,9.97,9.97,0,0,1,7.882,6.659c.365-.282.734-.558,1.11-.826a33.773,33.773,0,0,1,7.471-4.094C19.491.563,23.014-.519,26.276.268a.3.3,0,0,1,.124.06.305.305,0,0,1-.169.522" transform="translate(9.054 7.983)" fill="#fab8b5"/>
        <path id="path756" d="M26.253,1.2c-.076.166-.15.33-.222.49-.155.35-.31.7-.47,1.046-.06.006-.12.014-.182.023a35.5,35.5,0,0,0-6.529,1.551A102.444,102.444,0,0,0,7.567,9.17l-.209.1A.633.633,0,0,1,6.633,9C5.468,7.276,4.522,5.409,3.282,3.733A9.075,9.075,0,0,0,1.079,1.4,2.549,2.549,0,0,0,0,.921C.088.772.173.623.262.476L.544,0A3.328,3.328,0,0,1,.968.141a7.228,7.228,0,0,1,2.6,2.152C5.02,4,6.069,5.987,7.348,7.821q.513-.269,1.036-.548c5.45-2.883,11.653-6.1,17.869-6.076" transform="translate(6.442 13.409)" fill="#fab8b5"/>
        <path id="path758" d="M26.455,1.648c-.18.353-.36.7-.544,1.05-.476.088-.952.186-1.425.262A31.388,31.388,0,0,0,19.15,4.314a25.433,25.433,0,0,0-9.163,5.2.656.656,0,0,1-1.1-.251c-.08-.237-.173-.47-.277-.7a14.809,14.809,0,0,0-3.829-4.7A15.6,15.6,0,0,0,1.853,1.753C1.253,1.434.609,1.2,0,.9.136.6.278.3.425,0A5.486,5.486,0,0,1,2.379.7,17.385,17.385,0,0,1,5.591,2.931a18.042,18.042,0,0,1,3.653,4.1,9.422,9.422,0,0,1,.5.921,27.23,27.23,0,0,1,8.981-4.972,27.033,27.033,0,0,1,5.7-1.351,10.854,10.854,0,0,1,2.032.019" transform="translate(2.768 20.265)" fill="#fab8b5"/>
        <path id="path760" d="M25.685.139c-.358.63-.718,1.25-1.1,1.85a32.873,32.873,0,0,1-3.373,1.121A90.6,90.6,0,0,0,9.028,6.72a.576.576,0,0,1-.665-.247c-.109-.215-.231-.423-.364-.63a13.29,13.29,0,0,0-3.66-3.5C3.178,1.552,1.476.454,0,.8.038.576.083.354.131.131,1.5-.374,3.444.7,4.545,1.368A14.113,14.113,0,0,1,8.916,5.149c.059.085.117.172.171.261,4-1.663,8.208-2.545,12.358-3.727C22.894,1.27,24.271.653,25.685.139" transform="translate(0.35 27.685)" fill="#fab8b5"/>
      </g>
      <g id="Group_91" data-name="Group 91" transform="matrix(0.995, -0.105, 0.105, 0.995, 270.327, 189.674)">
        <path id="path430" d="M.605.325C-.949,2.9.9,6.333,1.572,9.1c.6,2.466.775,5.048,1.472,7.544.79,2.828.708,5.727,1.611,8.366A44.193,44.193,0,0,0,8.03,32.019c.991.59,2.11,1.752,3.226,2.46,2.173-6.215,1.326-14.125-.976-20.519C9.335,11.338,5.392-1.351,1.355.118L.605.325" transform="translate(0.359 4.978)" fill="#e7969f"/>
        <path id="path432" d="M59.457,59.221c-2.012,2.07-5.625,1.647-8.274.66-4.488-1.67-6.323-5.661-9.432-8.952-2.136-2.26-5.589-3.58-8.5-4.336-3.649-.949-6.828-2.585-10.4-3.69-2.715-.84-5.565-1.057-8.153-1.819-2.46-.724-3.909-1.349-4.821-3.836-.723-1.968-.728-4.142-1.337-6.176-.446-1.49-1.026-2.958-1.531-4.444a24.364,24.364,0,0,1-.9-3.257c-.047-.244-.09-.488-.13-.731-.507-2.991-.66-6-1.783-8.863-.628-1.6-.982-3.811-1.91-5.212C.141,9.925-.105,4.787.03,3.663A3.7,3.7,0,0,1,2.546.632,9.687,9.687,0,0,1,5.859.009C12.888-.2,19.679,3,25.042,7.282c4.791,3.82,8.25,8.938,11.375,14.14,1.587,2.642,3.1,5.326,4.727,7.945,1.262,2.033,2.323,4.926,3.949,6.65,1.786,1.892,3.12,4.451,5.241,6.122a11.076,11.076,0,0,0,2.7,1.5c1.858.752,3.924,1.222,5.7,1.873,1.894.692,3.944,3.1,3.8,5.21a19.583,19.583,0,0,1-1.026,3.083,25.053,25.053,0,0,1-1.139,4.047,4.672,4.672,0,0,1-.915,1.368" transform="translate(0 0)" fill="#f0a9ac"/>
        <path id="path434" d="M6.759,21.239a2.827,2.827,0,0,1-.786.77c-.507-2.991-.66-6-1.783-8.863-.628-1.6-.981-3.811-1.91-5.212C.141,9.293-.105,4.155.03,3.031A3.7,3.7,0,0,1,2.546,0c-.48,1.081.769,2.589,1.447,3.738a9.406,9.406,0,0,1,1.226,6.2,15.069,15.069,0,0,0,.392,5.8c.684,1.914,2.585,3.462,1.148,5.508" transform="translate(0 0.632)" fill="#e7969f"/>
        <path id="path436" d="M52.451,32.593c-2.012,2.07-5.625,1.647-8.274.66-4.488-1.67-6.324-5.661-9.432-8.952-2.136-2.26-5.589-3.58-8.5-4.337-3.649-.949-6.828-2.585-10.4-3.69-2.715-.84-5.565-1.057-8.153-1.819-2.46-.723-3.909-1.349-4.821-3.836-.723-1.968-.728-4.142-1.337-6.176C1.085,2.954.506,1.486,0,0,.217.275.436.549.652.824c1.3,1.64,6.581,9.094,9.2,6.675.824-.761,1.049-3.074,1.75-4.193.193-.308,3.857,6.41,4.532,7.124,3.9,4.124,9.493,5.592,14.476,8.045,5.309,2.613,9.076,7.579,13.106,11.474a15.042,15.042,0,0,0,5.634,3.387,7.758,7.758,0,0,0,3.1-.743" transform="translate(7.006 26.628)" fill="#e7969f"/>
        <path id="path438" d="M9.755,29.72a16.754,16.754,0,0,0-.972-4.992C8.274,23.262,7.6,21.863,7.046,20.34c-1.09-2.974-2.651-5.587-3.449-8.72A27.122,27.122,0,0,1,2.556,7.386a11.606,11.606,0,0,0-.3-3.167C1.763,2.838,1.358.961.209.013-.088-.232.007,3,.047,3.222.263,4.435.359,5.847.673,7.071c.232.9.708,1.75.99,2.658A107.053,107.053,0,0,1,5.045,22.523a60.368,60.368,0,0,0,1.3,6.007c.5,1.766,1.357,5.155,3.329,5.815.744-1.039.119-3.377.08-4.624" transform="translate(1.76 5.192)" fill="#d95e54"/>
        <path id="path440" d="M0,.065C0,.246.032.272.154.412a4.383,4.383,0,0,1,.574.909,7.312,7.312,0,0,1,.6,1.97,28.71,28.71,0,0,1,.437,4.221A9.173,9.173,0,0,1,1.769,9.32c-.019.119-.247.77-.093.589A2.364,2.364,0,0,0,1.3,11.278a4.413,4.413,0,0,0,.623,2.6A6.267,6.267,0,0,1,2.707,16.6c.138.88,1.67.663,1.546-.22-.054-.379-.11-.757-.181-1.133a4.206,4.206,0,0,1-.231-1.436,5.342,5.342,0,0,0-.3-2.852,6.7,6.7,0,0,1-.713-1.952c-.077-.681-.089-1.37-.14-2.054A16.192,16.192,0,0,0,1.9,2.746a9.176,9.176,0,0,0-.866-1.8C.84.632.48-.009.064,0A.065.065,0,0,0,0,.065H0" transform="translate(6.054 19.869)" fill="#d7473f"/>
        <path id="path442" d="M0,.266C-.039.9.7,1.429,1.118,1.823c.472.44,1.262,1.04,1.933.865a.261.261,0,0,0,.18-.317c-.154-.6-.847-.981-1.3-1.362C1.5.646.856-.063.256,0A.266.266,0,0,0,0,.266H0" transform="translate(51.727 53.745)" fill="#f0a9ac"/>
        <path id="path444" d="M1.921.6,1.86.545l.121.286C1.936.41,1.567.231,1.2.11A1.023,1.023,0,0,0,.123.2a.45.45,0,0,0-.069.53c.136.3.493.378.787.438s.657.207.935.028l-.308.043.084.018A.39.39,0,0,0,1.921.6h0" transform="translate(55.3 56.1)" fill="#f0a9ac"/>
        <path id="path446" d="M.5.113A1.02,1.02,0,0,0,.146.483,1.212,1.212,0,0,0,0,1.043a2.057,2.057,0,0,0,.238.774L.144,1.592l.009.021.094.224a.95.95,0,0,0,1.073.438.956.956,0,0,0,.662-1.167A2.237,2.237,0,0,0,1.8.686c-.019-.034-.036-.069-.053-.1A1.355,1.355,0,0,0,1.544.319L1.685.5A.254.254,0,0,1,1.654.45l.085.2A.118.118,0,0,1,1.733.627l.031.214s0-.009,0-.013A.856.856,0,0,0,1.337.109.839.839,0,0,0,.5.114h0" transform="translate(18.903 33.986)" fill="#fabdc4"/>
        <path id="path448" d="M0,.465A1.207,1.207,0,0,0,1.2,1.5.558.558,0,0,0,1.672.678,1.411,1.411,0,0,0,.454,0,.46.46,0,0,0,0,.465H0" transform="translate(18.302 30.363)" fill="#fabdc4"/>
        <path id="path450" d="M0,.413A1.261,1.261,0,0,0,.131.926C.065.771.137.952.149.982a1.076,1.076,0,0,0,.257.376A.587.587,0,0,0,1.387.786a1.254,1.254,0,0,0-.2-.406A1.269,1.269,0,0,0,1.012.2.737.737,0,0,0,.193.073.385.385,0,0,0,0,.413H0" transform="translate(18.922 27.795)" fill="#fabdc4"/>
        <path id="path452" d="M.275,1.022c.358.165.879.163,1-.309L1.227.839,1.233.83l-.179.181c.035-.021.117-.045-.013,0a.426.426,0,0,0,.292-.3.435.435,0,0,0-.109-.4A.374.374,0,0,0,1.2.285c-.045-.049-.019-.044.027.048l.05.12a.5.5,0,0,0-.252-.33C.97.1.919.079.866.06A1.594,1.594,0,0,0,.675.038l.14.016A.553.553,0,0,1,.721.033L.857.088A.237.237,0,0,1,.816.068.555.555,0,0,0,.068.275a.55.55,0,0,0,.207.747h0" transform="translate(19.746 25.366)" fill="#fabdc4"/>
        <path id="path454" d="M.416.08A.813.813,0,0,0,.029.565a1.324,1.324,0,0,0,0,.556,1.1,1.1,0,0,0,1.03.815.8.8,0,0,0,.765-.6A.822.822,0,0,0,1.444.441C1.394.405,1.336.387,1.284.354l.172.13A1.537,1.537,0,0,1,1.273.319l.073.095Q1.283.323,1.213.238C1.242.267.845-.033,1.11.17A.587.587,0,0,0,.416.08h0" transform="translate(22.319 35.586)" fill="#fabdc4"/>
        <path id="path456" d="M.215.206A.722.722,0,0,0,0,.727a.773.773,0,0,1,0,.1.833.833,0,0,0,.434.809l.193.077a.774.774,0,0,0,.395,0,.824.824,0,0,0,.467-.364L1.5,1.327a.8.8,0,0,0,0-.795.862.862,0,0,0-.25-.308A.813.813,0,0,0,.709,0,.7.7,0,0,0,.215.206h0" transform="translate(22.273 32.152)" fill="#fabdc4"/>
        <path id="path458" d="M.021.783.03.816Q-.014.557.035.877a.94.94,0,0,0,.239.373,1.028,1.028,0,0,0,.086.09.765.765,0,0,0,.351.2.886.886,0,0,0,.41-.008l-.187.027.027,0L.775,1.533a.787.787,0,0,0,.41-.007A.709.709,0,0,0,1.665.678a.783.783,0,0,0-.2-.355l.114.148L1.564.447l.073.174A.84.84,0,0,0,1.271.142.976.976,0,0,0,.96.038,1.323,1.323,0,0,0,.693,0,.693.693,0,0,0,.354.093C.446.028.5.042.431.061a.592.592,0,0,0-.41.722h0" transform="translate(22.569 29.44)" fill="#fabdc4"/>
        <path id="path460" d="M0,.226C0,.489.172.637.37.784a2.244,2.244,0,0,0,.3.171.766.766,0,0,0,.393.08A.311.311,0,0,0,1.329.572a.768.768,0,0,0-.27-.3,2.031,2.031,0,0,0-.4-.211C.48,0,0-.1,0,.226H0" transform="translate(23.741 27.11)" fill="#fabdc4"/>
        <path id="path462" d="M0,.292a.835.835,0,0,0,.45.74A.5.5,0,0,0,1.12.847.5.5,0,0,0,.935.177,1.5,1.5,0,0,0,.36.007.292.292,0,0,0,0,.292H0" transform="translate(26.565 37.484)" fill="#fabdc4"/>
        <path id="path464" d="M.011.566c0-.025.005-.05.008-.075a.641.641,0,0,0,0,.327,1.5,1.5,0,0,0,.149.315,1.182,1.182,0,0,0,.7.561c.559.152,1.159-.536.79-1.049A1.683,1.683,0,0,0,1.173.211C1.121.177,1.06.152,1.006.12A.642.642,0,0,0,.8.026Q.513-.009.708.016a.567.567,0,0,0-.7.55h0" transform="translate(25.913 34.063)" fill="#fabdc4"/>
        <path id="path466" d="M.01.384A.382.382,0,0,1,.022.435q0-.085,0-.171A.619.619,0,0,0,.158.751a.615.615,0,0,0,.531.35A.424.424,0,0,0,1.082.577.423.423,0,0,0,.969.37C.909.3,1.031.458.973.379A1.039,1.039,0,0,0,.713.149C.666.116.619.082.571.051A.365.365,0,0,0,.282.015H.3L.213.027a.29.29,0,0,0-.2.357h0" transform="translate(26.422 31.302)" fill="#fabdc4"/>
        <path id="path468" d="M.053.582A.894.894,0,0,0,1.111,1a.327.327,0,0,0,.17-.3.894.894,0,0,0-.9-.7.39.39,0,0,0-.33.582h0" transform="translate(27.239 29.05)" fill="#fabdc4"/>
        <path id="path470" d="M0,.421a.823.823,0,0,0,.357.634A1.107,1.107,0,0,0,.778,1.3a1.136,1.136,0,0,0,.462,0A.562.562,0,0,0,1.367.27,1.9,1.9,0,0,0,.895.107,1.774,1.774,0,0,0,.41,0,.419.419,0,0,0,0,.421H0" transform="translate(18.372 38.794)" fill="#f0a9ac"/>
        <path id="path472" d="M.058.6a1.854,1.854,0,0,0,.532.512.53.53,0,0,0,.526,0L1.142,1.1l-.235.065c.449-.014.627-.329.409-.721l.065.235,0-.029A.53.53,0,0,0,1.112.195,1.863,1.863,0,0,0,.4,0,.4.4,0,0,0,.058.6h0" transform="translate(21.728 39.845)" fill="#f0a9ac"/>
        <path id="path474" d="M.075.282a.99.99,0,0,0,.253.09.4.4,0,0,0,.28-.08A.065.065,0,0,0,.575.172.8.8,0,0,1,.222.024C.062-.083-.1.2.075.282h0" transform="translate(25.983 41.411)" fill="#f0a9ac"/>
        <path id="path476" d="M0,.612a1.542,1.542,0,0,0,.155.646.856.856,0,0,0,.805.515.743.743,0,0,0,.479-.2A.693.693,0,0,0,1.615.9.927.927,0,0,0,1.156.345c-.1-.057.14.129,0,0C1.141.33,1.125.312,1.109.294c.117.133.043.051.018.007A.608.608,0,0,0,.443.021.613.613,0,0,0,0,.612H0" transform="translate(13.407 36.337)" fill="#f0a9ac"/>
        <path id="path478" d="M.11.59.133.64q0-.2,0-.4A.518.518,0,0,0,.054.406Q.142.218.032.476A.7.7,0,0,0,.053.941,1.185,1.185,0,0,0,.579,1.7.741.741,0,0,0,1.651.866,1.336,1.336,0,0,0,1.039.172.67.67,0,0,0,.629.028Q.548.028.665.041A.7.7,0,0,0,.374.049l.392.1L.729.114A.4.4,0,0,0,.253.052.4.4,0,0,0,.11.59h0" transform="translate(14.399 31.769)" fill="#fabdc4"/>
        <path id="path480" d="M.01.665a1.043,1.043,0,0,0,1.235.793A.5.5,0,0,0,1.588.852,1.363,1.363,0,0,0,.632.028C.237-.115-.058.324.01.665h0" transform="translate(14.176 28.58)" fill="#fabdc4"/>
        <path id="path482" d="M0,.361a1.279,1.279,0,0,0,.265.651c.212.328.694.584,1.023.254a.656.656,0,0,0-.2-1A1.82,1.82,0,0,0,.353,0,.361.361,0,0,0,0,.361H0" transform="translate(14.421 26.276)" fill="#fabdc4"/>
        <path id="path484" d="M.011.312C.028.355.046.4.064.44A.431.431,0,0,0,.222.6.439.439,0,0,0,.7.624.32.32,0,0,0,.7.078.556.556,0,0,0,.4.006C.362,0,.367,0,.41.009a.307.307,0,0,0-.155,0L.173.026A.231.231,0,0,0,.011.312h0" transform="translate(15.578 24.072)" fill="#fabdc4"/>
        <path id="path486" d="M.029.213.053.237.023.129A.217.217,0,0,0,.115.382.206.206,0,0,0,.394.3.206.206,0,0,0,.317.026a.218.218,0,0,0-.264.05L.161.047.127.039a.1.1,0,0,0-.1.173h0" transform="translate(16.031 22.782)" fill="#fabdc4"/>
        <path id="path488" d="M0,.41c.064.435.694.715,1.077.721a.4.4,0,0,0,.193-.75C1.119.3.956.265.8.2A1.432,1.432,0,0,0,.311,0C.083-.018-.023.224,0,.41H0" transform="translate(10.595 24.596)" fill="#fabdc4"/>
        <path id="path490" d="M.022.306a.7.7,0,0,0,.773.37A.321.321,0,0,0,.7.045L.648.052c-.009,0-.1-.008-.034,0C.565.046.519.026.469.019A.966.966,0,0,0,.364.008l-.026,0L.289,0,.2.012C.142.021.246.007.186.015A.2.2,0,0,0,.022.306h0" transform="translate(11.402 22.352)" fill="#fabdc4"/>
        <path id="path492" d="M.571.063.545.052A.389.389,0,0,0,.268.017.364.364,0,0,0,.185.686L.364.764a.351.351,0,0,0,.47-.13A.345.345,0,0,0,.7.165L.686.157A.35.35,0,0,0,.219.286.35.35,0,0,0,.348.753L.364.764a.345.345,0,0,0,.47-.13A.352.352,0,0,0,.7.165L.545.052A.365.365,0,0,0,.013.466a.393.393,0,0,0,.172.22L.208.7A.368.368,0,1,0,.571.063h0" transform="translate(11.074 19.891)" fill="#fabdc4"/>
        <path id="path494" d="M.359,1.192c.027,0,.237.066.152.029a1.466,1.466,0,0,0,.354.129,6.517,6.517,0,0,0,.72.093.67.67,0,0,0,.64-.506A.685.685,0,0,0,1.739.126,1.526,1.526,0,0,0,.232.287c-.312.228-.346.824.127.9h0" transform="translate(7.175 1.711)" fill="#fabdc4"/>
        <path id="path496" d="M.05.543a1.343,1.343,0,0,0,.69.577.749.749,0,0,0,.374.059.4.4,0,0,0,.193-.053c.2-.116-.112-.029.135-.037a.118.118,0,0,0,.1-.175Q1.491.734,1.491.881a.394.394,0,0,0,0-.2A.744.744,0,0,0,1.207.3,1.343,1.343,0,0,0,.358,0,.364.364,0,0,0,.05.543h0" transform="translate(8.369 4.915)" fill="#fabdc4"/>
        <path id="path498" d="M.077.454a.33.33,0,0,0,.341.1l.1-.032a.139.139,0,0,0,.1-.168L.589.252A.33.33,0,0,0,.329.01.266.266,0,0,0,.077.454h0" transform="translate(9.261 7.517)" fill="#fabdc4"/>
        <path id="path500" d="M.109.638l.1.1A.48.48,0,0,0,.681.885.415.415,0,0,0,.971.374.473.473,0,0,0,.614.044L.465.01A.38.38,0,0,0,.048.188a.38.38,0,0,0,.061.45h0" transform="translate(9.894 9.73)" fill="#fabdc4"/>
        <path id="path502" d="M.251.774A6.14,6.14,0,0,1,.868.982c.26.111.455.315.751.312A.468.468,0,0,0,2.081.82C1.981.018.864-.145.243.112A.345.345,0,0,0,.251.774h0" transform="translate(12.01 2.928)" fill="#fabdc4"/>
        <path id="path504" d="M.067.715a.58.58,0,0,1,.057.1L.074.692A.508.508,0,0,1,.1.788a.563.563,0,0,0,.286.36A.53.53,0,0,0,.779,1.2.516.516,0,0,0,1.142.825a.572.572,0,0,0-.18-.6A1.025,1.025,0,0,0,.592.019a.465.465,0,0,0-.45.124A.471.471,0,0,0,.067.715h0" transform="translate(12.68 6.205)" fill="#fabdc4"/>
        <path id="path506" d="M.036.223A.755.755,0,0,1,.1.287L.054.183a.491.491,0,0,0,.208.37,1.617,1.617,0,0,0,.38.1C.691.66.75.608.714.558A.454.454,0,0,1,.631.384.345.345,0,0,0,.548.178.7.7,0,0,0,.369.06.342.342,0,0,0,.236.021C.126.023.261.039.159.006A.13.13,0,0,0,.036.223h0" transform="translate(13.47 9.96)" fill="#fabdc4"/>
        <path id="path508" d="M.012.523c.009.049.017.1.027.146A.426.426,0,0,0,.86.442C.843.4.825.349.808.3A.437.437,0,0,0,.614.054.413.413,0,0,0,.051.209.436.436,0,0,0,.012.523h0" transform="translate(13.673 12.17)" fill="#fabdc4"/>
        <path id="path510" d="M.011.676c.037.208.226.3.378.413.048.036.113.059.164.093a.816.816,0,0,0,.2.085C.671,1.232.664,1.23.727,1.259a.585.585,0,0,0,.582,0,.827.827,0,0,0,.215-.217.591.591,0,0,0-.1-.7A1.014,1.014,0,0,0,.668,0,.908.908,0,0,0,.246.118.51.51,0,0,0,.011.676h0" transform="translate(9.758 14.334)" fill="#fabdc4"/>
        <path id="path512" d="M.119.715.336.94a1.011,1.011,0,0,0,.383.23A.516.516,0,0,0,1.406.98a.516.516,0,0,0-.19-.687A.959.959,0,0,0,.86.092L.518.012a.422.422,0,0,0-.4.7h0" transform="translate(10.047 16.598)" fill="#fabdc4"/>
        <path id="path514" d="M.112,1.252a1.687,1.687,0,0,0,.241.29A1.391,1.391,0,0,0,.6,1.721c.2.118-.153-.136.025.022a1.794,1.794,0,0,0,.8.565.865.865,0,0,0,1.037-.62A1.323,1.323,0,0,0,1.8.318,1.351,1.351,0,0,0,.6.059.869.869,0,0,0,.108.442a.8.8,0,0,0,0,.81h0" transform="translate(17.294 4.941)" fill="#fabdc4"/>
        <path id="path516" d="M0,.5a.908.908,0,0,0,.231.6.789.789,0,0,0,.4.273A.777.777,0,0,0,1.2,1.3.606.606,0,0,0,1.513.744.778.778,0,0,0,1.279.222.9.9,0,0,0,.675,0C.38,0,0,.149,0,.5H0" transform="translate(17.702 8.528)" fill="#fabdc4"/>
        <path id="path518" d="M.042.542.053.568C.038.511.022.454.006.4A.658.658,0,0,0,.2.855.582.582,0,0,0,.772.974a.425.425,0,0,0,.3-.522A.582.582,0,0,0,.67.019a.658.658,0,0,0-.49.072L.35.044l-.027,0A.347.347,0,0,0,.041.215a.346.346,0,0,0,0,.327h0" transform="translate(18.004 11.133)" fill="#fabdc4"/>
        <path id="path520" d="M.025.747a1.287,1.287,0,0,0,.594.695,1.113,1.113,0,0,0,.534.179.769.769,0,0,0,.631-.354.752.752,0,0,0,.05-.554.881.881,0,0,0-.445-.5A1.3,1.3,0,0,0,.435.025.586.586,0,0,0,.025.747h0" transform="translate(51.253 46.691)" fill="#fabdc4"/>
        <path id="path522" d="M.066.68a1.413,1.413,0,0,0,.563.467.537.537,0,0,0,.623-.085.446.446,0,0,0,.136-.24A.537.537,0,0,0,1.14.245,1.412,1.412,0,0,0,.451,0,.454.454,0,0,0,.066.68h0" transform="translate(54.688 48.542)" fill="#fabdc4"/>
        <path id="path524" d="M.018.483.022.5c0-.061,0-.123,0-.184A.566.566,0,0,0,0,.462a.5.5,0,0,0,.135.32C.154.806.173.832.194.854A.5.5,0,0,0,.976.748.5.5,0,0,0,.666.023C.635.016.6.013.573.009A.5.5,0,0,0,.23.058.557.557,0,0,0,.115.15L.274.057l-.017,0A.345.345,0,0,0,.018.483h0" transform="translate(57.927 50.06)" fill="#fabdc4"/>
        <path id="path526" d="M.74,0C.444-.03.28.2.173.444A1.2,1.2,0,0,0,.038,1.3a.5.5,0,0,0,.9.111,1.787,1.787,0,0,0,.131-.8C1.09.362,1.051.038.74,0h0" transform="translate(17.793 16.758)" fill="#fabdc4"/>
        <path id="path528" d="M.234.114C.214.167.16.227.132.28A1.022,1.022,0,0,0,.057.536,1.108,1.108,0,0,0,.025,1.1c.073.245.484.353.6.074a1.047,1.047,0,0,0,.05-.56C.663.519.653.43.635.342S.554.185.534.111a.156.156,0,0,0-.3,0h0" transform="translate(18.607 19.959)" fill="#fabdc4"/>
        <path id="path530" d="M.254.21A1.685,1.685,0,0,0,0,1.028c.006.374.165.911.587.991a.512.512,0,0,0,.557-.238c.168-.283.027-.571-.033-.862C1.148,1.1,1.077.67,1.093.775,1.086.729,1.074.685,1.062.639A1.249,1.249,0,0,1,1.026.408.416.416,0,0,0,.254.21h0" transform="translate(22.8 19.99)" fill="#fabdc4"/>
        <path id="path532" d="M.1.251A.661.661,0,0,0,0,.616.584.584,0,0,0,.164,1a.516.516,0,0,0,.394.156A.5.5,0,0,0,.8,1.089.481.481,0,0,0,1.039.778.634.634,0,0,0,1.033.494.655.655,0,0,0,.963.337l.051.122A.127.127,0,0,1,1.007.433c.006.043.012.086.019.129a.259.259,0,0,1,0-.058L1.01.633l0-.016A.5.5,0,0,0,.776.064.5.5,0,0,0,.1.251h0" transform="translate(24.011 24.352)" fill="#fabdc4"/>
        <path id="path534" d="M.456.074a1.193,1.193,0,0,0-.456,1A.936.936,0,0,0,.557,2c.346.1.612-.361.681-.637a1.638,1.638,0,0,0,.047-.5,1.144,1.144,0,0,0-.132-.6.514.514,0,0,0-.7-.185h0" transform="translate(29.856 35.178)" fill="#fabdc4"/>
        <path id="path536" d="M.038.1A.579.579,0,0,1,.027.338a.365.365,0,0,0,.012.3A.153.153,0,0,0,.318.6.766.766,0,0,0,.289.335,1.554,1.554,0,0,0,.241.071C.2-.032.021-.023.038.1h0" transform="translate(31.24 38.904)" fill="#fabdc4"/>
        <path id="path538" d="M.089.2A.565.565,0,0,0,.043.72a.557.557,0,0,0,.23.322,1.207,1.207,0,0,0,.235.1A.228.228,0,0,0,.784.979C.789.942.794.9.8.867.8.782.788.924.8.853a.675.675,0,0,0-.006-.3C.786.53.78.455.793.573.789.538.8.45.783.587A1.016,1.016,0,0,0,.8.453C.8.569.786.525.8.482A.386.386,0,0,0,.616.05.4.4,0,0,0,.089.2h0" transform="translate(34.256 40.328)" fill="#fabdc4"/>
      </g>
      <g id="Group_87" data-name="Group 87" transform="matrix(0.966, -0.259, 0.259, 0.966, 205.118, 202.702)">
        <path id="path356" d="M10.052,28.043c6.23-1.161,11.649-6.195,15.571-10.917,2.992-3.6,8.133-13.031,1.986-16.418-6.6-3.636-8.15,7.751-9.462,11.351-1.541,4.226-5.511,6.256-9.629,7.308-2.872.734-10.009.163-8.239,5.19,1.4,3.979,6.333,4.128,9.773,3.487" transform="translate(31.201 2.122)" fill="#d23922"/>
        <path id="path358" d="M.809,24.339a10.286,10.286,0,0,0,7.277,1.23c.391-.056.778-.121,1.156-.191a17.027,17.027,0,0,0,4.79-1.752q.468-.233.934-.477a16.651,16.651,0,0,0,3.358-1.762c.354-.237.7-.486,1.038-.746a27.035,27.035,0,0,0,7.989-10.414c.124-.4.24-.813.341-1.243.085-.4.168-.831.237-1.272.072-.357.131-.735.171-1.125.022-2.25.16-4.766-1.964-6C21.7-2.136,20.378,5.278,19.221,8.507c-.129.475-.249.937-.362,1.375-.376,2.033-1.478,3.255-2.66,4.9-.253.23-.522.437-.8.658-.333.247-.68.481-1.037.7a24.647,24.647,0,0,1-3.4,1.732c-.428.166-.862.312-1.3.446a22.855,22.855,0,0,1-5.5.953,9.473,9.473,0,0,0-1.3.257A3.4,3.4,0,0,0,0,23.082a2.423,2.423,0,0,0,.808,1.257" transform="translate(31.146 2.974)" fill="#eb4920"/>
        <path id="path360" d="M4.31,1.445A1.871,1.871,0,0,0,3.431.181C2.135-.628-.51,1.447.086,2.955c.4,1.023,2.038.952,2.859.721A1.959,1.959,0,0,0,4.31,1.445" transform="translate(32.185 22.887)" fill="#f36543"/>
        <path id="path362" d="M1.555,2.4A8.435,8.435,0,0,1,0,.155C.773-.278,3.3.31,4.169.531A4.871,4.871,0,0,1,2.846,2.244L1.555,2.4" transform="translate(54.862 0)" fill="#d23922"/>
        <path id="path364" d="M.521.973a1.655,1.655,0,0,1,.517.092,4.131,4.131,0,0,0,.874.186A.493.493,0,0,0,2.461.842.485.485,0,0,0,2.053.293C1.5.262.972-.063.414.011A.484.484,0,0,0,.521.973h0" transform="translate(55.644 1.633)" fill="#da8e4c"/>
        <path id="path366" d="M21.57.559c-6.1,1.577-11.742,6.628-15.913,11.27C2.475,15.37-3.261,24.417,2.385,27.005c6.061,2.779,8.5-7.761,10.06-11.162,1.835-3.992,5.83-6.176,9.886-7.478,2.83-.908,9.662-.977,8.372-5.427C29.682-.584,24.939-.312,21.57.559" transform="translate(0 23.357)" fill="#d23922"/>
        <path id="path368" d="M27.94.9C25.874-.239,23.46-.158,21.026.379c-.382.083-.76.175-1.13.27a20.189,20.189,0,0,0-4.762,2q-.47.252-.94.513a20.3,20.3,0,0,0-3.383,1.889c-.36.246-.716.5-1.062.768A32.064,32.064,0,0,0,1.186,16c-.152.374-.3.763-.431,1.164-.116.376-.23.773-.334,1.183-.1.333-.187.683-.258,1.043-.207,2.059-.549,4.371,1.4,5.323C5.615,26.837,7.5,19.949,8.882,16.9c.164-.445.318-.877.463-1.287.531-1.891,1.694-3.1,2.97-4.7.263-.232.539-.443.826-.668.342-.253.7-.5,1.058-.729a30.009,30.009,0,0,1,3.419-1.865c.426-.187.857-.357,1.292-.516a25.546,25.546,0,0,1,5.382-1.326,10.694,10.694,0,0,0,1.273-.343C27.19,4.9,28.47,3.9,28.615,1.984A1.742,1.742,0,0,0,27.94.9" transform="translate(2.357 24.853)" fill="#eb4920"/>
        <path id="path370" d="M.008,2.389A1.353,1.353,0,0,0,.751,3.471C1.933,4.1,4.655,1.988,4.2.658c-.306-.9-1.886-.7-2.7-.423a2.186,2.186,0,0,0-1.5,2.153" transform="translate(25.666 26.468)" fill="#f36543"/>
        <path id="path372" d="M2.674,0A6.007,6.007,0,0,1,3.988,1.924c-.781.46-3.167.131-3.988,0A5.775,5.775,0,0,1,1.417.25L2.674,0" transform="translate(1.982 50.557)" fill="#d23922"/>
        <path id="path374" d="M1.892.14A1.571,1.571,0,0,1,1.4.1,3.806,3.806,0,0,0,.574,0,.582.582,0,0,0,.011.42.367.367,0,0,0,.36.888a8.332,8.332,0,0,0,1.556.122c.6-.126.58-1-.024-.871h0" transform="translate(3.024 50.208)" fill="#da8e4c"/>
        <path id="path376" d="M1.528,9.838c2.746,5.672,8.807,10.209,14.179,13.387,4.1,2.424,14.1,6.267,15.524.224,1.533-6.488-9.28-6.807-12.922-7.67-4.274-1.014-7.2-4.5-9.276-8.222C7.586,4.961,6.175-1.724,2.066.416-1.187,2.11.012,6.706,1.528,9.838" transform="translate(0.505 50.616)" fill="#d23922"/>
        <path id="path378" d="M.321.908c-.712,2.25-.158,4.6.847,6.881.157.358.321.71.487,1.055a20.185,20.185,0,0,0,2.9,4.276q.34.411.688.821a20.224,20.224,0,0,0,2.517,2.944q.468.46.962.893a32.1,32.1,0,0,0,11.667,6.393c.4.075.807.141,1.226.192.391.039.8.073,1.225.095.346.032.707.049,1.073.049,2.06-.2,4.393-.321,4.944-2.417,1.287-4.4-5.837-4.887-9.1-5.643-.468-.073-.922-.139-1.353-.2-1.958-.149-3.371-1.051-5.2-1.987-.279-.213-.54-.442-.817-.679q-.473-.428-.923-.894A29.94,29.94,0,0,1,8.965,9.7c-.267-.381-.519-.77-.76-1.166A25.559,25.559,0,0,1,5.847,3.52a10.676,10.676,0,0,0-.586-1.18C4.394.856,3.161-.2,1.25.033A1.741,1.741,0,0,0,.321.908" transform="translate(1.798 50.629)" fill="#eb4920"/>
        <path id="path380" d="M2.962,3.907a1.353,1.353,0,0,0,.915-.941C4.265,1.683,1.655-.57.44.133-.384.61.123,2.12.556,2.86A2.185,2.185,0,0,0,2.962,3.907" transform="translate(3.108 51.552)" fill="#f36543"/>
        <path id="path382" d="M0,1.667A6.018,6.018,0,0,1,1.628,0c.6.677.751,3.081.786,3.911A5.755,5.755,0,0,1,.492,2.85L0,1.667" transform="translate(31.48 70.133)" fill="#d23922"/>
        <path id="path384" d="M.043.535A1.57,1.57,0,0,1,.1,1.024a3.791,3.791,0,0,0,.067.83.581.581,0,0,0,.521.47.366.366,0,0,0,.39-.433A8.3,8.3,0,0,0,.892.34C.649-.227-.2-.032.043.535h0" transform="translate(31.181 71.05)" fill="#da8e4c"/>
        <path id="path386" d="M10.116,32.135c4.825-4.055,7.736-11.044,9.5-17.031C20.957,10.536,22.23-.1,16.02,0,9.353.107,11.7,10.667,11.757,14.41c.066,4.392-2.6,8.086-5.694,11.01C3.9,27.46-2.233,30.468.85,33.927c2.441,2.738,6.6.448,9.266-1.791" transform="translate(31.603 40.341)" fill="#d23922"/>
        <path id="path388" d="M1.348,32.862c2.356.136,4.5-.976,6.463-2.512.308-.239.61-.484.9-.73a20.2,20.2,0,0,0,3.435-3.855q.315-.431.627-.869a20.292,20.292,0,0,0,2.238-3.163c.219-.377.429-.762.627-1.151A32.056,32.056,0,0,0,18.975,7.7c-.024-.4-.06-.817-.113-1.236-.058-.389-.126-.8-.209-1.211-.054-.343-.126-.7-.217-1.052-.7-1.947-1.39-4.18-3.556-4.2-4.575-.169-3.3,6.858-3.237,10.2.044.472.092.928.137,1.361.336,1.935-.192,3.526-.651,5.525-.138.322-.3.632-.458.959-.2.376-.414.747-.64,1.114a29.992,29.992,0,0,1-2.28,3.157c-.3.352-.62.692-.944,1.022a25.485,25.485,0,0,1-4.284,3.517,10.77,10.77,0,0,0-1,.859C.3,28.927-.425,30.382.272,32.176a1.748,1.748,0,0,0,1.076.686" transform="translate(31.705 41.719)" fill="#eb4920"/>
        <path id="path390" d="M3.349.658A1.354,1.354,0,0,0,2.212,0C.873-.06-.67,3.024.309,4.029c.665.681,2-.183,2.615-.781A2.186,2.186,0,0,0,3.349.658" transform="translate(32.537 69.131)" fill="#f36543"/>
        <path id="path392" d="M2.015,2.891A6,6,0,0,1,0,1.721C.506.969,2.8.237,3.6,0a5.772,5.772,0,0,1-.556,2.123l-1.026.768" transform="translate(43.475 38.255)" fill="#d23922"/>
        <path id="path394" d="M.621,1.375a1.569,1.569,0,0,1,.46-.175A3.817,3.817,0,0,0,1.87.931.582.582,0,0,0,2.2.311.366.366,0,0,0,1.681.039C1.211.282.666.262.224.6c-.49.374-.093,1.149.4.775h0" transform="translate(44.725 40.071)" fill="#da8e4c"/>
      </g>
      <g id="Group_90" data-name="Group 90" transform="translate(255.578 226.85)">
        <path id="path588" d="M75.7-1329.256a29.057,29.057,0,0,1-2.787,8.757,6.6,6.6,0,0,1-2.488,2.428c-3.313,2.3-6.309,4.939-9.74,7.114a49.2,49.2,0,0,1-20.422,7.24c-5.773.81-12.133,2.943-17.952,1.912a14.949,14.949,0,0,1-7.951-4.558c-2.147-2.447-2.6-6.521-2.119-9.644a7.32,7.32,0,0,1,.513-1.966,4.854,4.854,0,0,1,.8-1.218,5.433,5.433,0,0,0,.547-.71,6.431,6.431,0,0,0,.547-1.728c.408-1.418.946-1.179,2.01-1.3a3.237,3.237,0,0,0,.4-.071c1.074-.272.917-1.012,1.968-1.459.506-.216,1.839.264,2.41.32a17.247,17.247,0,0,0,3.217.079,48.336,48.336,0,0,0,12.62-3.358c3.679-1.44,7.1-3.1,11.017-3.855a17.437,17.437,0,0,1,4.246-.389c.846.043,1.121.8,1.833.967a3.546,3.546,0,0,0,2.421-.643c1.7-.963,2.907-2.59,4.478-3.724,2.334-1.684,4.235-2.372,7.1-1.94a22.656,22.656,0,0,1,4.418,1.241c.086.032.172.064.256.1.534.2,1.058.412,1.567.617l.684.276a1.927,1.927,0,0,1,.425.233,1.569,1.569,0,0,1,.556.745c.45,1.224-.325,3.132-.565,4.542" transform="translate(-12.065 1337.133)" fill="#e09491"/>
        <path id="path590" d="M79.514-1333.8a10.43,10.43,0,0,1-2.253,2.131c-2.015,1.518-4.018,2.8-5.936,4.413-5.382,4.53-12.491,7.385-18.768,10.571-7.116,3.61-15.588,6.719-23.631,6.353-3.9-.177-6.837-.937-9.658-3.64a18.039,18.039,0,0,1-3.265-4,4.854,4.854,0,0,1,.8-1.218,5.433,5.433,0,0,0,.547-.71,6.431,6.431,0,0,0,.547-1.728c.408-1.418.946-1.179,2.01-1.3a3.237,3.237,0,0,0,.4-.071c1.074-.272.917-1.012,1.968-1.459.506-.216,1.839.264,2.41.32a17.247,17.247,0,0,0,3.217.079,48.336,48.336,0,0,0,12.62-3.358c3.679-1.44,7.1-3.1,11.017-3.855a17.437,17.437,0,0,1,4.246-.389c.846.043,1.121.8,1.833.967a3.546,3.546,0,0,0,2.421-.643c1.7-.963,2.907-2.59,4.478-3.724,2.334-1.684,4.235-2.372,7.1-1.94a22.655,22.655,0,0,1,4.418,1.241c.086.032.172.064.256.1.534.2,1.058.412,1.567.617l.684.276a1.927,1.927,0,0,1,.425.233,1.569,1.569,0,0,1,.556.745" transform="translate(-15.316 1337.133)" fill="#f06269"/>
        <path id="path592" d="M85.33-1328.064a5.313,5.313,0,0,1-1.594,2.116,27.836,27.836,0,0,1-2.362,1.767c-2.411,1.8-5.068,3.428-7.6,5.057A84.942,84.942,0,0,1,58.9-1311.53a97.04,97.04,0,0,1-11.7,4.138,50.992,50.992,0,0,1-6.676,1.693c-4.1.455-9.473,1.633-12.86-1.025a16.287,16.287,0,0,1-3.364-4.382,5.23,5.23,0,0,1-.578-2.317,6.428,6.428,0,0,0,.547-1.728c.408-1.418.946-1.179,2.01-1.3a3.262,3.262,0,0,0,.4-.071,35.516,35.516,0,0,0,3.671,1.356c.813.113,2.164-.009,2.9.539a1.3,1.3,0,0,1,.213.2c.6.718-.223,2.5-.692,3.086,2.2,2.721,5.317,2.394,8.392,2.157a42,42,0,0,0,11.1-2.591,101.76,101.76,0,0,0,12.47-5.826c3.583-1.883,7.408-3.36,10.791-5.6q.611-.4,1.2-.844c2.034-1.52,3.4-3.843,5.6-5.19l.084-.051c.086.032.172.064.256.1.534.2,1.058.412,1.567.617l.684.276a1.912,1.912,0,0,1,.425.233" transform="translate(-21.688 1330.654)" fill="#fabad9"/>
        <path id="path594" d="M105.912-1328.73c.534.2,1.058.412,1.567.617a3.085,3.085,0,0,0-.56.4,19.08,19.08,0,0,0-1.547,2.159c-1.17,1.511-3.137,2.382-4.668,3.534-4.349,3.272-9.37,5.041-14.058,7.764-4.977,2.891-10.746,4.671-16.227,6.585a35.042,35.042,0,0,1-13.6,1.621c-1.23-.113-2.3.1-3.039-.922-.508-.7-.617-1.941-1.064-2.76-.248-.454-1.168-.641-.71-1.338.268-.409,1.078-.259,1.451-.1,1.11.465,1.186,1.869,1.856,2.668a4.029,4.029,0,0,0,2.668,1.29,14.388,14.388,0,0,0,4.492-.6c4.462-.859,8.948-1.707,13.46-2.761,4.258-1,8.747-3.438,12.58-5.407,1.911-.981,3.872-1.959,5.788-2.968,1.678-.884,2.969-2.253,4.644-3.141a12.858,12.858,0,0,0,5.007-4.21,13.175,13.175,0,0,1,1.957-2.43" transform="translate(-44.947 1330.194)" fill="#f06269"/>
        <path id="path596" d="M33.111-1242.519a4.312,4.312,0,0,0,2.646,2.439c.376-1.2-.824-2.176-1.091-3.287-.151-.629-.332-4.423-1.879-3.431-.633.406.153,3.67.325,4.278" transform="translate(-28.976 1262.667)" fill="#f06269"/>
        <path id="path598" d="M89.413-1279.361c-1.383-.443-1.27-2.532-1.055-3.892.234-1.482.986-1.435,2.468-1.027.921.255,1.531,1.255,2.4,1.533,1.915.617,3.137-1.256,4.933-.975.032.543.01,1.11.042,1.653,4.418-.538,8.537-2.966,12.669-4.533,2.006-.76,3.778-2.29,5.827-3.078,1.184-.455,5.319-2.773,6.506-2.124,1.751.958-3.58,3.345-4.247,3.647-3.131,1.415-6.05,3.123-9.291,4.448-4.928,2.015-11.1,4.833-16.432,4.881a13.923,13.923,0,0,1-3.816-.535" transform="translate(-74.963 1299.793)" fill="#da3f4e"/>
        <path id="path600" d="M89.141-1290.238c2.147-.748,4.376-1.474,6.427-2.23a25.613,25.613,0,0,1,4.641-1.582c.6-.092,2.147-.308,1.868.741-.1.392-1.82,1.092-2.175,1.375.478.906.771,1.44,1.853.834.5-.279-.145,1.038-.17,1.074a2.181,2.181,0,0,1-1.091.657,7.667,7.667,0,0,1-3.826.089c-1.935-.29-3.253.281-4.977,1.008a27.227,27.227,0,0,1-6.614,1.568,7.756,7.756,0,0,1-4.134-.389,5.278,5.278,0,0,0-4.3-.021c1.982-1.682,4.426-.478,6.6-.848,2.072-.352,3.929-1.592,5.893-2.276" transform="translate(-65.397 1301.623)" fill="#da3f4e"/>
        <path id="path602" d="M234.825-1326.947c-.833.427-4.647,3.325-4.913.965-.171-1.517,3.28-1.745,4.341-1.962a13.974,13.974,0,0,0,5.655-2.855,24.5,24.5,0,0,1,5.233-3.251c1.216-.474,5.549-1.681,5.234.459-.256,1.739-2.887,3.383-4.241,4.134a8.077,8.077,0,0,1-5.685,1.269,10.081,10.081,0,0,0-5.623,1.241" transform="translate(-191.963 1335.222)" fill="#da3f4e"/>
        <path id="path604" d="M120.694-1293.121c-.712.113-1.289.955-1.6,1.548a.665.665,0,0,0,.1.789c.276.3.641.634.4,1.017a2.855,2.855,0,0,1-1.3.849,9.068,9.068,0,0,1-1.759.516c-.132.026-.265.051-.4.075l-.184.032q.268.093.108.028a2.671,2.671,0,0,0-.872-.158,11.659,11.659,0,0,0-2.281.224,21.947,21.947,0,0,0-2.592.428,9.582,9.582,0,0,0-2.362.9c-.794.437-1.845,1.2-1.6,2.231l.231-.874.088-.059.975.126a2.233,2.233,0,0,0-2.076-.515c-.121.02-.238.127-.355.14-.254.028-.507.07-.761.1a13.015,13.015,0,0,0-1.311.254,5.929,5.929,0,0,1-1.428.251,3.9,3.9,0,0,1-1.359-.329c-.644-.242-1.367-.854-2.086-.626a.169.169,0,0,0-.04.305,6.056,6.056,0,0,0,.951.445c.313.153.6.345.9.523a3.472,3.472,0,0,0,2.038.4,19.421,19.421,0,0,0,2.24-.311,2.284,2.284,0,0,1,1.95.25c.137.124.2.273.361.379-.288-.188.287.165.309.172a1.246,1.246,0,0,0,1.146-.348,7.233,7.233,0,0,1,1.262-.925,13.392,13.392,0,0,1,3.62-1.034c.938-.185,2.426-.214,3.134-.96.076-.081.158-.09-.01-.036.086-.027.177-.045.265-.068.2-.052.4-.109.6-.167.48-.141.961-.287,1.433-.452a4.2,4.2,0,0,0,2.074-1.324,1.8,1.8,0,0,0-.383-2.372l.1.788c.282-.572.59-1.14.858-1.715a.338.338,0,0,0-.377-.491h0" transform="translate(-83.151 1300.792)" fill="#fabad9"/>
        <path id="path606" d="M222.075-1273.818c.058-.041.144-.046.212-.09.1-.064.2-.117.295-.183a2.605,2.605,0,0,0,.633-.455.073.073,0,0,0-.032-.121,1.007,1.007,0,0,0-.725.236,2.216,2.216,0,0,0-.318.247.613.613,0,0,0-.128.129c-.025.043-.019.082-.05.123-.051.067.048.161.114.114h0" transform="translate(-185.391 1285.558)" fill="#fabad9"/>
        <path id="path608" d="M240.247-1284.178a8.409,8.409,0,0,1,.826-.508,8.19,8.19,0,0,1,1.171-.405c.088-.032.082-.185-.024-.175a4.345,4.345,0,0,0-1.987,1.071c-.01.008,0,.025.013.018h0" transform="translate(-200.489 1294.301)" fill="#fabad9"/>
        <path id="path610" d="M224.21-1295.106c.332.389.986.138,1.385,0a11.284,11.284,0,0,0,2.05-1.047,17.026,17.026,0,0,1,5.111-2.1,11.552,11.552,0,0,1,2.924-.229,6.58,6.58,0,0,1,1.519.223,5.261,5.261,0,0,0,1.252.275,7.545,7.545,0,0,0,2.431-.364,2.814,2.814,0,0,0,1.1-.459c.362-.3.819-.407,1.152-.732a.247.247,0,0,0-.173-.418c-.4.038-.743.3-1.15.294a5.331,5.331,0,0,0-1.226.22,12.05,12.05,0,0,1-2.494.135c-.394,0-.758.126-1.154.1-.488-.028-.968-.124-1.459-.145a12.454,12.454,0,0,0-2.748.222,12.14,12.14,0,0,0-4.88,2.027,14.27,14.27,0,0,1-1.889,1.15,5.089,5.089,0,0,1-1.1.423,1.441,1.441,0,0,0-.646.252.124.124,0,0,0,0,.173h0" transform="translate(-187.23 1306.436)" fill="#fabad9"/>
        <path id="path612" d="M73.2-1254.479a2.125,2.125,0,0,0-1.278-.569,3.29,3.29,0,0,0-1.6.349c-.573.256-1.167.5-1.718.8s-1.346.627-1.5,1.279a.639.639,0,0,0,.439.774c.95.265,2.012-.948,2.638-1.537a3.535,3.535,0,0,1,2.843-.7c.254.069.354-.256.167-.4h0" transform="translate(-57.509 1269.352)" fill="#fabad9"/>
        <path id="path614" d="M110.817-1257.21a36.61,36.61,0,0,1-3.513,11.035,8.313,8.313,0,0,1-3.135,3.059c-4.174,2.9-7.951,6.224-12.273,8.965a62,62,0,0,1-25.735,9.123c-7.275,1.02-15.29,3.709-22.622,2.41a18.835,18.835,0,0,1-10.019-5.744c-2.705-3.084-3.273-8.218-2.671-12.152a9.216,9.216,0,0,1,.646-2.477,6.114,6.114,0,0,1,1-1.536,6.86,6.86,0,0,0,.689-.894,8.1,8.1,0,0,0,.689-2.178c.514-1.787,1.192-1.486,2.533-1.644a4.06,4.06,0,0,0,.5-.089c1.354-.343,1.156-1.276,2.48-1.839.638-.272,2.317.332,3.037.4a21.718,21.718,0,0,0,4.053.1,60.92,60.92,0,0,0,15.9-4.231c4.636-1.815,8.952-3.908,13.883-4.859a21.985,21.985,0,0,1,5.35-.491c1.066.055,1.412,1.013,2.31,1.219a4.469,4.469,0,0,0,3.051-.81c2.143-1.214,3.664-3.264,5.643-4.693,2.942-2.123,5.337-2.989,8.946-2.444a28.5,28.5,0,0,1,5.567,1.563l.323.122c.673.255,1.333.519,1.975.778l.862.348a2.4,2.4,0,0,1,.536.293,1.978,1.978,0,0,1,.7.939c.566,1.543-.41,3.946-.712,5.723" transform="translate(-27.397 1279.327)" fill="#e09491"/>
        <path id="path616" d="M115.626-1262.933a13.143,13.143,0,0,1-2.84,2.685c-2.539,1.913-5.064,3.527-7.481,5.562-6.782,5.709-15.74,9.306-23.65,13.321-8.967,4.55-19.644,8.466-29.778,8.006-4.919-.223-8.616-1.181-12.17-4.587a22.732,22.732,0,0,1-4.115-5.046,6.115,6.115,0,0,1,1-1.536,6.859,6.859,0,0,0,.689-.894,8.1,8.1,0,0,0,.689-2.178c.514-1.787,1.192-1.486,2.533-1.644a4.06,4.06,0,0,0,.5-.089c1.354-.343,1.156-1.276,2.48-1.839.638-.272,2.317.332,3.037.4a21.718,21.718,0,0,0,4.053.1,60.92,60.92,0,0,0,15.9-4.231c4.636-1.815,8.952-3.908,13.883-4.859a21.985,21.985,0,0,1,5.35-.491c1.066.055,1.412,1.013,2.31,1.219a4.469,4.469,0,0,0,3.051-.81c2.144-1.214,3.664-3.264,5.643-4.693,2.942-2.123,5.337-2.989,8.946-2.444a28.5,28.5,0,0,1,5.567,1.563l.323.122c.673.255,1.333.519,1.975.778l.862.348a2.4,2.4,0,0,1,.536.293,1.978,1.978,0,0,1,.7.939" transform="translate(-31.494 1279.327)" fill="#f06269"/>
        <path id="path618" d="M122.954-1255.707a6.7,6.7,0,0,1-2.008,2.666,34.982,34.982,0,0,1-2.976,2.227c-3.038,2.264-6.387,4.319-9.579,6.373a107.043,107.043,0,0,1-18.747,9.57,122.231,122.231,0,0,1-14.743,5.215c-2.767.7-5.562,1.815-8.413,2.133-5.162.574-11.937,2.058-16.205-1.291-1.9-1.489-2.986-3.567-4.24-5.522a6.594,6.594,0,0,1-.728-2.92,8.1,8.1,0,0,0,.689-2.178c.514-1.787,1.192-1.486,2.533-1.644a4.034,4.034,0,0,0,.5-.089c1.59.5,3.4,1.539,4.626,1.709,1.025.143,2.727-.011,3.651.679a1.649,1.649,0,0,1,.268.253c.755.905-.281,3.156-.872,3.889,2.775,3.428,6.7,3.016,10.575,2.718a52.941,52.941,0,0,0,13.986-3.265,128.268,128.268,0,0,0,15.714-7.342c4.515-2.373,9.336-4.234,13.6-7.056q.77-.508,1.514-1.063c2.563-1.916,4.291-4.843,7.056-6.54l.106-.064.323.122c.673.255,1.333.519,1.975.778l.862.348a2.408,2.408,0,0,1,.536.293" transform="translate(-39.523 1271.163)" fill="#fabad9"/>
        <path id="path620" d="M148.891-1256.548c.673.256,1.333.519,1.975.778a3.9,3.9,0,0,0-.706.5,24.07,24.07,0,0,0-1.95,2.721c-1.474,1.9-3.953,3-5.882,4.453-5.481,4.123-11.808,6.352-17.715,9.783-6.271,3.643-13.542,5.887-20.449,8.3a44.171,44.171,0,0,1-17.135,2.043c-1.55-.143-2.9.127-3.83-1.161-.64-.886-.778-2.446-1.341-3.478-.312-.572-1.471-.807-.894-1.687.337-.515,1.359-.326,1.829-.13,1.4.585,1.494,2.355,2.338,3.362a5.078,5.078,0,0,0,3.362,1.626c2.046.223,3.751-.385,5.66-.752,5.623-1.083,11.276-2.15,16.962-3.479,5.365-1.254,11.022-4.332,15.853-6.813,2.408-1.236,4.88-2.469,7.294-3.74,2.115-1.114,3.741-2.84,5.852-3.958a16.206,16.206,0,0,0,6.31-5.3,16.589,16.589,0,0,1,2.467-3.062" transform="translate(-68.833 1270.584)" fill="#f06269"/>
        <path id="path622" d="M57.151-1147.909a5.434,5.434,0,0,0,3.334,3.074c.473-1.514-1.039-2.743-1.375-4.142-.19-.792-.418-5.574-2.368-4.323-.8.512.192,4.625.409,5.391" transform="translate(-48.708 1185.49)" fill="#f06269"/>
        <path id="path624" d="M128.1-1194.336c-1.742-.558-1.6-3.191-1.329-4.9.3-1.867,1.243-1.808,3.11-1.294,1.161.321,1.929,1.581,3.019,1.933,2.413.778,3.953-1.583,6.217-1.229.041.684.013,1.4.053,2.083,5.568-.678,10.758-3.738,15.966-5.712,2.527-.958,4.761-2.886,7.343-3.879,1.493-.574,6.7-3.495,8.2-2.677,2.207,1.207-4.511,4.216-5.352,4.6-3.945,1.783-7.624,3.936-11.708,5.606-6.21,2.539-13.985,6.09-20.706,6.151a17.555,17.555,0,0,1-4.809-.673" transform="translate(-106.657 1232.274)" fill="#da3f4e"/>
        <path id="path626" d="M127.757-1208.042c2.706-.943,5.514-1.857,8.1-2.81a32.28,32.28,0,0,1,5.848-1.994c.757-.117,2.706-.388,2.354.934-.131.495-2.294,1.376-2.741,1.733.6,1.142.971,1.814,2.336,1.051.629-.352-.182,1.309-.215,1.353a2.746,2.746,0,0,1-1.374.828,9.66,9.66,0,0,1-4.822.112c-2.438-.366-4.1.354-6.272,1.27a34.32,34.32,0,0,1-8.335,1.976,9.773,9.773,0,0,1-5.21-.49,6.653,6.653,0,0,0-5.415-.027c2.5-2.12,5.578-.6,8.32-1.068,2.61-.444,4.952-2.006,7.426-2.868" transform="translate(-94.603 1234.58)" fill="#da3f4e"/>
        <path id="path628" d="M311.338-1254.3c-1.05.537-5.856,4.189-6.192,1.216-.216-1.911,4.133-2.2,5.47-2.472,2.8-.571,4.771-1.881,7.126-3.6a30.863,30.863,0,0,1,6.594-4.1c1.533-.6,6.992-2.118,6.6.579-.323,2.192-3.638,4.263-5.344,5.209-2.752,1.528-4.268,1.908-7.164,1.6a12.7,12.7,0,0,0-7.085,1.564" transform="translate(-254.093 1276.92)" fill="#da3f4e"/>
        <path id="path630" d="M167.737-1211.209c-.857.22-1.509,1.212-1.9,1.953a.666.666,0,0,0,.1.788c.334.353.832.871.556,1.365a3.241,3.241,0,0,1-1.527,1.109,10.637,10.637,0,0,1-2.194.707c-.329.073-.66.136-.991.2-.132.024-.536-.07-.79-.073a20.733,20.733,0,0,0-2.793.276,31.683,31.683,0,0,0-3.206.514,12.8,12.8,0,0,0-2.967,1.057c-.884.452-2.209,1.289-2.2,2.4l.263-.635a.3.3,0,0,0-.068.064l.571-.236-.046,0,.569.236a2.651,2.651,0,0,0-2.507-.638c-.191.034-.343.126-.541.151-.294.036-.589.077-.882.119-.586.084-1.16.216-1.737.346a7.128,7.128,0,0,1-1.575.264,4.689,4.689,0,0,1-1.715-.38c-.855-.322-1.743-1.085-2.7-.878a.168.168,0,0,0-.04.305c.405.232.849.346,1.267.555.461.23.888.52,1.345.757a5.712,5.712,0,0,0,2.985.3c1.076-.046,2.156-.384,3.228-.516a2.472,2.472,0,0,1,1.207.267c.458.224.568.692,1.142.728l-.571-.236c.943,1,2.025-.559,2.8-1.04a10.279,10.279,0,0,1,3.011-1.131c1.11-.271,2.233-.476,3.357-.679a5.987,5.987,0,0,0,2.733-.921,5.511,5.511,0,0,1,.888-.227c.4-.11.793-.243,1.191-.358a9.73,9.73,0,0,0,2.3-.947,2.679,2.679,0,0,0,1.3-1.5,2.192,2.192,0,0,0-.742-2.242l.1.788c.361-.732.724-1.426,1.152-2.119a.337.337,0,0,0-.377-.491h0" transform="translate(-117.171 1233.151)" fill="#fabad9"/>
        <path id="path632" d="M295.406-1187.233c.068-.051.091-.013.161-.062.13-.091.263-.176.4-.257a4.484,4.484,0,0,0,.873-.592.073.073,0,0,0-.051-.124c-.513-.051-1.047.419-1.4.745a.146.146,0,0,0-.037.141c-.016-.066-.016-.024-.049.018-.055.068.019.193.1.131h0" transform="translate(-245.956 1214.2)" fill="#fabad9"/>
        <path id="path634" d="M318.184-1200.3a10.627,10.627,0,0,1,1.037-.646,8.54,8.54,0,0,1,1.475-.524c.09-.03.081-.188-.024-.175a5.662,5.662,0,0,0-2.5,1.328c-.01.008,0,.025.013.018h0" transform="translate(-264.851 1225.244)" fill="#fabad9"/>
        <path id="path636" d="M298.132-1213.86c.546.444,1.405.064,1.979-.168a17.165,17.165,0,0,0,2.527-1.357,19.944,19.944,0,0,1,6.4-2.569,14.621,14.621,0,0,1,3.493-.255,12.15,12.15,0,0,1,1.744.215,12.109,12.109,0,0,0,1.646.348,9.321,9.321,0,0,0,1.431-.023,11.248,11.248,0,0,0,1.554-.355,4.461,4.461,0,0,0,1.52-.579,14.485,14.485,0,0,0,1.481-.871c.2-.182-.02-.44-.238-.409-.579.082-1.059.391-1.66.431a10.217,10.217,0,0,0-1.407.324,15.281,15.281,0,0,1-3.051.158,10.668,10.668,0,0,1-1.653.045,14.852,14.852,0,0,0-1.573-.152,15.55,15.55,0,0,0-3.322.251,15.4,15.4,0,0,0-6.049,2.4,22,22,0,0,1-2.468,1.527,7.537,7.537,0,0,1-1.284.54,5.157,5.157,0,0,0-1.042.31.123.123,0,0,0-.025.192h0" transform="translate(-248.276 1240.307)" fill="#fabad9"/>
        <path id="path638" d="M108.4-1162.308a2.684,2.684,0,0,0-1.761-.644,4.65,4.65,0,0,0-1.911.506c-.679.3-1.374.633-2.021,1-.6.34-1.605.756-1.792,1.475a.635.635,0,0,0,.439.774c.643.161,1.143-.283,1.636-.638.568-.409,1.066-.928,1.644-1.318a4.482,4.482,0,0,1,3.6-.757c.252.077.355-.259.167-.4h0" transform="translate(-85.421 1193.29)" fill="#fabad9"/>
        <path id="path640" d="M45.616-1093.037c.26.084-.044-.025-.137-.046a.933.933,0,0,0-.75.133,1.925,1.925,0,0,0-.658.719,1.927,1.927,0,0,0-.176,1.2,1.344,1.344,0,0,0,.922,1.061,1,1,0,0,0,1.142-.464,1.329,1.329,0,0,0,.162-.8q-.023-.2-.055-.394c-.049-.3,0,.234-.017-.065,0-.056-.006-.112-.005-.168,0,.214,0,.015.027-.057a.6.6,0,0,0,.062-.307c0,.151-.026-.551-.027-.169a.675.675,0,0,0-.488-.64h0" transform="translate(-38.327 1135.613)" fill="#e6a3a1"/>
        <path id="path642" d="M61.627-1080.891a1.777,1.777,0,0,0-.474,1.07,1.187,1.187,0,0,0,.774,1.234.864.864,0,0,0,1.052-.9c0-.135.014-.269.014-.4,0-.1-.049-.5-.019-.2,0-.046.012-.25-.019-.029a.824.824,0,0,0-.365-.9.8.8,0,0,0-.963.124h0" transform="translate(-52.599 1125.713)" fill="#e6a3a1"/>
        <path id="path644" d="M435.116-1194.58a7.752,7.752,0,0,0-2.435,1.953c-.641.752-1.607,1.776-1.5,2.839.049.47.493,1,1.029.784.96-.383,1.375-1.327,1.877-2.173a11.464,11.464,0,0,1,1.764-2.446c.519-.5-.138-1.257-.739-.957h0" transform="translate(-358.177 1219.465)" fill="#e6a3a1"/>
        <path id="path646" d="M452.867-1174.5a2.185,2.185,0,0,0-.933,1.974.822.822,0,0,0,1.2.489,1.826,1.826,0,0,0,.6-.728c.055-.105.111-.208.172-.31q.045-.073.094-.143c.149-.22-.1.112.064-.082a.865.865,0,0,0,0-1.2.862.862,0,0,0-1.2,0h0" transform="translate(-375.292 1203.03)" fill="#e6a3a1"/>
        <path id="path648" d="M345.928-1282.848a4.364,4.364,0,0,0-.427.919,1.715,1.715,0,0,0-.164,1.064.485.485,0,0,0,.8.211,1.767,1.767,0,0,0,.369-.879,3.121,3.121,0,0,1,.343-.777c.366-.586-.551-1.114-.921-.538h0" transform="translate(-287.257 1292.508)" fill="#e6a3a1"/>
        <path id="path650" d="M352.709-1275.977a2.42,2.42,0,0,0-.307.461,1.135,1.135,0,0,0-.115.845.544.544,0,0,0,.654.371,1.144,1.144,0,0,0,.575-.436c.042-.059.082-.12.124-.179-.108.15.034-.03.069-.063a.711.711,0,0,0,0-1,.708.708,0,0,0-1,0h0" transform="translate(-292.993 1286.8)" fill="#e6a3a1"/>
      </g>
    </g>
  </g>
</svg>
