<svg xmlns="http://www.w3.org/2000/svg" xmlns:xlink="http://www.w3.org/1999/xlink" width="60" height="60" viewBox="0 0 60 60">
  <defs>
    <clipPath id="clip-path">
      <rect id="Rectangle_12" data-name="Rectangle 12" width="60" height="60" rx="16" transform="translate(183 345)" fill="#8aa77e" stroke="#707070" stroke-width="1"/>
    </clipPath>
  </defs>
  <g id="Mask_Group_4" data-name="Mask Group 4" transform="translate(-183 -345)" clip-path="url(#clip-path)">
    <g id="Rectangle_112" data-name="Rectangle 112" transform="translate(172 331)" fill="#ecd6b4" stroke="#707070" stroke-width="1">
      <rect width="86" height="80" stroke="none"/>
      <rect x="0.5" y="0.5" width="85" height="79" fill="none"/>
    </g>
    <ellipse id="Ellipse_23" data-name="Ellipse 23" cx="21" cy="5.5" rx="21" ry="5.5" transform="translate(195 382)" fill="#c7ab81"/>
    <g id="Group_119" data-name="Group 119" transform="matrix(0.978, 0.208, -0.208, 0.978, 203.677, 338.609)">
      <path id="path14" d="M152.956-709.281c.239-.372.012-.8-.1-1.18-.153-.5-.4-.981-.529-1.493a29.9,29.9,0,0,1-.786-3.126,15.14,15.14,0,0,1,.515-5.871,23.159,23.159,0,0,1,2.594-5.958,27.417,27.417,0,0,1,2.45-3.434c.882-1.068,2.093-2.109,2.325-3.518.083-.5-.295-1.138-.894-.945a2.837,2.837,0,0,0-.853.341,8.016,8.016,0,0,0-.975.855,21.376,21.376,0,0,0-1.463,1.7,25.466,25.466,0,0,0-2.657,3.758,26.524,26.524,0,0,0-2.791,6.932,15.679,15.679,0,0,0-.037,6.942,13.616,13.616,0,0,0,1.219,3.261c.162.312,1.482,2.522,1.985,1.739h0" transform="translate(-134.19 747.915)" fill="#817a75"/>
      <path id="path16" d="M183.87-837.392a20.927,20.927,0,0,1,.272,8.063c-.074.576-.162,1.141-.256,1.686-.643,3.68-1.19,7.36-1.756,11.032a18.345,18.345,0,0,1-.55,2.451,15.306,15.306,0,0,1-3.224,5.9,15.731,15.731,0,0,1-8.074,4.682c-3.505.978-8.592.25-11.251-2.565a13.611,13.611,0,0,1-2.666-3.526,6.263,6.263,0,0,1-.253-.653,10.553,10.553,0,0,1-.184-4.8,22.909,22.909,0,0,1,2.013-6.225,10.088,10.088,0,0,1,3.972-4.387,33.955,33.955,0,0,1,4.285-1.676,22.057,22.057,0,0,0,9.793-8.679c1.533-2.556,1.264-5.734,2.759-8.162l.156-.3a37.286,37.286,0,0,1,2.824,3.232,16.4,16.4,0,0,1,2.141,3.922" transform="translate(-139.854 845.576)" fill="#a38b7e"/>
      <path id="path18" d="M187.137-744.295c-.074.576-.162,1.141-.256,1.686-.643,3.68-1.19,7.36-1.756,11.032a18.35,18.35,0,0,1-.55,2.451,15.307,15.307,0,0,1-3.224,5.9,15.731,15.731,0,0,1-8.074,4.682c-3.505.978-8.592.25-11.251-2.565a13.611,13.611,0,0,1-2.666-3.526,6.28,6.28,0,0,1-.253-.653,4.12,4.12,0,0,1,1.638-.87c2.1-.632,4.3-.832,6.413-1.43a25.721,25.721,0,0,0,7.44-3.47,15.032,15.032,0,0,0,4.428-4.775,32.941,32.941,0,0,0,3.162-7.8c.417-1.425.838-4.517,2.3-5.306l.163-.089c.865,1.571,1.758,3.121,2.488,4.733" transform="translate(-142.849 760.543)" fill="#817a75"/>
      <path id="path20" d="M181.579-622.141a15.307,15.307,0,0,1-3.224,5.9,15.731,15.731,0,0,1-8.074,4.682c-3.505.978-8.592.25-11.251-2.565a13.612,13.612,0,0,1-2.666-3.526,6.267,6.267,0,0,1-.253-.653,10.553,10.553,0,0,1-.184-4.8l.1.021a18.787,18.787,0,0,0,4.887.753,18.62,18.62,0,0,0,6.453-1.4c2.757-1.031,4.71-2.791,6.993-4.479a2.453,2.453,0,0,1,1.676-.641c.666.071,1.2.634,1.853,1.476.96,1.241,1.919,2.486,2.866,3.738a6.1,6.1,0,0,1,.827,1.488" transform="translate(-139.854 653.558)" fill="#545455"/>
      <path id="path22" d="M276.886-844.61a11.009,11.009,0,0,1,2.342,3.7,16.025,16.025,0,0,1,.346,4.48c-.112,4.4-3.257,8.221-6.427,10.818-1.027.841-2.773,2.532-3.479.631-.673-1.811.919-4.1,1.264-5.854a38.347,38.347,0,0,1,4.953-12.3,4.172,4.172,0,0,1,.883-1.3l.119-.171" transform="translate(-241.127 845.633)" fill="#e54e1e"/>
      <path id="path24" d="M175.349-843.944c.063.163.12.32.169.468.015.046.031.091.045.135a26.114,26.114,0,0,1,.824,3.257c.04.218.078.438.113.657a28.085,28.085,0,0,1,.35,5.03h0q-.013.544-.045,1.084c-.008.148-.019.3-.03.443-.039.5-.07.989-.1,1.483-.019.336-.037.673-.053,1.008-.08,1.633-.142,3.257-.287,4.868-.048.519-.1,1.035-.174,1.55a22.421,22.421,0,0,1-1.295,5.259q-.062.165-.131.329-.088.215-.185.425a16.227,16.227,0,0,1-2.1,3.419h0c-.216.274-.441.542-.674.8-.4.454-.831.888-1.28,1.3q-.439.407-.9.785-.427.35-.873.674h0q-.621.453-1.273.853-.764.472-1.562.866h0c-.542.269-1.1.51-1.655.723h0c-.363.136-.729.262-1.1.374a9.439,9.439,0,0,1-2.864.3h0c-.412-.006-.823-.022-1.224-.039-.26-.011-.514-.022-.763-.029a10.6,10.6,0,0,1-5.186-1.164l0,0c-.017-.011-.034-.019-.054-.031a4.359,4.359,0,0,1-.961-.788,9.8,9.8,0,0,1-2.073-4.354c-.067-.28-.124-.561-.172-.838h0a12.882,12.882,0,0,1-.2-2.473h0c0-.1.005-.2.011-.3s.013-.217.023-.325a13.247,13.247,0,0,1,.676-3.076q.114-.351.244-.7c.268-.732.57-1.456.873-2.2.23-.561.456-1.127.686-1.691.289-.713.584-1.423.9-2.118.044-.1.088-.194.133-.289.142-.305.288-.606.443-.9.172-.337.353-.668.545-.992.074-.126.15-.252.227-.377s.161-.258.244-.384v0c.172-.27.347-.539.526-.8l0,0c.135-.2.271-.4.411-.6,1.02-1.472,2.126-2.883,3.285-4.245.13-.152.258-.3.389-.454h0q.83-.959,1.693-1.892.33-.357.665-.711,1.17-1.245,2.37-2.449c.2-.2.4-.408.605-.609.535-.537,1.072-1.068,1.605-1.6.105-.1.208-.2.311-.307l.123-.121c.623-.617,2.5-2.605,3.481-1.974a1.057,1.057,0,0,1,.38.486,2.411,2.411,0,0,1-.1,1.685c-.028.083-.059.166-.092.248a8.733,8.733,0,0,1-1.036,1.825l-.008.011c-.135.182-.261.359-.377.536a10.8,10.8,0,0,0-1.2,2.445c-.085.237-.169.487-.254.751-.005.011-.008.023-.012.035a7.642,7.642,0,0,1-.678,1.482c-.108.188-.22.372-.334.556-.327.529-.67,1.052-.965,1.631-.053.1-.1.206-.145.309-.071.171-.131.34-.184.511-.257.843-.318,1.707-.514,2.574q-.047.224-.113.448c-.011.041-.023.083-.036.123a30.341,30.341,0,0,0-.849,3.027c-.051.262-.091.517-.116.761.087.051.168.093.244.129h0a1.445,1.445,0,0,0,.344.115s0,0,0,0a.689.689,0,0,0,.742-.323c.23-.311.4-.783.691-1.186a8.842,8.842,0,0,1,1.211-1.309c.125-.115.252-.227.378-.339.3-.264.6-.523.9-.8a7.436,7.436,0,0,0,1.351-1.743c.111-.189.216-.386.315-.587a13.094,13.094,0,0,0,.755-1.9c.061-.194.12-.39.172-.586a18.71,18.71,0,0,0,.447-2.074c.037-.243.071-.482.1-.717.007-.055.013-.11.02-.165.1-.907.2-1.836.324-2.757.009-.067.018-.134.027-.2.061-.457.126-.912.2-1.361.037-.229.058-.62.09-1.072.007-.1.016-.209.025-.318l.013-.151c.13-1.468.455-3.169,1.774-2.148a6.861,6.861,0,0,1,1.747,2.777" transform="translate(-134.413 847.789)" fill="#f36d24"/>
      <path id="path26" d="M259.472-783.237c-.085.237-.169.487-.254.751-.313-.073-.625-.143-.939-.212a8.85,8.85,0,0,0-3.51-.355,19.91,19.91,0,0,1-2.026.348q.33-.357.665-.711a8.126,8.126,0,0,1,1.648-.441,9.8,9.8,0,0,1,3.21.344c.4.084.806.177,1.207.276" transform="translate(-226.205 791.583)" fill="#f5863b"/>
      <path id="path28" d="M350.382-765.6h0q-.013.544-.045,1.084a12.557,12.557,0,0,0-4-3.824,8.673,8.673,0,0,0-1.778-.7q.056-.365.1-.717a9.3,9.3,0,0,1,1.855.72,12.916,12.916,0,0,1,3.868,3.431" transform="translate(-307.945 778.992)" fill="#f5863b"/>
      <path id="path30" d="M241.636-761.171c-.108.188-.22.371-.334.556a17.224,17.224,0,0,0-7.534.055c.13-.152.258-.3.389-.454h0a12.677,12.677,0,0,1,7.479-.156" transform="translate(-209.314 771.786)" fill="#f5863b"/>
      <path id="path32" d="M345.192-739.948c-.019.336-.037.673-.053,1.008-.1-.116-.213-.229-.322-.343a23.735,23.735,0,0,0-5.175-4.06q-.355-.2-.717-.39c.061-.194.12-.39.172-.586.235.114.47.231.7.351a21.219,21.219,0,0,1,5.4,4.02" transform="translate(-302.928 756.351)" fill="#f5863b"/>
      <path id="path34" d="M210.213-735.926c-.071.171-.131.34-.184.511q-.306-.053-.612-.091a12.153,12.153,0,0,0-9.324,2.542c.135-.2.271-.4.411-.6a9.035,9.035,0,0,1,3.33-1.907,13.719,13.719,0,0,1,4.865-.608c.282.016.565.038.845.07.224.023.448.051.67.085" transform="translate(-179.335 749.037)" fill="#f5863b"/>
      <path id="path36" d="M336.175-713.92c-.048.519-.1,1.035-.174,1.55a14.931,14.931,0,0,0-1.442-3.09,17.714,17.714,0,0,0-2.6-3.528,12.185,12.185,0,0,0-2.785-2.108c.111-.189.216-.386.315-.587a11.586,11.586,0,0,1,2.8,2.08,18.732,18.732,0,0,1,2.875,3.809c.357.613.7,1.234,1,1.874" transform="translate(-294.251 736.199)" fill="#f5863b"/>
      <path id="path38" d="M192.777-662.505c-.216.274-.441.543-.674.8a10.37,10.37,0,0,1-1.144-.033,14.25,14.25,0,0,1-4.4-1.192,20.173,20.173,0,0,1-4.267-2.372,10.851,10.851,0,0,1-1.237-1.282c-.044-.046-.089-.093-.134-.138a2.25,2.25,0,0,0-1.257-.5,10.869,10.869,0,0,1-6.03-3.4,4.653,4.653,0,0,1-1.17-2.743,4.253,4.253,0,0,1,.007-.462c.289-.713.584-1.423.9-2.118.044-.1.088-.194.133-.289a.342.342,0,0,1,.032-.024c.062-.044.126.033.113.091a3.077,3.077,0,0,1-.2.6,5.314,5.314,0,0,0-.413,1.062,3.506,3.506,0,0,0,.031,1.664,5.5,5.5,0,0,0,1.783,2.584,10.957,10.957,0,0,0,2.938,1.775c.916.375,1.86.508,2.789.812a2.122,2.122,0,0,1,.686.389c.557.456.962,1.131,1.557,1.55a21.156,21.156,0,0,0,4.139,2.193,13.868,13.868,0,0,0,5.82,1.029" transform="translate(-154.734 695.768)" fill="#f5863b"/>
      <path id="path40" d="M176.287-609.054q-.439.407-.9.785a14.784,14.784,0,0,1-3.3-1.066,21.2,21.2,0,0,1-3.5-1.981c-1.084-.759-1.9-1.815-2.956-2.59-1.975-1.442-4.609-1.22-6.852-1.961a4.629,4.629,0,0,1-2.328-1.489,2.554,2.554,0,0,1-.317-.538q.114-.351.244-.7a3.008,3.008,0,0,0,1.03,1.384,6.928,6.928,0,0,0,2.657,1.018c2.062.418,4.337.477,6.071,1.8.943.722,1.686,1.662,2.67,2.339a20.955,20.955,0,0,0,3.113,1.8,12.713,12.713,0,0,0,3.721,1.134c.22.026.436.044.652.053" transform="translate(-140.197 644.422)" fill="#f5863b"/>
      <path id="path42" d="M168.746-577q-.621.453-1.273.854a13.634,13.634,0,0,1-6.343-2.635,7.054,7.054,0,0,0-2.886-1.832c-1.345-.27-2.724-.339-4.067-.635a9.374,9.374,0,0,1-3.663-1.42,4.191,4.191,0,0,1-.858-.929h0c0-.1.005-.2.011-.3s.013-.217.023-.325a5,5,0,0,0,1.447,1.28,13.909,13.909,0,0,0,3.947,1.105,24.471,24.471,0,0,1,3.792.548,7.079,7.079,0,0,1,2.294,1.426,12.758,12.758,0,0,0,6.742,2.789c.276.031.556.056.834.075" transform="translate(-134.434 613.828)" fill="#f5863b"/>
      <path id="path44" d="M167.544-550.138c-.542.269-1.1.51-1.655.723h0a13.766,13.766,0,0,1-4.415-2.06,4.3,4.3,0,0,0-2.634-.964,12.291,12.291,0,0,1-3.2-.5,11.368,11.368,0,0,1-3.982-2.207c-.067-.28-.124-.561-.172-.838.66.429,1.3.9,1.993,1.272a10.576,10.576,0,0,0,2.755,1.047,25.653,25.653,0,0,0,3.25.262,4.46,4.46,0,0,1,2.24.87,13.762,13.762,0,0,0,5.815,2.393" transform="translate(-136.068 588.687)" fill="#f5863b"/>
      <path id="path46" d="M180.136-510.362c-.412-.006-.823-.022-1.224-.039-.224-.2-.444-.412-.662-.622a5.992,5.992,0,0,0-1.067-1.033c-.208-.109-.893.159-1.1.21a9.645,9.645,0,0,1-2.028.274c-.352.007-.722.006-1.091-.023l0,0c-.017-.011-.034-.019-.054-.031a4.355,4.355,0,0,1-.961-.788,9.161,9.161,0,0,0,3.11-.058c.584-.123,1.167-.277,1.756-.371a1.123,1.123,0,0,1,.735.062,3.756,3.756,0,0,1,.786.723c.52.528,1.042,1.059,1.611,1.536l.193.161" transform="translate(-154.277 550.313)" fill="#f5863b"/>
      <path id="path48" d="M201.286-675.892a3.487,3.487,0,0,1-.53,1.689,3.211,3.211,0,0,1-1.073.938,6.158,6.158,0,0,1-3.4.5,11.461,11.461,0,0,1-3.707-.657c-1.12-.45-2.158-1.048-3.255-1.543l-.339-.149a26.433,26.433,0,0,1-3.4-1.54,11.416,11.416,0,0,1-3.082-2.6,8.022,8.022,0,0,1-1.647-3.341c-.009-.036-.016-.074-.023-.112-.014-.081-.032-.17-.052-.264.044-.1.088-.194.133-.289.142-.305.288-.606.443-.9a5.639,5.639,0,0,0,.292,1.939,8.346,8.346,0,0,0,1.844,2.919,12.5,12.5,0,0,0,2.874,2.209c.934.523,1.937.863,2.889,1.34l.043.02c1.958.986,3.892,2.568,6.175,2.624,2.189.055,4.92-.4,5.647-2.806.028-.09.182-.072.167.026" transform="translate(-162.142 702.798)" fill="#f5863b"/>
      <path id="path50" d="M201.415-712.459q-.047.224-.113.448a3.5,3.5,0,0,0-.477-.142c-.1-.023-.208-.044-.313-.061-.484-.086-.973-.128-1.455-.221a14.881,14.881,0,0,0-2.077-.363,8.9,8.9,0,0,0-3.2.524,11.4,11.4,0,0,0-2.785,1.261c.074-.126.15-.252.227-.377s.161-.258.244-.384v0a6.986,6.986,0,0,1,2.208-.951,9.2,9.2,0,0,1,3.318-.453c.8.089,1.576.27,2.369.375.438.059.88.088,1.314.161.151.026.3.056.446.1.1.026.2.056.294.089" transform="translate(-171.236 728.656)" fill="#f5863b"/>
      <path id="path52" d="M312.548-685.287c.187.7.285,1.412.473,2.1a12.237,12.237,0,0,1,.377,1.438q-.062.165-.131.329-.088.215-.185.425a.286.286,0,0,1-.226-.206c-.742-2.524-.994-5.07-2.4-7.358a8,8,0,0,0-2.681-2.713c-.451-.279-.9-.553-1.351-.832-.4-.245-.789-.494-1.179-.75.125-.115.252-.227.379-.339.384.255.781.487,1.18.716.587.338,1.18.67,1.74,1.055a8.352,8.352,0,0,1,2.431,2.579,13.432,13.432,0,0,1,1.577,3.553" transform="translate(-272.942 710.835)" fill="#f5863b"/>
      <path id="path54" d="M277.3-641.938c-1.634.518-.333,2.367.462,3.074,1.083.963,3.017,1.922,4.377.949a2.19,2.19,0,0,0,.763-2.2,2.542,2.542,0,0,0-1.484-2.071c-1.381-.791-4.3-1.244-4.85.781a.3.3,0,0,0,.535.235c.808-1.211,2.672-.951,3.8-.432a3.532,3.532,0,0,1,1.556,1.362c.293.508-.411,1.492-.842,1.772-1,.653-2.451-.172-3.255-.785-.652-.5-1.693-1.609-.927-2.44.091-.1.013-.3-.136-.249h0" transform="translate(-247.367 666.023)" fill="#f5863b"/>
      <path id="path56" d="M296.96-626.048c-.028-.031-.011-.176-.044-.231a.24.24,0,0,0-.281-.087.184.184,0,0,0-.137.129,1.268,1.268,0,0,0,.47,1.211,1.013,1.013,0,0,0,1.074.261c.444-.236.223-.9-.019-1.187s-1.2-.677-1.433-.2a.22.22,0,0,0,.125.321.759.759,0,0,0,.407-.036.653.653,0,0,1,.484.1c.132.074.471.571.194.65-.211.06-.479-.145-.62-.275a.979.979,0,0,1-.314-.793l-.1.159q-.167-.086-.085,0l.061.058a.248.248,0,0,0,.124.065.094.094,0,0,0,.093-.154h0" transform="translate(-265.139 651.355)" fill="#f5863b"/>
      <path id="path58" d="M213.336-662.055c-.147.4.187.977.334,1.34a5.666,5.666,0,0,0,.964,1.616,1.832,1.832,0,0,0,2.914-.115c.669-.948-.081-2.119-.878-2.721-.678-.512-2.5-1.51-3.22-.607a.153.153,0,0,0,.088.226c.355.07.706.011,1.065.082a4.246,4.246,0,0,1,1.4.612c.72.45,1.812,1.418.984,2.268-.892.915-1.9.229-2.478-.612a7.185,7.185,0,0,1-.666-1.27c-.116-.272-.18-.658-.426-.85-.03-.023-.07,0-.081.031h0" transform="translate(-191.092 683.876)" fill="#f5863b"/>
      <path id="path60" d="M228.287-649.107c-.232.2-.065.7.039.93a.962.962,0,0,0,1.061.416.213.213,0,0,0,.157-.253,1.541,1.541,0,0,0-.481-.911.839.839,0,0,0-.9-.191.207.207,0,0,0-.008.356,4.08,4.08,0,0,1,.6.227,1.025,1.025,0,0,1,.384.614l.157-.253a.723.723,0,0,1-.737-.174.706.706,0,0,1-.209-.378,3.206,3.206,0,0,0-.031-.376.017.017,0,0,0-.027-.008h0" transform="translate(-204.227 671.659)" fill="#f5863b"/>
      <path id="path62" d="M242.916-699.984l.023-.012c.083-.041.014-.167-.069-.126l-.09.044c-.088.044-.011.185.073.134l.086-.052c.079-.048.011-.174-.069-.126l-.022.013a.071.071,0,0,0,.068.125h0" transform="translate(-217.302 717.015)" fill="#f5863b"/>
      <path id="path64" d="M234.3-700.107a2.262,2.262,0,0,0,.168,3.361c1.13,1.084,2.548.379,3.066-.929.528-1.333-.631-2.406-1.824-2.728-1.336-.361-2.783.765-2.093,2.183a.209.209,0,0,0,.381-.041c.09-.465.044-.976.392-1.34a1.314,1.314,0,0,1,1.154-.237c.871.151,2.043.962,1.782,1.98a1.663,1.663,0,0,1-2.688.794,2.065,2.065,0,0,1-.3-3,.027.027,0,0,0-.038-.039h0" transform="translate(-209.021 717.316)" fill="#f5863b"/>
      <path id="path66" d="M248.278-686.442a.912.912,0,0,0,.092.586.638.638,0,0,0,.12.163.39.39,0,0,0,.252.1.62.62,0,0,0,.64-.538.459.459,0,0,0-.217-.381.788.788,0,0,0-.223-.1.611.611,0,0,0-.17-.037.316.316,0,0,0-.2.081.108.108,0,0,0-.02.131.311.311,0,0,0,.175.145,1.063,1.063,0,0,1,.151.051c-.056-.024.008.005.021.012s.031.019.047.029c.038.026-.036-.033.006.005a.328.328,0,0,1,.035.037c.02.025-.032-.046-.015-.02l.01.017.008.017c.013.027-.02-.055-.01-.026a.2.2,0,0,1,.008.034c0,.029,0-.057,0-.028,0,.008,0,.015,0,.023,0,.049.011-.049,0-.01a.242.242,0,0,1-.01.034c-.01.028.024-.052.011-.025l-.008.016c-.007.013-.014.025-.022.038a.354.354,0,0,1-.022.032c-.018.025.036-.044.016-.02l-.013.015a.484.484,0,0,1-.065.058c.066-.051-.012.006-.034.017l-.037.018c-.029.012.051-.019.021-.008l-.026.009-.04.01c-.017,0-.07.008,0,0h-.04c-.024,0-.131.007-.047,0h-.058c-.027,0,.041.007.013,0a.3.3,0,0,1-.039-.01c-.039-.013.018.012-.02-.009l-.019-.011c-.021-.013.018.018,0,0,0,0-.02-.027,0,0l-.014-.022a.469.469,0,0,1-.026-.048.243.243,0,0,1-.02-.048,1.049,1.049,0,0,1-.047-.328.082.082,0,0,0-.164,0h0" transform="translate(-222.222 705.013)" fill="#f5863b"/>
      <path id="path68" d="M221.731-701.826a1.919,1.919,0,0,0-.51,1.6,7.256,7.256,0,0,0,.745,1.821c.031.07.134.023.121-.046-.209-1.1-.96-2.241-.262-3.323.039-.06-.052-.112-.093-.056h0" transform="translate(-198.122 718.543)" fill="#f5863b"/>
      <path id="path70" d="M204.293-697.734a2.076,2.076,0,0,0-.539,1.85.083.083,0,0,0,.158,0c.242-.566.131-1.222.516-1.746.06-.081-.066-.175-.136-.108h0" transform="translate(-182.556 714.9)" fill="#f5863b"/>
      <path id="path72" d="M297.032-672.727a1.542,1.542,0,0,1,1.922-.5c.456.165,1.262.668,1.088,1.259-.1.341-.6.5-.9.583a1.581,1.581,0,0,1-1.337-.29,1.161,1.161,0,0,1-.505-.807c-.011-.306.286-.353.516-.462a.072.072,0,0,0,0-.123.727.727,0,0,0-1.08.2c-.265.428.059,1,.33,1.328a2.21,2.21,0,0,0,3.239,0c1.2-1.508-2.887-3.371-3.43-1.26a.082.082,0,0,0,.149.065h0" transform="translate(-265.289 693.52)" fill="#f5863b"/>
      <path id="path74" d="M310.978-664.751c-.045.006.008,0,.016,0a.318.318,0,0,0,.094-.011c.059-.014-.04,0,.025,0a.147.147,0,0,1,.061.011.922.922,0,0,1,.352.239l.12-.409a3.9,3.9,0,0,1-.639.01c-.237.009-.322.367-.068.428a2.209,2.209,0,0,0,.819.039.246.246,0,0,0,.12-.409c-.247-.224-.849-.6-1.1-.178a.188.188,0,0,0,.2.277h0" transform="translate(-277.844 685.935)" fill="#f5863b"/>
      <path id="path76" d="M285.675-807.734l-.008.011c-.135.182-.261.359-.377.536a9.659,9.659,0,0,0-1.149-.234,14.424,14.424,0,0,0-1.985-.064c-.587.023-1.173.066-1.759.115.2-.2.4-.408.605-.608.534-.045,1.07-.07,1.61-.072a9.316,9.316,0,0,1,3.063.316" transform="translate(-250.824 813.088)" fill="#f5863b"/>
      <path id="path78" d="M353.507-796.614c.04.219.078.438.113.657-.105-.062-.211-.122-.318-.181A19.507,19.507,0,0,0,348.591-798c.009-.067.018-.134.027-.2a17.638,17.638,0,0,1,4.889,1.587" transform="translate(-311.533 804.318)" fill="#f5863b"/>
      <path id="path80" d="M304.729-824.738c-.028.084-.059.166-.092.248a39.379,39.379,0,0,0-4.1-.017c.105-.1.208-.2.311-.307,1.294-.03,2.589.008,3.885.076" transform="translate(-268.75 828.019)" fill="#f5863b"/>
      <path id="path82" d="M355.046-822.785c.063.163.12.32.169.468-1.238-.236-2.476-.466-3.73-.629.007-.1.016-.209.025-.318a27.049,27.049,0,0,1,3.535.479" transform="translate(-314.11 826.63)" fill="#f5863b"/>
      <path id="path84" d="M262.982-673.3c-1.564-1.33-3.817,1.96-1.7,3.259,2.344,1.437,3.9-2.458,1.832-3.014l-.134-.245" transform="translate(-233.041 693.404)" fill="#f8a06f"/>
      <path id="path86" d="M268.58-665.091c-.617.806.178,2.044,1.124,1.387,1.362-.946-.194-2.6-1.124-1.387" transform="translate(-240.111 686.201)" fill="#e87c45"/>
      <path id="path88" d="M253.139-629.792a.759.759,0,0,0-.438.536c-.146.4-.325.8-.489,1.192-.171.414-.351.824-.524,1.237s-.016.693-.07,1.11c0,.034.044.044.061.018.228-.366.545-.511.711-.921s.345-.826.516-1.239c.207-.5.735-1.421.319-1.919a.073.073,0,0,0-.086-.013h0" transform="translate(-225.194 654.403)" fill="#f8a06f"/>
      <path id="path90" d="M243.318-589.262c-.078.175-.179.33-.245.511-.1.286-.085.68-.291.912a1.774,1.774,0,0,0-.2.476,2.183,2.183,0,0,0-.194.722.04.04,0,0,0,.067.029,1.2,1.2,0,0,0,.295-.393,2.379,2.379,0,0,0,.271-.732c-.009-.324.179-.517.275-.8a2.262,2.262,0,0,0,.051-.717c0-.012-.019-.02-.024-.007h0" transform="translate(-216.984 618.32)" fill="#f8a06f"/>
      <path id="path92" d="M210.69-508.38a1.737,1.737,0,0,0-.306.52,1.478,1.478,0,0,1-.372.575l.2-.049-.033,0a.455.455,0,0,0-.247.839.455.455,0,0,0,.63-.6l-.011-.025.033.3a4.345,4.345,0,0,1,.273-.744,1.037,1.037,0,0,0,.047-.781.139.139,0,0,0-.216-.033h0" transform="translate(-187.91 546.344)" fill="#f8a06f"/>
      <path id="path94" d="M218.706-561.884a1,1,0,0,0,.663-.822,7.2,7.2,0,0,1,.789-1.995,2.424,2.424,0,0,0,.247-.686c.009-.421.294-.683.333-1.071.06-.593.6-.983.617-1.625a.06.06,0,0,0-.1-.044c-.435.352-.428.728-.576,1.22-.172.576-.508,1.114-.711,1.677a18.866,18.866,0,0,1-.664,1.87c-.237.494-.765.756-.735,1.364,0,.065.064.137.137.112h0" transform="translate(-195.783 599.513)" fill="#f8a06f"/>
      <path id="path96" d="M265.12-640.673a5.278,5.278,0,0,0,.474-.786c.094-.221.264-.532.135-.762,0,.057,0,.113,0,.17l.034-.06c.177-.316-.428-.415-.359-.057l.013.068.048-.162c-.164.133-.171.414-.231.607a5.283,5.283,0,0,1-.312.86.118.118,0,0,0,.2.122h0" transform="translate(-237.032 665.616)" fill="#f8a06f"/>
      <path id="path98" d="M201-678.934a1.385,1.385,0,0,0,.343.245c.024.008.035-.03.011-.038a1.372,1.372,0,0,1-.341-.23c-.014-.01-.027.012-.013.022h0" transform="translate(-180.142 698.165)" fill="#f8a06f"/>
      <path id="path100" d="M268.67-653.669a.069.069,0,0,0,0-.137.069.069,0,0,0,0,.137" transform="translate(-240.326 675.774)" fill="#f8a06f"/>
      <path id="path126" d="M13.024-744.073c.315-.311.187-.775.158-1.174-.039-.526-.178-1.045-.189-1.573a29.924,29.924,0,0,1-.083-3.223,15.14,15.14,0,0,1,1.787-5.615,23.159,23.159,0,0,1,3.836-5.246,27.4,27.4,0,0,1,3.143-2.815c1.095-.849,2.5-1.6,3.039-2.923.191-.471-.039-1.175-.665-1.118a2.824,2.824,0,0,0-.907.146,8.017,8.017,0,0,0-1.139.621,21.37,21.37,0,0,0-1.8,1.336,25.484,25.484,0,0,0-3.416,3.085,26.518,26.518,0,0,0-4.241,6.153,15.679,15.679,0,0,0-1.556,6.766,13.619,13.619,0,0,0,.475,3.449c.09.34.894,2.786,1.557,2.132h0" transform="translate(-10.992 777.222)" fill="#817a75"/>
      <path id="path128" d="M46.725-837.675a20.928,20.928,0,0,1-1.5,7.927c-.2.546-.408,1.078-.619,1.589-1.433,3.45-2.773,6.921-4.129,10.38a18.392,18.392,0,0,1-1.073,2.271,15.309,15.309,0,0,1-4.438,5.055,15.733,15.733,0,0,1-8.9,2.8c-3.634.187-8.438-1.637-10.416-4.966a13.61,13.61,0,0,1-1.83-4.025,6.248,6.248,0,0,1-.1-.692,10.553,10.553,0,0,1,.872-4.726,22.9,22.9,0,0,1,3.327-5.633,10.088,10.088,0,0,1,4.836-3.411,33.922,33.922,0,0,1,4.548-.7,22.058,22.058,0,0,0,11.455-6.324c2.055-2.158,2.489-5.318,4.479-7.36l.217-.257a37.262,37.262,0,0,1,2.048,3.772,16.4,16.4,0,0,1,1.23,4.3" transform="translate(-13.39 846.642)" fill="#a38b7e"/>
      <path id="path130" d="M45.452-741.895c-.2.546-.408,1.078-.619,1.589-1.433,3.45-2.773,6.921-4.129,10.38a18.379,18.379,0,0,1-1.073,2.271,15.308,15.308,0,0,1-4.438,5.055,15.731,15.731,0,0,1-8.9,2.8c-3.634.187-8.438-1.637-10.416-4.966a13.608,13.608,0,0,1-1.83-4.024,6.251,6.251,0,0,1-.1-.692,4.122,4.122,0,0,1,1.789-.49c2.189-.157,4.377.129,6.571.009a25.724,25.724,0,0,0,8.019-1.757,15.033,15.033,0,0,0,5.366-3.689,32.938,32.938,0,0,0,4.794-6.923c.719-1.3,1.807-4.224,3.4-4.674l.179-.051c.5,1.722,1.032,3.431,1.391,5.162" transform="translate(-13.617 758.788)" fill="#817a75"/>
      <path id="path132" d="M39.4-633.806a15.309,15.309,0,0,1-4.438,5.055,15.731,15.731,0,0,1-8.9,2.8c-3.634.187-8.438-1.637-10.416-4.966a13.608,13.608,0,0,1-1.83-4.024,6.251,6.251,0,0,1-.1-.692,10.553,10.553,0,0,1,.872-4.726l.089.041a18.773,18.773,0,0,0,4.6,1.8,18.619,18.619,0,0,0,6.6.051c2.916-.4,5.207-1.691,7.8-2.84a2.454,2.454,0,0,1,1.775-.258c.634.215,1.032.881,1.485,1.846.665,1.421,1.328,2.846,1.978,4.275a6.109,6.109,0,0,1,.482,1.633" transform="translate(-13.39 664.94)" fill="#545455"/>
      <path id="path134" d="M163.4-852.37a11,11,0,0,1,1.474,4.127,16.027,16.027,0,0,1-.643,4.447c-1.072,4.266-4.978,7.309-8.64,9.148-1.187.6-3.26,1.864-3.533-.146-.26-1.915,1.794-3.794,2.515-5.436a38.348,38.348,0,0,1,7.527-10.921,4.171,4.171,0,0,1,1.147-1.079l.153-.141" transform="translate(-136.556 852.541)" fill="#e54e1e"/>
      <path id="path136" d="M42.681-849.873c.026.172.047.338.063.493,0,.048.01.1.014.141a26.137,26.137,0,0,1,.091,3.358c-.009.222-.02.444-.033.666a28.076,28.076,0,0,1-.76,4.984h0q-.132.528-.281,1.048c-.041.142-.083.284-.127.425-.146.475-.285.95-.42,1.426-.092.324-.184.648-.273.971-.435,1.576-.852,3.147-1.346,4.687-.16.5-.328.987-.509,1.475a22.42,22.42,0,0,1-2.414,4.848q-.1.148-.2.292c-.089.127-.179.252-.273.375a16.221,16.221,0,0,1-2.794,2.878h0q-.407.33-.833.636c-.493.354-1.005.684-1.534.991-.345.2-.7.391-1.053.569q-.494.248-1,.466h0q-.705.306-1.429.554-.849.293-1.714.5h0c-.588.143-1.181.258-1.773.343h0c-.384.053-.768.1-1.151.125a9.436,9.436,0,0,1-2.862-.331h0c-.4-.1-.8-.2-1.186-.306-.252-.067-.5-.134-.739-.2a10.606,10.606,0,0,1-4.805-2.271l0,0c-.014-.015-.029-.027-.045-.042a4.355,4.355,0,0,1-.765-.98,9.8,9.8,0,0,1-1.069-4.7c0-.288,0-.574.015-.856h0a12.877,12.877,0,0,1,.346-2.456h0c.024-.1.05-.2.077-.291s.061-.209.094-.312a13.264,13.264,0,0,1,1.333-2.854q.188-.318.39-.626c.421-.655.875-1.3,1.333-1.952.347-.5.692-1,1.039-1.5.438-.632.881-1.26,1.345-1.869.064-.085.128-.17.193-.253.206-.267.414-.528.63-.784.242-.292.491-.575.749-.849.1-.107.2-.213.3-.318s.214-.217.322-.322v0c.227-.226.457-.45.689-.669l0,0c.176-.168.353-.335.533-.5,1.317-1.214,2.706-2.347,4.135-3.423.16-.12.318-.239.479-.358h0q1.02-.754,2.066-1.476.4-.276.8-.548,1.414-.958,2.849-1.871c.242-.155.482-.309.724-.461.639-.406,1.28-.807,1.916-1.208.125-.076.248-.154.371-.231l.147-.091c.743-.465,3.008-1.995,3.829-1.164a1.056,1.056,0,0,1,.264.558,2.41,2.41,0,0,1-.466,1.622c-.045.076-.094.149-.144.221a8.724,8.724,0,0,1-1.41,1.554l-.011.009c-.171.148-.333.293-.485.441a10.8,10.8,0,0,0-1.7,2.123c-.135.213-.271.438-.412.677-.007.009-.013.021-.02.032a7.624,7.624,0,0,1-.985,1.3c-.146.159-.3.314-.448.469-.435.444-.884.88-1.3,1.38-.074.09-.143.179-.209.27-.107.151-.2.3-.292.458-.436.767-.684,1.6-1.065,2.4q-.1.208-.209.413c-.02.038-.041.076-.062.112a30.36,30.36,0,0,0-1.492,2.768c-.107.244-.2.485-.28.718.073.069.144.127.21.18h0a1.445,1.445,0,0,0,.311.187s0,0,0,0a.689.689,0,0,0,.794-.153c.292-.253.559-.677.934-1.006a8.857,8.857,0,0,1,1.468-1.013c.147-.084.3-.166.443-.247.351-.192.7-.378,1.051-.582a7.444,7.444,0,0,0,1.7-1.4c.15-.161.295-.33.435-.5a13.09,13.09,0,0,0,1.153-1.688c.1-.176.2-.354.3-.534a18.769,18.769,0,0,0,.89-1.926q.135-.344.253-.678l.055-.157c.3-.863.6-1.746.92-2.619l.07-.19c.16-.432.323-.862.494-1.284.087-.215.192-.592.322-1.026.03-.1.062-.2.095-.3l.046-.144c.448-1.4,1.138-2.992,2.2-1.708a6.864,6.864,0,0,1,1.1,3.093" transform="translate(-11.401 853.931)" fill="#f36d24"/>
      <path id="path138" d="M164.605-805.153c-.135.213-.271.438-.412.677-.29-.139-.579-.276-.87-.412A8.848,8.848,0,0,0,159.976-806a19.869,19.869,0,0,1-2.053-.1q.4-.276.8-.548a8.115,8.115,0,0,1,1.7-.069,9.8,9.8,0,0,1,3.057,1.039c.375.17.748.35,1.117.533" transform="translate(-141.794 811.924)" fill="#f5863b"/>
      <path id="path140" d="M250.29-772.12h0q-.132.528-.281,1.048a12.555,12.555,0,0,0-3.065-4.606,8.662,8.662,0,0,0-1.582-1.068q.135-.343.253-.678a9.309,9.309,0,0,1,1.652,1.109,12.909,12.909,0,0,1,3.023,4.194" transform="translate(-219.636 785.822)" fill="#f5863b"/>
      <path id="path142" d="M142.539-786.685c-.146.159-.3.314-.448.47a17.224,17.224,0,0,0-7.363-1.6c.16-.12.318-.239.479-.358h0a12.679,12.679,0,0,1,7.331,1.485" transform="translate(-121.145 795.463)" fill="#f5863b"/>
      <path id="path144" d="M239.844-748.1c-.092.324-.184.648-.273.971-.077-.136-.157-.27-.239-.405a23.736,23.736,0,0,0-4.16-5.095q-.3-.277-.614-.537c.1-.176.2-.354.3-.534.2.162.408.328.605.5a21.218,21.218,0,0,1,4.386,5.1" transform="translate(-210.016 764.698)" fill="#f5863b"/>
      <path id="path146" d="M102.725-762.784c-.107.151-.2.3-.292.458q-.287-.119-.578-.223a12.152,12.152,0,0,0-9.654.439c.176-.168.353-.335.533-.5a9.035,9.035,0,0,1,3.666-1.132,13.718,13.718,0,0,1,4.88.472c.272.078.543.161.809.254.214.071.426.148.635.229" transform="translate(-83.287 773.681)" fill="#f5863b"/>
      <path id="path148" d="M225.345-724.421c-.16.5-.328.987-.509,1.475a14.918,14.918,0,0,0-.731-3.331,17.714,17.714,0,0,0-1.76-4.011,12.187,12.187,0,0,0-2.256-2.667c.15-.161.295-.33.435-.5a11.587,11.587,0,0,1,2.281,2.643,18.729,18.729,0,0,1,1.971,4.346c.214.677.418,1.358.568,2.048" transform="translate(-197.137 746.682)" fill="#f5863b"/>
      <path id="path150" d="M69.583-704.238c-.271.22-.549.433-.833.636a10.362,10.362,0,0,1-1.109-.283,14.246,14.246,0,0,1-4.035-2.127,20.163,20.163,0,0,1-3.644-3.248,10.849,10.849,0,0,1-.926-1.522c-.033-.054-.066-.11-.1-.164a2.253,2.253,0,0,0-1.117-.762,10.869,10.869,0,0,1-5.139-4.636,4.652,4.652,0,0,1-.541-2.933,4.277,4.277,0,0,1,.108-.449c.438-.632.881-1.26,1.345-1.869.064-.085.128-.17.193-.253a.377.377,0,0,1,.036-.016c.07-.029.116.06.091.114a3.066,3.066,0,0,1-.33.539,5.325,5.325,0,0,0-.636.946,3.505,3.505,0,0,0-.334,1.631,5.5,5.5,0,0,0,1.174,2.912,10.957,10.957,0,0,0,2.478,2.375c.811.567,1.7.9,2.544,1.4a2.119,2.119,0,0,1,.585.53c.444.567.691,1.314,1.179,1.853a21.16,21.16,0,0,0,3.558,3.046,13.87,13.87,0,0,0,5.454,2.279" transform="translate(-47.567 736.367)" fill="#f5863b"/>
      <path id="path152" d="M46.181-657.233c-.345.2-.7.391-1.053.569a14.777,14.777,0,0,1-2.984-1.763,21.187,21.187,0,0,1-2.986-2.7c-.891-.978-1.452-2.186-2.317-3.175-1.611-1.84-4.23-2.2-6.256-3.413a4.629,4.629,0,0,1-1.945-1.962,2.549,2.549,0,0,1-.192-.594q.188-.317.39-.626a3.007,3.007,0,0,0,.7,1.576,6.93,6.93,0,0,0,2.369,1.575c1.921.86,4.128,1.415,5.529,3.09.762.911,1.281,1.991,2.093,2.867a20.972,20.972,0,0,0,2.643,2.441,12.722,12.722,0,0,0,3.382,1.921c.209.074.416.138.625.194" transform="translate(-26.532 690.988)" fill="#f5863b"/>
      <path id="path154" d="M31.93-627.979q-.705.306-1.429.554a13.631,13.631,0,0,1-5.612-3.959,7.055,7.055,0,0,0-2.415-2.419c-1.253-.558-2.583-.927-3.83-1.51a9.368,9.368,0,0,1-3.264-2.188,4.186,4.186,0,0,1-.634-1.094v0c.024-.1.05-.2.077-.291s.061-.209.094-.312a5,5,0,0,0,1.132,1.566,13.906,13.906,0,0,0,3.609,1.942,24.5,24.5,0,0,1,3.58,1.365,7.08,7.08,0,0,1,1.926,1.894,12.758,12.758,0,0,0,5.968,4.2c.263.091.53.177.8.256" transform="translate(-14.335 662.77)" fill="#f5863b"/>
      <path id="path156" d="M25.852-602.094c-.588.143-1.181.258-1.773.343h0a13.764,13.764,0,0,1-3.857-2.977,4.3,4.3,0,0,0-2.359-1.517,12.292,12.292,0,0,1-3.009-1.185,11.364,11.364,0,0,1-3.4-3.026c0-.288,0-.574.015-.856.55.563,1.068,1.159,1.667,1.677a10.575,10.575,0,0,0,2.459,1.625,25.669,25.669,0,0,0,3.113.967,4.46,4.46,0,0,1,2,1.339,13.767,13.767,0,0,0,5.15,3.608" transform="translate(-11.401 637.943)" fill="#f5863b"/>
      <path id="path158" d="M28.745-556.88c-.4-.1-.8-.2-1.186-.306-.174-.248-.343-.5-.51-.752a6,6,0,0,0-.815-1.241c-.179-.152-.906-.04-1.12-.035a9.668,9.668,0,0,1-2.039-.176c-.345-.07-.706-.153-1.06-.262l0,0c-.014-.015-.029-.026-.045-.042a4.354,4.354,0,0,1-.765-.979,9.17,9.17,0,0,0,3.047.624c.6.008,1.2-.015,1.795.023a1.123,1.123,0,0,1,.7.221,3.759,3.759,0,0,1,.608.878c.392.629.785,1.261,1.236,1.851l.153.2" transform="translate(-20.082 592.866)" fill="#f5863b"/>
      <path id="path160" d="M84.239-716.385a3.486,3.486,0,0,1-.887,1.532,3.211,3.211,0,0,1-1.252.681,6.161,6.161,0,0,1-3.426-.256,11.464,11.464,0,0,1-3.473-1.452c-.995-.684-1.876-1.5-2.838-2.218q-.15-.112-.3-.22a26.438,26.438,0,0,1-2.981-2.247,11.418,11.418,0,0,1-2.438-3.211,8.023,8.023,0,0,1-.876-3.62c0-.038,0-.076,0-.114,0-.082.006-.173.007-.269.064-.085.128-.17.193-.253.206-.267.414-.528.63-.784a5.64,5.64,0,0,0-.139,1.956,8.345,8.345,0,0,0,1.16,3.252,12.5,12.5,0,0,0,2.32,2.784c.8.715,1.7,1.266,2.526,1.94l.037.029c1.695,1.39,3.235,3.358,5.451,3.912,2.124.533,4.888.686,6.124-1.5.046-.082.193-.03.157.062" transform="translate(-59.756 742.552)" fill="#f5863b"/>
      <path id="path162" d="M90.677-744.717q-.1.208-.209.413a3.456,3.456,0,0,0-.434-.243c-.1-.045-.194-.088-.292-.128-.454-.19-.922-.338-1.372-.534a14.863,14.863,0,0,0-1.947-.808,8.9,8.9,0,0,0-3.238-.189,11.406,11.406,0,0,0-2.993.621c.1-.107.2-.213.3-.318s.214-.217.322-.322v0a6.992,6.992,0,0,1,2.362-.445,9.206,9.206,0,0,1,3.337.285c.757.261,1.478.608,2.23.884.414.153.839.278,1.247.445.142.058.28.12.415.191.092.048.181.1.267.152" transform="translate(-72.596 758.471)" fill="#f5863b"/>
      <path id="path164" d="M196.463-701.543c.03.719-.031,1.44,0,2.155a12.2,12.2,0,0,1,.053,1.485q-.1.148-.2.292c-.089.127-.179.252-.273.375a.286.286,0,0,1-.175-.251c-.171-2.625.141-5.165-.735-7.706a8,8,0,0,0-2.022-3.234c-.379-.371-.76-.737-1.136-1.107-.333-.326-.662-.654-.986-.99.147-.084.3-.166.443-.248.319.333.656.646.994.957.5.459,1,.912,1.467,1.411a8.353,8.353,0,0,1,1.808,3.049,13.426,13.426,0,0,1,.761,3.812" transform="translate(-171.232 726.486)" fill="#f5863b"/>
      <path id="path166" d="M149.65-664.221c-1.707.148-.843,2.237-.222,3.1.846,1.177,2.523,2.536,4.063,1.884a2.19,2.19,0,0,0,1.225-1.977,2.542,2.542,0,0,0-.995-2.346c-1.175-1.074-3.921-2.155-4.9-.3a.3.3,0,0,0,.47.347c1.054-1,2.815-.343,3.8.411a3.532,3.532,0,0,1,1.22,1.67c.174.56-.728,1.365-1.21,1.545-1.12.418-2.354-.7-3-1.478-.528-.628-1.3-1.941-.37-2.584.111-.076.077-.287-.078-.273h0" transform="translate(-133.54 685.618)" fill="#f5863b"/>
      <path id="path168" d="M168.014-647.454c-.021-.036.028-.174.008-.235a.241.241,0,0,0-.255-.146.184.184,0,0,0-.162.1,1.268,1.268,0,0,0,.193,1.284,1.013,1.013,0,0,0,.991.49c.485-.134.414-.827.241-1.162s-1.018-.922-1.356-.5a.22.22,0,0,0,.052.34.759.759,0,0,0,.405.054.652.652,0,0,1,.45.207c.113.1.334.66.047.677-.219.012-.436-.246-.545-.4a.977.977,0,0,1-.133-.843l-.13.133q-.144-.12-.084-.016l.047.07a.246.246,0,0,0,.107.091.093.093,0,0,0,.124-.129h0" transform="translate(-150.326 670.458)" fill="#f5863b"/>
      <path id="path170" d="M93.072-699.784c-.23.354-.031.994.033,1.38a5.665,5.665,0,0,0,.587,1.788,1.832,1.832,0,0,0,2.869.525c.86-.779.385-2.085-.261-2.847-.549-.648-2.113-2.022-3.009-1.3a.153.153,0,0,0,.036.239c.331.146.687.165,1.022.313a4.244,4.244,0,0,1,1.231.9c.6.6,1.458,1.78.463,2.428-1.071.7-1.9-.192-2.284-1.14a7.178,7.178,0,0,1-.372-1.385,2.006,2.006,0,0,0-.23-.922.055.055,0,0,0-.085.013h0" transform="translate(-83.966 717.288)" fill="#f5863b"/>
      <path id="path172" d="M106.414-684.811c-.271.148-.217.668-.166.916a.962.962,0,0,0,.944.638.213.213,0,0,0,.208-.212,1.541,1.541,0,0,0-.27-.994.839.839,0,0,0-.839-.384.207.207,0,0,0-.086.346,4.06,4.06,0,0,1,.533.353,1.025,1.025,0,0,1,.241.683l.208-.212a.722.722,0,0,1-.681-.331.707.707,0,0,1-.121-.415,3.2,3.2,0,0,0,.053-.374.017.017,0,0,0-.025-.014h0" transform="translate(-95.696 703.427)" fill="#f5863b"/>
      <path id="path174" d="M132.117-731.52l.025-.006c.09-.022.05-.16-.04-.139l-.1.024a.076.076,0,0,0,.042.147l.1-.032c.088-.029.049-.168-.04-.139l-.025.008a.071.071,0,0,0,.039.136h0" transform="translate(-118.674 745.089)" fill="#f5863b"/>
      <path id="path176" d="M120.957-731.077a2.262,2.262,0,0,0-.571,3.316c.866,1.305,2.4.927,3.195-.235.807-1.185-.089-2.485-1.183-3.061-1.225-.645-2.883.137-2.52,1.672a.209.209,0,0,0,.38.044c.19-.434.256-.943.676-1.222a1.313,1.313,0,0,1,1.178.021c.817.338,1.783,1.387,1.3,2.323a1.663,1.663,0,0,1-2.8.186,2.065,2.065,0,0,1,.366-3,.027.027,0,0,0-.028-.047h0" transform="translate(-107.88 744.747)" fill="#f5863b"/>
      <path id="path178" d="M133.716-716.564a.913.913,0,0,0-.039.591.643.643,0,0,0,.082.185.391.391,0,0,0,.224.152.62.62,0,0,0,.742-.385.459.459,0,0,0-.129-.42.791.791,0,0,0-.2-.147.615.615,0,0,0-.158-.073.317.317,0,0,0-.211.035.108.108,0,0,0-.048.123.312.312,0,0,0,.139.18,1.047,1.047,0,0,1,.136.082c-.049-.035.007.007.018.016s.027.025.039.039c.032.034-.028-.04,0,.006a.322.322,0,0,1,.026.044c.014.028-.021-.052-.01-.023,0,.006,0,.012.006.018s0,.012,0,.018c.006.03-.007-.057,0-.028a.217.217,0,0,1,0,.035c0,.029.008-.056,0-.028a.224.224,0,0,1-.005.022c-.013.047.021-.045,0-.01a.236.236,0,0,1-.018.03c-.016.025.035-.045.017-.022l-.012.014-.029.032c-.009.009-.018.018-.028.026s.044-.035.02-.016l-.016.011a.487.487,0,0,1-.076.043c.076-.035-.013,0-.037.009l-.04.009c-.031.006.054-.007.023,0l-.027,0h-.041c-.017,0-.071-.007,0,0l-.04-.008c-.023-.005-.13-.022-.045-.01l-.038-.008-.018-.005c-.025-.008.038.016.013.005a.321.321,0,0,1-.036-.019c-.035-.021.016.015-.017-.013l-.016-.015c-.018-.018.013.022,0,0,0-.005-.014-.031,0,0l-.009-.024a.535.535,0,0,1-.015-.052.246.246,0,0,1-.009-.052,1.044,1.044,0,0,1,.026-.331.082.082,0,0,0-.159-.04h0" transform="translate(-120.179 731.733)" fill="#f5863b"/>
      <path id="path180" d="M109.323-737.217a1.919,1.919,0,0,0-.849,1.454,7.257,7.257,0,0,0,.328,1.94c.015.075.126.052.128-.019.038-1.121-.446-2.4.472-3.3.051-.05-.027-.121-.079-.075h0" transform="translate(-97.768 750.041)" fill="#f5863b"/>
      <path id="path182" d="M91.181-736.943a2.076,2.076,0,0,0-.931,1.687.082.082,0,0,0,.153.039c.36-.5.4-1.164.886-1.591.076-.066-.026-.185-.109-.135h0" transform="translate(-81.55 749.796)" fill="#f5863b"/>
      <path id="path184" d="M176.808-690.943a1.542,1.542,0,0,1,1.985-.067c.408.261,1.086.928.785,1.466-.173.311-.7.352-1,.372a1.581,1.581,0,0,1-1.241-.576,1.161,1.161,0,0,1-.317-.9c.056-.3.356-.282.605-.338a.072.072,0,0,0,.03-.119.727.727,0,0,0-1.1-.04c-.353.359-.161.985.031,1.369a2.21,2.21,0,0,0,3.16.714c1.5-1.208-2.079-3.921-3.071-1.98a.082.082,0,0,0,.131.1h0" transform="translate(-158.208 709.525)" fill="#f5863b"/>
      <path id="path186" d="M190.3-681.962c-.045,0,.007,0,.014.007a.32.32,0,0,0,.095.01c.06,0-.039-.01.024,0a.147.147,0,0,1,.057.024.925.925,0,0,1,.291.31l.207-.372a3.913,3.913,0,0,1-.626-.131c-.234-.043-.394.288-.16.4a2.207,2.207,0,0,0,.791.218.246.246,0,0,0,.207-.372c-.192-.273-.7-.775-1.036-.415a.188.188,0,0,0,.136.315h0" transform="translate(-170.424 701.23)" fill="#f5863b"/>
      <path id="path188" d="M196.44-825.915l-.011.009c-.171.148-.333.293-.485.441a9.654,9.654,0,0,0-1.07-.48,14.414,14.414,0,0,0-1.923-.5c-.578-.106-1.159-.193-1.741-.273.242-.155.482-.309.724-.461.531.073,1.06.166,1.587.283a9.316,9.316,0,0,1,2.919.979" transform="translate(-171.428 830.114)" fill="#f5863b"/>
      <path id="path190" d="M261.047-801.825c-.009.222-.02.444-.033.666-.089-.083-.179-.165-.271-.246a19.494,19.494,0,0,0-4.189-2.848l.07-.19a17.637,17.637,0,0,1,4.423,2.619" transform="translate(-229.599 809.876)" fill="#f5863b"/>
      <path id="path192" d="M219.4-839.358c-.045.075-.094.149-.144.221a39.318,39.318,0,0,0-4-.915c.125-.077.248-.154.371-.231,1.27.254,2.525.575,3.774.925" transform="translate(-192.836 841.781)" fill="#f5863b"/>
      <path id="path194" d="M268.07-827.026c.026.173.047.338.063.493-1.156-.5-2.314-1-3.5-1.43.03-.1.062-.2.095-.3a27.055,27.055,0,0,1,3.344,1.241" transform="translate(-236.79 831.085)" fill="#f5863b"/>
      <path id="path196" d="M142.013-698.473c-1.235-1.64-4.154,1.077-2.371,2.808,1.973,1.916,4.346-1.544,2.447-2.54l-.077-.268" transform="translate(-125.02 715.988)" fill="#f8a06f"/>
      <path id="path198" d="M147.642-690.553c-.779.651-.274,2.033.793,1.6,1.536-.624.38-2.58-.793-1.6" transform="translate(-132.306 708.727)" fill="#e87c45"/>
      <path id="path200" d="M119.778-658.3a.759.759,0,0,0-.545.427c-.231.361-.492.705-.738,1.056-.257.367-.523.727-.782,1.092s-.168.672-.311,1.067c-.012.032.034.053.055.031.3-.307.643-.379.9-.743s.518-.73.775-1.1c.311-.444,1.028-1.225.732-1.8a.073.073,0,0,0-.081-.032h0" transform="translate(-105.719 679.776)" fill="#f8a06f"/>
      <path id="path202" d="M103.811-622c-.115.154-.247.283-.351.445-.164.256-.232.644-.483.826a1.768,1.768,0,0,0-.3.42,2.178,2.178,0,0,0-.348.662.039.039,0,0,0,.058.043,1.2,1.2,0,0,0,.374-.319,2.384,2.384,0,0,0,.425-.655c.062-.318.288-.465.444-.721a2.257,2.257,0,0,0,.207-.689c0-.012-.014-.023-.022-.012h0" transform="translate(-92.298 647.464)" fill="#f8a06f"/>
      <path id="path204" d="M56.112-550.044a1.732,1.732,0,0,0-.412.44c-.122.153-.3.412-.489.479l.209,0-.032-.009a.455.455,0,0,0-.424.764.455.455,0,0,0,.747-.451l-.006-.027-.035.3a4.344,4.344,0,0,1,.429-.666,1.037,1.037,0,0,0,.216-.752.139.139,0,0,0-.2-.08h0" transform="translate(-50.017 583.418)" fill="#f8a06f"/>
      <path id="path206" d="M67.561-597.52a1,1,0,0,0,.827-.657,7.2,7.2,0,0,1,1.206-1.774,2.424,2.424,0,0,0,.392-.615c.1-.409.436-.6.559-.972.188-.565.8-.828.958-1.451a.059.059,0,0,0-.088-.065c-.5.248-.577.616-.829,1.065-.294.524-.739.975-1.061,1.481a18.917,18.917,0,0,1-1.058,1.68c-.339.43-.912.57-1.016,1.17-.011.064.032.148.109.139h0" transform="translate(-61.253 630.599)" fill="#f8a06f"/>
      <path id="path208" d="M138.05-667.915a5.286,5.286,0,0,0,.635-.663c.14-.2.374-.461.3-.714l-.041.165.046-.052c.242-.27-.327-.5-.338-.134l0,.069.082-.148c-.189.093-.257.367-.358.542a5.306,5.306,0,0,1-.492.771.118.118,0,0,0,.17.163h0" transform="translate(-123.924 689.746)" fill="#f8a06f"/>
      <path id="path210" d="M86.808-720.419a1.383,1.383,0,0,0,.281.314c.022.013.041-.022.019-.034a1.366,1.366,0,0,1-.282-.3c-.012-.012-.029.006-.018.019h0" transform="translate(-78.483 735.095)" fill="#f8a06f"/>
      <path id="path212" d="M147.208-680.865a.069.069,0,0,0,0-.137.069.069,0,0,0,0,.137" transform="translate(-132.196 699.984)" fill="#f8a06f"/>
    </g>
  </g>
</svg>
