<svg xmlns="http://www.w3.org/2000/svg" xmlns:xlink="http://www.w3.org/1999/xlink" width="60" height="60" viewBox="0 0 60 60">
  <defs>
    <clipPath id="clip-path">
      <rect id="Rectangle_10" data-name="Rectangle 10" width="60" height="60" rx="16" transform="translate(20 345)" fill="#8aa77e" stroke="#707070" stroke-width="1"/>
    </clipPath>
  </defs>
  <g id="Mask_Group_2" data-name="Mask Group 2" transform="translate(-20 -345)" clip-path="url(#clip-path)">
    <g id="Rectangle_108" data-name="Rectangle 108" transform="translate(9 336)" fill="#ecd6b4" stroke="#707070" stroke-width="1">
      <rect width="77" height="76" stroke="none"/>
      <rect x="0.5" y="0.5" width="76" height="75" fill="none"/>
    </g>
    <ellipse id="Ellipse_20" data-name="Ellipse 20" cx="21" cy="5.5" rx="21" ry="5.5" transform="translate(35 380)" fill="#c7ab81"/>
    <g id="Group_122" data-name="Group 122" transform="matrix(0.829, -0.559, 0.559, 0.829, 31.632, 364.033)">
      <path id="path214" d="M56.986-282.533a8.379,8.379,0,0,1-1.309,4.961c-1.969,2.865-6.326,3.4-10.062,3.571-.044,0-.088,0-.131,0-.281.013-.559.025-.833.034-.836.026-1.625.044-2.328.075l-.757.031q-2.606.11-5.213.193c-.113,0-.226.008-.339.012h0l-.324.011c-.094,0-.185,0-.28.007h0l-.192.007c-4.63.142-9.259.237-13.889.335h0q-1.779.034-3.557.073a33.7,33.7,0,0,1-5.6.055h0a9.735,9.735,0,0,1-2.672-.816,14.522,14.522,0,0,1-3.781-2.51c-.217-.2-.427-.41-.625-.625a10.622,10.622,0,0,1-2.21-3.491c-.046-.116-.09-.23-.137-.344-.189-.467-.394-.916-.61-1.36-.341-.713-.7-1.405-1.02-2.114-.09-.2-.179-.4-.261-.607A10.728,10.728,0,0,1,.164-287.3v0c-.03-.175-.055-.354-.074-.534-.008-.072-.016-.145-.024-.219A15.957,15.957,0,0,1,0-289.665c0-.292.009-.586.024-.876.039-.811.123-1.614.22-2.419a.166.166,0,0,1,0-.028c.085-.7.181-1.4.265-2.111.069-.568.132-1.141.179-1.719q.061-.722.184-1.4a11.375,11.375,0,0,1,.767-2.528.026.026,0,0,1,.006-.011,9.362,9.362,0,0,1,.991-1.724,10.161,10.161,0,0,1,6.93-3.893,9.953,9.953,0,0,1,1.016-.1h0a12.753,12.753,0,0,1,2.587.155c1.453.22,2.889.617,4.388.909a23.783,23.783,0,0,0,2.843.374h0q.674.046,1.348.064h0c.921.023,1.838,0,2.76-.046h0q1.122-.061,2.248-.17c1.983-.19,3.97-.464,5.957-.7h0c.124-.016.25-.031.377-.046a53.035,53.035,0,0,1,6.125-.431c.287,0,.558,0,.811.008.3.007.573.02.831.042a5.076,5.076,0,0,1,3.786,1.975,13.9,13.9,0,0,0,3.107,2.331c.214.131.424.263.635.4a12.511,12.511,0,0,1,1.668,1.241c.033.029.067.06.1.093s.083.077.123.116a25.1,25.1,0,0,1,3,3.548q.481.688.916,1.409c.149.246.291.5.43.749q.243.441.465.891v0c.011.024.022.044.033.068v0a18.265,18.265,0,0,1,1.1,2.812c.063.212.121.423.173.633s.107.449.152.672c.036.173.064.349.089.526.055.361.091.73.118,1.1.091,1.317.05,2.684.156,3.983.035.411.055.821.058,1.229" transform="translate(0 306.487)" fill="#f06269"/>
      <path id="path216" d="M56.987-244.777a8.385,8.385,0,0,1-1.309,4.961c-1.968,2.864-6.327,3.4-10.063,3.572-.043,0-.087,0-.13,0-.282.013-.559.024-.833.033-.836.027-1.624.045-2.328.075-.252.011-.5.022-.757.032q-2.606.11-5.212.192c-.113,0-.226.008-.34.011h0l-.324.011-.279.008h0l-.193.006c-4.63.142-9.258.237-13.888.334h0q-1.779.036-3.557.073a33.5,33.5,0,0,1-5.6.056h0a9.721,9.721,0,0,1-2.672-.816,14.511,14.511,0,0,1-3.782-2.511c-.217-.2-.427-.409-.626-.625a10.655,10.655,0,0,1-2.21-3.491c-.044-.116-.089-.231-.136-.345-.188-.466-.395-.916-.609-1.36-.341-.712-.7-1.406-1.019-2.113-.09-.2-.179-.4-.262-.607a10.707,10.707,0,0,1-.683-2.266v0c-.031-.175-.055-.353-.075-.533L.067-250.3A15.928,15.928,0,0,1,0-251.908c0-.293.009-.585.023-.876.04-.811.122-1.614.22-2.419a.188.188,0,0,1,0-.029c.084-.7.181-1.4.266-2.11.069-.568.132-1.14.179-1.719a14.058,14.058,0,0,1,.184-1.395,11.269,11.269,0,0,1,.767-2.528l.021.014a1.4,1.4,0,0,1,.372.406,1.292,1.292,0,0,1,.109.207,2.859,2.859,0,0,1,.182.666c.095.561.11,1.237.148,1.856.015.273.037.536.07.773a3.344,3.344,0,0,0,.1.474c.012.041.024.084.038.127a5.037,5.037,0,0,0,1.841,3.013c.041.024.081.046.122.067a2.616,2.616,0,0,0,.889.258h0c.663.076,1.355-.03,2.013.017.061,0,.121.008.181.016.343.041.651.092.944.145a8.69,8.69,0,0,0,2.051.2c.121,0,.245-.013.375-.027.539-.056,1.107-.126,1.691-.2.747-.087,1.521-.173,2.293-.219a14.045,14.045,0,0,1,2.643.054,0,0,0,0,1,0,0A7.466,7.466,0,0,1,18.5-255c.087.017.173.038.259.06a5.341,5.341,0,0,1,1.319.572h0A18.3,18.3,0,0,0,21.93-253.3a12.188,12.188,0,0,0,3.038.626c.075.011.149.024.223.038.1.016.2.035.3.056l.2.041.805.172c.611.129,1.18.246,1.737.345h.006s0,0,0,0a18.157,18.157,0,0,0,2.368.281,13.768,13.768,0,0,0,4.379-.526c.761-.207,1.53-.4,2.306-.592h0c.19-.048.381-.094.572-.14s.372-.091.557-.135c.13-.034.259-.064.389-.1h0c.229-.054.458-.111.686-.167.265-.065.528-.13.791-.2h0c.061-.014.121-.03.181-.046h0c.377-.1.75-.193,1.122-.294.722-.194,1.439-.4,2.143-.628.331-.1.657-.216.981-.332.069-.024.138-.048.207-.073.21-.076.426-.161.644-.25.906-.367,1.889-.825,2.885-1.233l0,0a17.2,17.2,0,0,1,2.4-.811h.009a6.675,6.675,0,0,1,1.864-.208,3.081,3.081,0,0,1,1.906.776q.243.441.465.892v0c.011.024.021.045.034.068v0a18.365,18.365,0,0,1,1.1,2.813c.063.212.121.421.173.633s.107.449.153.673c.035.173.064.348.089.525.055.361.092.73.118,1.1.092,1.317.051,2.684.156,3.984.034.41.055.821.058,1.228" transform="translate(-0.001 268.73)" fill="#da3f4e"/>
      <path id="path218" d="M356.7-125.152a8.385,8.385,0,0,1-1.309,4.961c-1.968,2.864-6.327,3.4-10.063,3.572a12.374,12.374,0,0,0,6.794-3.149,20.572,20.572,0,0,0,2.741-2.926c.407-.534.761-1.11,1.159-1.654.2-.274.459-.531.678-.8" transform="translate(-299.709 149.104)" fill="#e8a180"/>
      <path id="path220" d="M263.046-61.22a.122.122,0,0,1-.1.033,1.307,1.307,0,0,1-.179-.026h0a1.241,1.241,0,0,1-.253-.075,2.059,2.059,0,0,1-.522-.31c-.061-.048-.027-.16.055-.135.063.019.127.04.19.062a2.246,2.246,0,0,0,.71.172.182.182,0,0,1,.031,0,.128.128,0,0,1,.089.062.177.177,0,0,1-.02.213" transform="translate(-227.357 94.065)" fill="#e8a180"/>
      <path id="path222" d="M104.1-174.165a7.676,7.676,0,0,0-2.348-.644c-.98-.044-1.921-.2-2.9-.3q-1.377-.146-2.758-.246a8.119,8.119,0,0,1-1.524-.163,10.1,10.1,0,0,0-1.491-.38c-1.891-.2-3.793-.38-5.668-.712a14.158,14.158,0,0,1-2.743-.714,10.676,10.676,0,0,1-2.816-1.339l-.035.281c1.37-1.09,3.225-1.493,4.834-2.046,1.717-.59,3.517-.851,5.219-1.5a9.947,9.947,0,0,0,3.813-2.461c1.254-1.313,1.344-3.591,1.04-5.3l-.162.635a5.471,5.471,0,0,0,.835-1.1c.406-.563-.5-1.28-.935-.75a4.659,4.659,0,0,1-.662.828.7.7,0,0,0-.289.737,8.347,8.347,0,0,1,.153,2.709,5.3,5.3,0,0,1-.764,2.085c-.842,1.3-2.624,1.914-4,2.339-1.658.512-3.311.939-5,1.338a10.982,10.982,0,0,0-4.261,2.174c-.078.062-.132.2-.035.281a15.507,15.507,0,0,0,2.092,1.745,17.4,17.4,0,0,0,2.511,1.145,18.75,18.75,0,0,0,5.714,1,19.754,19.754,0,0,0,3.009-.3,22.86,22.86,0,0,1,3,.04,19.981,19.981,0,0,1,3.128.171c.5.089.984.284,1.486.379s1,.125,1.5.223a.082.082,0,0,0,.042-.158h0" transform="translate(-70.787 206.331)" fill="#e8a180"/>
      <path id="path224" d="M170.9-293.623v0a3.01,3.01,0,0,1,.344.851,3.186,3.186,0,0,1-.219,1.878c-.126.32-.282.634-.436.945-.015.032-.032.064-.048.1a5.117,5.117,0,0,0-.364.894,2.548,2.548,0,0,0-.017,1.431,8.855,8.855,0,0,0,.972,2.015,5.636,5.636,0,0,1,.563,1.388,4.19,4.19,0,0,1,.1,1.46,4.511,4.511,0,0,1-.191.911c-.052.167-.115.334-.187.5-.17.4-.7.132-.666-.248a.383.383,0,0,1,.035-.137c.037-.084.07-.169.1-.254a3.369,3.369,0,0,0,.032-2.419,6.026,6.026,0,0,0-1.2-2.037,6.3,6.3,0,0,1-1.3-1.627,2.735,2.735,0,0,1-.1-2.249,5.921,5.921,0,0,1,.22-.558c.031-.068.063-.138.1-.208v0c.058-.127.116-.256.172-.382.006-.014.012-.029.017-.041l0,0a1.5,1.5,0,0,0,.173-1.105,2.333,2.333,0,0,1,.055-2.212,6.232,6.232,0,0,1,1.38-1.746h0q1.123-.06,2.248-.169a4.2,4.2,0,0,1-.312.558,12.264,12.264,0,0,0-1.313,1.98,4.722,4.722,0,0,0-.167.483" transform="translate(-145.93 297.945)" fill="#e8a180"/>
      <path id="path226" d="M144.535-289.391a2.894,2.894,0,0,0-.127.359h0c-.072.242-.13.49-.226.725-.216.522-1.048.146-.878-.385a4.163,4.163,0,0,0,.119-.511l-.139-.025c-1.729-.339-3.623-1.3-3.963-3.212a2.522,2.522,0,0,1,1-2.493,4.562,4.562,0,0,1,.964-.568h0c.45.032.9.053,1.348.064-.334.339-.663.682-1,1.018-.445.444-1.091,1-.857,1.73a3.1,3.1,0,0,0,1.544,1.531,12.382,12.382,0,0,0,1.433.776l.014,0a4.6,4.6,0,0,0,.444.165.576.576,0,0,1,.321.821" transform="translate(-120.88 296.952)" fill="#e8a180"/>
      <path id="path228" d="M162.148-217.447c.187-.877-.945-1.676-1.526-2.143a20.363,20.363,0,0,1-2.355-1.908.189.189,0,0,0-.312.189,3.962,3.962,0,0,0,1.525,2.211c.4.315.8.628,1.169.977.337.317.609.826,1.066.929a.354.354,0,0,0,.433-.255h0" transform="translate(-137.087 232.774)" fill="#e8a180"/>
      <path id="path230" d="M109.166-248.718a3.046,3.046,0,0,0-2.6-2.975,19.943,19.943,0,0,0-2.414-.249,23.744,23.744,0,0,0-2.352-.4.129.129,0,0,0-.086.216,2.4,2.4,0,0,0,1.583.628c.705.112,1.421.143,2.131.2,1.668.145,3.193.605,3.393,2.576.023.227.366.23.344,0h0" transform="translate(-88.252 259.496)" fill="#e8a180"/>
      <path id="path232" d="M81.509-300.859a.273.273,0,0,1-.051.161.266.266,0,0,1-.4.033c-.046-.043-.092-.091-.136-.14a10.452,10.452,0,0,1-1-1.675,8.57,8.57,0,0,1-1.275-2.339,2.322,2.322,0,0,1,.113-1.654h0a12.726,12.726,0,0,1,2.588.154.276.276,0,0,1-.156.1c-.38.1-.779.145-1.154.246-.133.037-.256.061-.285.212a3.581,3.581,0,0,0,.381,1.616c.075.215.15.423.228.628a11.857,11.857,0,0,0,.507,1.161c.034.067.069.134.106.2a2.931,2.931,0,0,1,.527,1.29" transform="translate(-68.18 306.486)" fill="#e8a180"/>
      <path id="path234" d="M89.529-263.871c1.077,1.134-.741,2.341-1.054,3.377a.341.341,0,0,0,.406.422,2.871,2.871,0,0,0,1.943-1.869c.391-1.106-.179-1.715-.982-2.35-.239-.189-.513.211-.313.422h0" transform="translate(-76.775 269.908)" fill="#e8a180"/>
      <path id="path236" d="M14.711-256.115a.611.611,0,0,1-.8.515.336.336,0,0,1-.054-.029l-.026-.019a1.02,1.02,0,0,0-.375-.138.978.978,0,0,1-.277-.1.138.138,0,0,1-.021-.013.8.8,0,0,1-.106-.084.784.784,0,0,1-.1-.113c-.171.035-.346.076-.522.118l-.594.142-.3.07c-.248.056-.5.108-.744.151a6.715,6.715,0,0,1-.931.107,4.187,4.187,0,0,1-.814-.037,3.109,3.109,0,0,1-.859-.246c-.5-.228-1.272-.708-1.837-.593a3.446,3.446,0,0,0-1.407.641,6.531,6.531,0,0,0-.775.668,16.411,16.411,0,0,0-1.823,2.33c-.21.305-.412.619-.615.929a.232.232,0,0,0-.017.026c.006-.018.012-.037.02-.054.084-.7.181-1.4.266-2.11.069-.568.132-1.14.179-1.719a14.06,14.06,0,0,1,.184-1.395,9.349,9.349,0,0,1,1.226-1.08c.073-.054.148-.106.225-.156q.048-.033.1-.062c.1-.067.211-.129.318-.188.063-.034.127-.067.191-.1a4.244,4.244,0,0,1,1.116-.375l.093-.016a.019.019,0,0,1,.009,0,2.93,2.93,0,0,1,2.573.814,2.523,2.523,0,0,0,2.42.91,10.063,10.063,0,0,1,2.721-.409.77.77,0,0,1,.67.463.813.813,0,0,1,.067.332l.055.024a.611.611,0,0,1,.276.167,1.068,1.068,0,0,1,.15.208,1.906,1.906,0,0,1,.1.219.472.472,0,0,1,.032.207" transform="translate(-1.494 265.35)" fill="#e8a180"/>
      <path id="path238" d="M82.826-248.5a6.835,6.835,0,0,0,.269,4.281,4.223,4.223,0,0,0,2.549,2.081,9.792,9.792,0,0,0,3.766.331c.727-.046,1.45-.143,2.17-.255a5.4,5.4,0,0,0,2.09-.481.658.658,0,0,0-.148-1.175,4.375,4.375,0,0,0-1.645.172q-.9.154-1.809.258a11.648,11.648,0,0,1-3.4-.016,3.506,3.506,0,0,1-2.345-1.348,5.779,5.779,0,0,1-.612-3.725.452.452,0,0,0-.888-.125h0" transform="translate(-71.703 256.451)" fill="#e8a180"/>
      <path id="path240" d="M164.851-206.864a.717.717,0,0,0,.285.215c.029.01.033.013.013.009a.312.312,0,0,0,.15.039.789.789,0,0,0,.162-.027.237.237,0,0,0,0-.448.481.481,0,0,0-.253-.032q.088,0,.024-.007a.467.467,0,0,1-.053-.017.376.376,0,0,1-.085-.059.194.194,0,0,0-.243.033.219.219,0,0,0,0,.3h0" transform="translate(-143.026 220.334)" fill="#e8a180"/>
      <path id="path242" d="M56.5-244.01a20.156,20.156,0,0,0-.18,4.823c.175,1.4.626,3.013,1.916,3.718,1.394.763,3.035.115,4.348-.509,1.506-.715,2.8-1.913,4.473-2.209.46-.082.354-.911-.111-.849a13.387,13.387,0,0,0-3.643,1.391c-1.267.583-2.714,1.571-4.165,1.262-1.37-.292-1.674-2.2-1.8-3.393a32.462,32.462,0,0,1-.149-4.234c.013-.471-.64-.447-.689,0h0" transform="translate(-48.806 252.561)" fill="#e8a180"/>
      <path id="path244" d="M68.756-239.949l-.095-.011-.72-.982-.053.144.368-.5a2.714,2.714,0,0,0-.457,4.667,8.09,8.09,0,0,0,2.6,1.3,3.44,3.44,0,0,0,1.638.152,3.613,3.613,0,0,0,.486-.162c.4-.123.06-.08.42-.092a.542.542,0,0,0,.137-1.054c-.242-.085-.235-.113-.507-.366a3.241,3.241,0,0,0-1.1-.657,14.152,14.152,0,0,1-1.918-.771,2.571,2.571,0,0,1-.631-.477c-.132-.136-.1-.083-.106-.227-.009-.488.822-1.24.557-1.961-.488-1.328-2.1.048-1.248.755a.226.226,0,0,1,.1.167.287.287,0,0,0,.525.071h0" transform="translate(-57.867 250.082)" fill="#e8a180"/>
      <path id="path246" d="M34.154-146.316a.564.564,0,0,1-.047.223.6.6,0,0,1-.317.313,1.353,1.353,0,0,1-1.175-.081,7.111,7.111,0,0,1-1.716-1.5,3.864,3.864,0,0,0-1.71-1.181,4.209,4.209,0,0,0-2.522.184c-2.115.692-3.989,2-6.144,2.56-1.07.277-2.152.488-3.225.744-.188.044-.381.1-.577.167-.188-.466-.395-.916-.609-1.36.381-.1.759-.169,1.067-.247,1.067-.269,2.149-.476,3.21-.77a13.841,13.841,0,0,0,1.4-.48c.213-.084.424-.172.635-.262q.381-.162.761-.329a22.14,22.14,0,0,1,2.634-1.024c.205-.06.413-.114.623-.161l.179-.038c.2-.04.395-.075.588-.1a3.961,3.961,0,0,1,1.907.137,3.038,3.038,0,0,1,.963.558c.213.175.419.367.669.566.484.386.966.827,1.477,1.175.476.324,1.044.242,1.567.426a.507.507,0,0,1,.364.485" transform="translate(-13.984 170.426)" fill="#e8a180"/>
      <path id="path248" d="M118.241-149.021a4.133,4.133,0,0,0,1.941,1.444c.439.19.865.409,1.308.587.487.2.986.544,1.483.686.909.26,2.1-.634,2.825-1.087a8.188,8.188,0,0,0,2.358-1.943c.483-.677-.541-.887-.943-.624a10.409,10.409,0,0,1-2.835,1.6c-.29.081-.922.544-1.216.468-.522-.134-1.06-.224-1.588-.332a12.374,12.374,0,0,1-3.03-1.112c-.182-.089-.444.108-.3.316h0" transform="translate(-102.588 170.729)" fill="#e8a180"/>
      <path id="path250" d="M13.873-154.943c-.19-.186-.334-.382-.5-.542a1.249,1.249,0,0,0-.5-.3.5.5,0,0,1-.327-.6,1.863,1.863,0,0,0-.779-1.444,1.338,1.338,0,0,0-.973-.13,5.3,5.3,0,0,0-2.432,1.088,3.869,3.869,0,0,1-1.682.768c-.09-.2-.179-.4-.262-.607a3.507,3.507,0,0,0,.906-.3c.468-.218.992-.356,1.436-.6A12.762,12.762,0,0,1,10-158.354a2.244,2.244,0,0,1,2.261.053,2.7,2.7,0,0,1,.825,1.18,1.094,1.094,0,0,0,.3.4,3.066,3.066,0,0,0,1.172.557.788.788,0,0,1,.208.088.581.581,0,0,1,.282.4c.112.58-.548,1.355-1.174.736" transform="translate(-5.566 178.164)" fill="#e8a180"/>
      <path id="path252" d="M55.293-146.8a6.513,6.513,0,0,0,1.853.258,5.728,5.728,0,0,0,2.253-.12.737.737,0,0,0-.187-1.433,17.471,17.471,0,0,0-2.066.236,4.484,4.484,0,0,0-1.927.474.328.328,0,0,0,.074.586h0" transform="translate(-47.795 169.018)" fill="#e8a180"/>
      <path id="path254" d="M1.349-166.516a7.617,7.617,0,0,1-.747.342c-.031-.175-.055-.353-.075-.533L.5-166.926a2.068,2.068,0,0,1,.845.178.138.138,0,0,1,0,.232" transform="translate(-0.438 185.361)" fill="#e8a180"/>
      <path id="path256" d="M12.91-181.705l-.035-.149a.043.043,0,0,0-.083,0l-.035.149a.079.079,0,1,0,.152,0h0" transform="translate(-11.07 198.345)" fill="#e8a180"/>
      <path id="path258" d="M17.423-212.836a2.111,2.111,0,0,0,.527-.5,6.389,6.389,0,0,1,.927-.712,10.2,10.2,0,0,1,1.744-1.334,7.038,7.038,0,0,0,1.534-.977c.339-.315.831.175,1.189-.218a.234.234,0,0,0,.034-.271c-.217-.4-.685-.339-1.035-.137-.252.146-.616.05-.894.139a4.03,4.03,0,0,0-.857.471,11.964,11.964,0,0,0-1.694,1.52,4.342,4.342,0,0,0-.706.792c-.261.412-.66.679-.9,1.1a.1.1,0,0,0,.128.133h0" transform="translate(-15 228.945)" fill="#e8a180"/>
      <path id="path260" d="M14.363-272.173a1.784,1.784,0,0,1-1.1-.98,1.444,1.444,0,0,1-.1-.448,2.117,2.117,0,0,1-.182-.156,2.655,2.655,0,0,1-.481-.612.239.239,0,0,1-.015-.027,9.3,9.3,0,0,1,.99-1.722c.162.507.271.984.9,1.089A.948.948,0,0,1,15-273.873a.194.194,0,0,1-.015.043.012.012,0,0,1,0,.008c.008.01.017.021.028.032a1.914,1.914,0,0,1,.308.623.8.8,0,0,1-.957.994" transform="translate(-10.836 280.129)" fill="#e8a180"/>
      <path id="path262" d="M190.723-293.477c-.006.045-.014.089-.021.132q-.025.134-.06.262c-.018.068-.037.135-.06.2a.14.14,0,0,1-.008.022,3.2,3.2,0,0,1-.256.574,2.649,2.649,0,0,1-.614.736,1.893,1.893,0,0,1-.172.125,2.127,2.127,0,0,1-.594.283,1.238,1.238,0,0,1-.132.036.46.46,0,0,1-.067.014,2.061,2.061,0,0,1-.32.045c-.018,0-.037,0-.055,0a1.261,1.261,0,0,1-.294-.022,1.345,1.345,0,0,1-.147-.033c-.04-.01-.081-.021-.122-.035a2.5,2.5,0,0,1-.243-.091,5.219,5.219,0,0,1-1.015-.574,12.317,12.317,0,0,1-1.693-1.447,15.9,15.9,0,0,1-1.531-1.91c-.188-.267-.366-.539-.534-.819-.064-.108-.2-.278-.142-.246a6,6,0,0,0-1.777-.337,6.594,6.594,0,0,1-1.6-.227,7.827,7.827,0,0,0-1.651-.421c-1.042-.146-2.094-.221-3.135-.382a4.81,4.81,0,0,0-.588-.043c-.207-.006-.418-.009-.626-.029a.6.6,0,0,1-.234.013,1.75,1.75,0,0,1-.277-.06,1.145,1.145,0,0,1-.468-.264,1.1,1.1,0,0,1-.236-.25.638.638,0,0,1-.087-.189.63.63,0,0,1-.017-.261.829.829,0,0,1,.158-.386.393.393,0,0,1,.032-.038.746.746,0,0,1,.353-.245c.415-.127.617.146.8.316a5.022,5.022,0,0,0,1.041.448c1.379.428,2.9.361,4.313.673a16.913,16.913,0,0,0,1.932.132c.436.043.869.115,1.306.146a5.434,5.434,0,0,1,1.059.126,1.776,1.776,0,0,1,.2.068c.031.013.06.025.089.04a1.962,1.962,0,0,1,.689.73,17.582,17.582,0,0,0,1.249,1.623,6.334,6.334,0,0,0,1.589,1.463,2.221,2.221,0,0,0,.693.259h0a.519.519,0,0,0,.179-.075c.07-.052.141-.1.214-.149-.031.024-.047.036-.055.045.037-.026.286-.215.37-.28-.075.048.214-.265.214-.261a3.085,3.085,0,0,0,.45-.665,5.208,5.208,0,0,0,.439-1.581,7.475,7.475,0,0,0-.785-3.82c-.026-.06-.052-.121-.077-.181a6.4,6.4,0,0,1-.226-.636,3.328,3.328,0,0,1-.014-1.965,17.5,17.5,0,0,1,1.11-2.613c.3.006.572.019.831.041-.081.2-.167.407-.256.614a10.7,10.7,0,0,0-.941,2.676,2.441,2.441,0,0,0,.229,1.307c.022.049.043.1.066.15.07.157.138.315.2.471.219.528.415,1.058.592,1.606a10.811,10.811,0,0,1,.3,1.819c.008.057.015.114.024.17a0,0,0,0,1,0,0v0c.095.633.239,1.24.367,1.867a3.468,3.468,0,0,1,.064.471,3.768,3.768,0,0,1-.029.821" transform="translate(-149.231 305.624)" fill="#e8a180"/>
      <path id="path264" d="M202.253-213.166a1.11,1.11,0,0,0-.265.932c.016.16.019.322.032.482.006.069-.026.434,0,.3a1.2,1.2,0,0,1-.2.511,7.341,7.341,0,0,1-.647.639c-1.088,1.1-2.953,1.362-4.4,1.667-1.752.369-3.527.605-5.279.974-.329.069-.679.212-1.01.248-.178.019-.355.026-.534.06.474-.089-.243-.043-.36,0a2.481,2.481,0,0,0-1.4.967c-.48.784.637,1.687,1.24.994a.862.862,0,0,1,.342-.3,3.321,3.321,0,0,1,.334-.179.87.87,0,0,0,.3-.192c.267-.277.15-.131.035-.072a7.511,7.511,0,0,1,2.186-.558c1.938-.337,3.9-.557,5.818-.984a15.228,15.228,0,0,0,2.5-.754,4.669,4.669,0,0,0,1.981-1.106,3.083,3.083,0,0,0,.776-2.029c0-.572-.641-2.383-1.449-1.6h0" transform="translate(-163.227 225.662)" fill="#e8a180"/>
      <path id="path266" d="M249.736-189.174q-.115.341-.259.663c-.08.18-.164.353-.256.523-1.22,2.277-3.43,3.89-4.761,6.1a8.178,8.178,0,0,0-.428.8,4.3,4.3,0,0,0-.455,2.692,9.624,9.624,0,0,0,.9,2.5,16.853,16.853,0,0,0,2.717,3.762c-.113,0-.226.008-.34.011h0l-.324.011a.121.121,0,0,1-.1.033,1.308,1.308,0,0,1-.179-.025h0l-.193.006q-.032-.04-.06-.081c-.095-.127-.187-.255-.277-.383a22.846,22.846,0,0,1-1.76-3.018,7.516,7.516,0,0,1-1.005-4.006,4.043,4.043,0,0,1,.179-.833c.067-.2.142-.4.227-.6a9.047,9.047,0,0,1,.759-1.41l0,0c.067-.108.139-.213.213-.32a22.723,22.723,0,0,1,1.651-2.045,28.524,28.524,0,0,0,2.409-2.869,7.871,7.871,0,0,0,.633-1.124c.078-.173.15-.351.213-.533a.185.185,0,0,1,.018-.04.267.267,0,0,1,.389-.1s0,0,0,0a.227.227,0,0,1,.09.28" transform="translate(-210.836 204.952)" fill="#e8a180"/>
      <path id="path268" d="M113.775-137.525c-.02.045-.041.089-.061.133a18.107,18.107,0,0,1-1.469,2.555c-.058.086-.118.17-.178.254a21.842,21.842,0,0,1-3,3.4,20.51,20.51,0,0,1-2.952,2.268q-.356.224-.721.434a17.567,17.567,0,0,1-2.758,1.28q-.675.241-1.355.439h0q-1.779.036-3.557.073a33.509,33.509,0,0,1-5.6.056c.9-.148,1.794-.305,2.689-.461,1.272-.219,2.484-.584,3.736-.873.367-.084.735-.173,1.1-.27.846-.218,1.687-.468,2.51-.766.3-.112.609-.223.915-.337a17.215,17.215,0,0,0,5.746-3.185,18.645,18.645,0,0,0,2.588-2.955,6.916,6.916,0,0,1,1.739-1.9c.028-.018.057-.035.086-.051a2.666,2.666,0,0,1,.453-.221.057.057,0,0,1,.054,0,.1.1,0,0,1,.037.118" transform="translate(-79.954 159.953)" fill="#e8a180"/>
      <path id="path270" d="M44.861-96.511a.419.419,0,0,1-.069.1.366.366,0,0,1-.176.116c-.591.173-1.224.167-1.827.283a14.127,14.127,0,0,0-1.873.475,19.257,19.257,0,0,0-1.8.7c-.217-.2-.427-.409-.626-.625a2.545,2.545,0,0,1,.3-.191,11.507,11.507,0,0,1,1.878-.821,10.472,10.472,0,0,1,3.58-.706c.077,0,.151.008.225.016a.009.009,0,0,1,.006,0c.046,0,.092.009.138.016a.385.385,0,0,1,.121.038.314.314,0,0,1,.139.149.336.336,0,0,1,.034.1.559.559,0,0,1-.049.344" transform="translate(-33.403 124.829)" fill="#e8a180"/>
      <path id="path272" d="M92.7-117.555c-.435-.08-.729.225-1.082.468-.373.257-.758.511-1.108.8a6.537,6.537,0,0,0-1.853,2.6h1.287a3.015,3.015,0,0,0-2.633-1.513l.538,1.349a4.132,4.132,0,0,1,1.683-1.308l-1.117-.892a3.763,3.763,0,0,0,.617,2.815c.441.631,1.281,1.7,2.106,1.634a.576.576,0,0,0,.56-.582c-.061-.721-.624-1.064-1.086-1.538a2.256,2.256,0,0,1-.73-1.909.779.779,0,0,0-1.117-.892,5.04,5.04,0,0,0-1.991,1.555.8.8,0,0,0,.538,1.349c.745.018.982.327,1.463.87a.741.741,0,0,0,1.245-.342,7.726,7.726,0,0,1,1.1-2.566,5.345,5.345,0,0,1,.987-.98c.293-.232.6-.37.684-.761a.128.128,0,0,0-.085-.156h0" transform="translate(-75.144 142.522)" fill="#e8a180"/>
      <path id="path274" d="M105.241-112.042a.848.848,0,0,0-1.066-.552,1.363,1.363,0,0,0-.94.944.656.656,0,0,0,.157.617.62.62,0,0,0,.594.163,1.739,1.739,0,0,0,.575-.243c.07-.043.135-.094.208-.134a.484.484,0,0,0,.181-.133l.026-.022a.467.467,0,0,1-.477.13.614.614,0,0,0,.586-.161.631.631,0,0,0,.155-.609h0" transform="translate(-89.581 138.238)" fill="#e8a180"/>
      <path id="path276" d="M74.027-181.65a3.066,3.066,0,0,0,.88,2.634,13.959,13.959,0,0,0,2.7,2.394c.224.16.446-.182.278-.375-.635-.726-1.461-1.3-2.143-1.978a6.2,6.2,0,0,1-.959-1.245,5.152,5.152,0,0,1-.4-1.43.186.186,0,0,0-.36,0h0" transform="translate(-64.178 198.26)" fill="#e8a180"/>
      <path id="path278" d="M9.044-185.445a2.335,2.335,0,0,1-.335.247,5.232,5.232,0,0,1-2.072.617,15.749,15.749,0,0,1-3.473.038c-1.039-.091-2.1-.2-3.158-.348,0-.293.009-.585.023-.876a28.584,28.584,0,0,0,2.906.584,15.975,15.975,0,0,0,3.294.162,10.692,10.692,0,0,0,2.23-.487c.156-.045.312-.091.473-.135a.119.119,0,0,1,.112.2" transform="translate(-0.005 201.713)" fill="#e8a180"/>
      <path id="path280" d="M303.676-236.521v0a9.487,9.487,0,0,0-4.719-.946,13.238,13.238,0,0,0-1.959.229l0,0a9.477,9.477,0,0,0-3.073,1.124l-.023.014c-.217.132-.43.272-.64.417s-.415.293-.618.444a21.538,21.538,0,0,1-2.417,1.651,4.06,4.06,0,0,1-2.544.669,2.021,2.021,0,0,1-.5-.154,2.346,2.346,0,0,1-.453-.274l-.076-.06a.75.75,0,0,1-.25-.377.967.967,0,0,1-.035-.265,1.369,1.369,0,0,1,.285-.8c.07-.091.142-.18.217-.267.147-.175.3-.343.462-.506s.338-.328.517-.48c.115-.1.233-.2.352-.293s.268-.208.407-.309h0l0,0c.113-.081.228-.161.344-.237.041-.029.084-.056.126-.083.095-.06.19-.121.286-.18h0c.13-.081.262-.157.395-.232-.055-.059-.106-.119-.155-.181-.02-.025-.038-.049-.057-.075l-.006-.009c-.057-.078-.11-.159-.161-.242v0c-.006-.011-.012-.022-.018-.032h0v0a.09.09,0,0,0-.006-.013.391.391,0,0,1-.02-.037c-.018-.03-.035-.062-.051-.092a3.881,3.881,0,0,1-.2-.455,7.722,7.722,0,0,1-.379-1.622c-.075-.526.614-.943.891-.391.009.019.018.037.029.056v0a3.025,3.025,0,0,0,1.114,1.407c-.068-.048.265.009.367,0,.36-.029.2.027.493-.048,1.244-.312,2.411-.9,3.67-1.154.035-.008.072-.014.107-.021q.342-.067.68-.1a13.433,13.433,0,0,1,4.633.448,7.952,7.952,0,0,1,1.136.351l0,0q.48.687.915,1.407c.148.247.291.5.43.749q.243.441.465.892v0l.343.24c-.1-.06-.2-.118-.309-.17" transform="translate(-248.541 249.515)" fill="#e8a180"/>
      <path id="path282" d="M329.931-202.339a6.146,6.146,0,0,1-1.047-.486c-.331-.191-.654-.4-.986-.584-.153-.088-.308-.17-.465-.245a4.311,4.311,0,0,0-.817-.3,27.22,27.22,0,0,0-2.862-.42c-.141-.019-.282-.04-.421-.065-.167-.029-.332-.062-.5-.1a17.849,17.849,0,0,1-3.762-1.38,18.255,18.255,0,0,0-1.789-.881l-.025-.008c-.119-.043-.24-.08-.363-.111a6.543,6.543,0,0,0-1.416-.2c-.084,0-.167-.006-.251-.008-.069,0-.138,0-.207,0a.16.16,0,0,1-.027,0,.276.276,0,0,1-.263-.281.41.41,0,0,1,0-.045v0a.354.354,0,0,1,.107-.219.314.314,0,0,1,.1-.067c.139-.057.279-.107.416-.148h0c.124-.038.245-.07.366-.1a4,4,0,0,1,.537-.081,3.568,3.568,0,0,1,.413-.014,3.655,3.655,0,0,1,.436.027l.077.009a5.073,5.073,0,0,1,1.327.38c.07.029.141.06.211.094.093.043.185.089.278.138.623.326,1.151.784,1.762,1.132a7.7,7.7,0,0,0,2.559.935c1.642.27,3.347.194,4.863,1,.026.013.05.027.076.041.155.084.308.178.462.272a10.5,10.5,0,0,0,1.084.614c.055.361.092.73.118,1.1" transform="translate(-273.159 221.081)" fill="#e8a180"/>
      <path id="path284" d="M354.558-271.176a3.319,3.319,0,0,0-.174,2.444,1.763,1.763,0,0,1-.035.747,2.374,2.374,0,0,1-.455.908c-.138.173-.424-.011-.36-.216a3.96,3.96,0,0,0,.135-.59c.205-1.326-.162-2.719.505-3.928.115-.21.256-.48.418-.768.213.13.424.262.634.4a7.365,7.365,0,0,0-.667,1" transform="translate(-306.828 277.057)" fill="#e8a180"/>
      <path id="path286" d="M247.224-299.408a1.868,1.868,0,0,1-1-1.515,2.089,2.089,0,0,1,.165-1.327h0c.124-.016.25-.031.377-.046a2.95,2.95,0,0,0-.013,1.394,8.612,8.612,0,0,0,.627,1.284c.045.1-.031.253-.154.209" transform="translate(-213.661 302.849)" fill="#e8a180"/>
      <path id="path288" d="M267.035-277.673c.159.075.317.152.469.241.17.1.353.16.518.273.029.02.07-.02.049-.051a2.034,2.034,0,0,0-.365-.457,3.752,3.752,0,0,0-.5-.315c-.2-.113-.373.215-.174.309h0" transform="translate(-231.686 281.767)" fill="#e8a180"/>
      <path id="path290" d="M279.662-271.29a5.4,5.4,0,0,0,1.477.123c.394-.015.464.273.771.3a7.72,7.72,0,0,0,.974.041.181.181,0,0,0,.122-.305,1.211,1.211,0,0,0-1.187-.44c-.319.091-.506.305-.876.319a5.149,5.149,0,0,1-1.265-.1c-.036-.008-.052.049-.015.058h0" transform="translate(-242.703 276.213)" fill="#e8a180"/>
      <path id="path292" d="M253.623-128.146q-2.606.11-5.212.192c-.113,0-.227.008-.34.011h0c-.1-.064-.2-.132-.3-.2l-.089-.062a5.6,5.6,0,0,1-.869-.773,10.881,10.881,0,0,1-2.34-5.03,5.579,5.579,0,0,1-.119-1.651,5.12,5.12,0,0,1,.228-1.178,4.916,4.916,0,0,1,.673-1.359c.083-.116.171-.231.265-.34a.139.139,0,0,1,.037-.032.2.2,0,0,1,.291.1.183.183,0,0,1,.009.132c-.012.04-.023.08-.034.119a.006.006,0,0,0,0,0c-.049.17-.095.337-.135.5a4.043,4.043,0,0,0-.054,1.926,14.2,14.2,0,0,0,.849,2.363,7.786,7.786,0,0,0,1.9,2.931,4.358,4.358,0,0,0,.435.326q.076.05.151.1a14.1,14.1,0,0,0,3.282,1.261,5,5,0,0,1,1.376.658" transform="translate(-212.057 160.776)" fill="#e8a180"/>
      <path id="path294" d="M341.823-186.834a11.17,11.17,0,0,1-2.841,3.087,10.366,10.366,0,0,0-2.832,2.883.066.066,0,0,0,.1.081c1.042-.966,2.124-1.88,3.224-2.775a10.939,10.939,0,0,0,2.745-3.036c.15-.266-.247-.506-.4-.241h0" transform="translate(-291.739 202.739)" fill="#e8a180"/>
      <path id="path296" d="M278.388-117.494a19.67,19.67,0,0,0-2.708,3.111c-.6.829-1.649,2.253-1.167,3.358a.286.286,0,0,0,.255.152c.377-.012.291-.488.284-.749a3.955,3.955,0,0,1,.822-2.161c.8-1.251,2.022-2.237,2.717-3.548a.131.131,0,0,0-.2-.163h0" transform="translate(-238.146 142.489)" fill="#e8a180"/>
      <path id="path298" d="M342.241-115.11a22.909,22.909,0,0,0-2.8,4.379,4.751,4.751,0,0,0-.575,2.592.014.014,0,0,1,0,.008c-.109.011-.219.021-.328.027-.168.011-.337.019-.505.026a.151.151,0,0,1,0-.027,4.9,4.9,0,0,1,.146-1.067,7.805,7.805,0,0,1,.929-2.244,41.651,41.651,0,0,1,2.919-3.917c.124-.157.332.067.214.223" transform="translate(-293.383 140.629)" fill="#e8a180"/>
      <path id="path300" d="M343.957-251.816c-.33.179-.79.286-1.029.6a.1.1,0,0,0,.066.165,3,3,0,0,0,1.18-.381c.249-.117.031-.521-.217-.386h0" transform="translate(-297.61 259.061)" fill="#f78f9e"/>
      <path id="path302" d="M406.362-186.181c-.288.185-.568.38-.842.584s-.559.425-.831.647c-.453.364-.9.744-1.341,1.115-.064.056-.177-.016-.124-.1a8.483,8.483,0,0,1,1-1.261,9.667,9.667,0,0,1,.758-.716,11.417,11.417,0,0,1,1.208-.9c.063.212.121.421.173.633" transform="translate(-349.95 202.622)" fill="#f78f9e"/>
      <path id="path304" d="M398.536-152.708a5.865,5.865,0,0,0-.055,1.608.064.064,0,0,0,.124,0,5.859,5.859,0,0,0-.055-1.608.007.007,0,0,0-.014,0h0" transform="translate(-345.812 173.027)" fill="#f78f9e"/>
      <path id="path306" d="M379.252-129.887c-.313.235-.614.485-.921.728a3.815,3.815,0,0,0-.944.784c-.05.079.015.214.111.2a2.053,2.053,0,0,0,.977-.593c.33-.278.644-.576.977-.851.146-.121-.048-.383-.2-.269h0" transform="translate(-327.523 153.239)" fill="#f78f9e"/>
      <path id="path308" d="M291.98-162.512a6.705,6.705,0,0,0-2.963,2.78.177.177,0,0,0,.236.245c1.159-.645,1.858-1.9,2.915-2.69a.192.192,0,0,0-.188-.335h0" transform="translate(-250.822 181.551)" fill="#f78f9e"/>
      <path id="path310" d="M277.5-125.4c-.07.148-.141.3-.2.448a.86.86,0,0,0-.1.377c0,.047.074.065.085.012a3.17,3.17,0,0,1,.314-.777c.034-.068-.067-.129-.1-.06h0" transform="translate(-240.587 149.345)" fill="#f78f9e"/>
      <path id="path312" d="M214.149-139.618c-.3.42-.621.828-.954,1.224-.073.086.04.206.122.127a5.577,5.577,0,0,0,.882-1.32.029.029,0,0,0-.05-.03h0" transform="translate(-185.014 161.671)" fill="#f78f9e"/>
      <path id="path314" d="M173.064-106.261l-.147.022a.053.053,0,0,0,0,.1l.147.022a.073.073,0,1,0,0-.144h0" transform="translate(-150.044 132.71)" fill="#f78f9e"/>
      <path id="path316" d="M230.7-268.646a4.767,4.767,0,0,0,1.7,1.621.074.074,0,0,0,.087-.117,6.232,6.232,0,0,0-.871-.765,5.621,5.621,0,0,1-.818-.82c-.047-.058-.144.019-.1.081h0" transform="translate(-200.217 273.733)" fill="#f78f9e"/>
      <path id="path318" d="M254.092-246.8c.011.181.21.232.322.339.027.026.067-.015.04-.042a1.008,1.008,0,0,0-.164-.133c-.063-.042-.124-.078-.127-.164,0-.048-.075-.048-.072,0h0" transform="translate(-220.529 254.714)" fill="#f78f9e"/>
      <path id="path320" d="M89.368-284.078c1.293,1.128,2.837,3.088,1.762,4.84-.336.548-2.525,2.53-1.367,3.229a.135.135,0,0,0,.187-.051c.17-.276.1-.618.23-.919a3.774,3.774,0,0,1,.835-1.05,4.122,4.122,0,0,0,1.365-1.943c.384-1.815-1.29-3.842-2.794-4.492-.205-.089-.381.242-.216.386h0" transform="translate(-77.507 287.386)" fill="#fbd4d8"/>
      <path id="path322" d="M319.784-232.128a20.168,20.168,0,0,0-4.479,1.39,12.208,12.208,0,0,0-2.044,1.037c-.416.279-1.089.664-1.107,1.23a.176.176,0,0,0,.172.179c.5-.043.85-.58,1.237-.872a10.386,10.386,0,0,1,1.913-1.154c1.42-.653,2.933-.97,4.393-1.493a.164.164,0,0,0-.084-.316h0" transform="translate(-270.922 241.953)" fill="#fbd4d8"/>
      <path id="path324" d="M305.047-218.963a.986.986,0,0,0-.038-.518c-.059-.189.008-.135-.153-.011.06-.046.127-.085.191-.125.267-.167.655-.351.733-.7a.471.471,0,0,0-.2-.519,1.291,1.291,0,0,0-.991-.168c-.31.087-.748.37-.808.712a.462.462,0,0,0,.422.575c.272.036.45-.163.642-.328.115-.1.26-.011.4.048l-.309-.565c.014-.091.069-.1-.029-.007a1.938,1.938,0,0,1-.165.127,3.427,3.427,0,0,0-.431.343.426.426,0,0,0-.1.408,1.08,1.08,0,0,0,.246.4c.1.111.24.184.3.331s.268.174.3,0h0" transform="translate(-263.643 232.329)" fill="#fbd4d8"/>
      <path id="path326" d="M306.223-223.3c-.021-.058-.043-.116-.067-.173-.01-.025-.021-.049-.031-.073-.033-.073.017.051-.008-.013a.546.546,0,0,0-.2-.284.342.342,0,0,0-.476.118.448.448,0,0,0-.008.434.286.286,0,0,0,.456.061.413.413,0,0,0,.089-.152c.022-.067-.034.064-.006.016l-.162.127q.147-.064.015-.008h-.14c.028.008.015,0-.038-.018a.3.3,0,0,1,.041.026c.05.035-.042-.046,0,.009,0,0,.048.064.02.026.023.032.044.065.066.1a.245.245,0,0,0,.275.116.256.256,0,0,0,.171-.312h0" transform="translate(-265.042 234.805)" fill="#fbd4d8"/>
      <path id="path328" d="M294.137-220.073c-.321.523-.734.965-1.048,1.494-.324.545-.89.926-1.169,1.482a.264.264,0,0,0,.217.393c.607-.007,1.01-.547,1.344-1.012a12.458,12.458,0,0,0,.941-2.184.167.167,0,0,0-.285-.173h0" transform="translate(-253.334 231.559)" fill="#fbd4d8"/>
      <path id="path330" d="M296.007-212.686a21.9,21.9,0,0,1-2.081,1.427.313.313,0,0,0,.306.545c.653-.329,1.306-.643,1.98-.923.616-.257,1.373-.255,1.861-.765a.254.254,0,0,0,0-.348c-1.23-1.123-3.116.9-4.147,1.492l.306.545a7.476,7.476,0,0,0,1.923-1.773c.077-.1-.027-.293-.148-.2h0" transform="translate(-254.97 225.421)" fill="#fbd4d8"/>
      <path id="path332" d="M287.861-211.349a7.282,7.282,0,0,1-1.523.251,4.472,4.472,0,0,1-1.5-.352.134.134,0,0,0-.146.2,1.55,1.55,0,0,0,1.464.672,2.811,2.811,0,0,0,1.723-.714c.026-.018.01-.065-.022-.055h0" transform="translate(-247.076 224.006)" fill="#fbd4d8"/>
      <path id="path334" d="M315.684-208.3a1.27,1.27,0,0,0,.309-.166.792.792,0,0,0,.34-.268c.052-.1-.036-.252-.15-.2a2.924,2.924,0,0,0-.273.17.422.422,0,0,1-.281.042c-.281-.035-.265.495.055.425h0" transform="translate(-273.765 221.83)" fill="#fbd4d8"/>
      <path id="path336" d="M183.608-244.5c-1.41.5-1.159,1.957-.673,3.133.616,1.492,1.837,2.789,1.634,4.543-.017.149.2.161.24.034.431-1.327-.5-2.488-.872-3.688-.428-1.367-.988-2.556-.28-3.956.016-.032-.011-.079-.049-.066h0" transform="translate(-158.438 252.688)" fill="#fbd4d8"/>
      <path id="path338" d="M188.266-168.357a.008.008,0,0,0,0-.016.008.008,0,0,0,0,.016" transform="translate(-163.391 186.616)" fill="#fbd4d8"/>
      <path id="path340" d="M187.576-178.523a3.583,3.583,0,0,1,1.359-.628,6.144,6.144,0,0,1,1.606-.25,13.293,13.293,0,0,0,2.954-.03.145.145,0,0,0,.033-.259c-.86-.639-2.382-.508-3.381-.409a6.156,6.156,0,0,0-1.717.408,2.325,2.325,0,0,0-1.045,1.013c-.081.122.095.251.192.154h0" transform="translate(-162.615 196.864)" fill="#fbd4d8"/>
      <path id="path342" d="M240.752-173.916a4.135,4.135,0,0,0,.631-.07.076.076,0,0,0,0-.144,4.133,4.133,0,0,0-.631-.07c-.176-.008-.176.291,0,.283h0" transform="translate(-208.836 191.673)" fill="#fbd4d8"/>
      <path id="path344" d="M4.5-239.472a1.965,1.965,0,0,1-.331.584c-.144.184-.306.356-.455.55a13.626,13.626,0,0,0-.836,1.259,13.266,13.266,0,0,0-1.009,2.021c.084-.7.181-1.4.266-2.11a4.153,4.153,0,0,1,.251-.469A5.422,5.422,0,0,1,4.1-239.662a1.5,1.5,0,0,1,.153-.068.207.207,0,0,1,.248.258" transform="translate(-1.624 248.557)" fill="#fbd4d8"/>
    </g>
  </g>
</svg>
