<svg xmlns="http://www.w3.org/2000/svg" xmlns:xlink="http://www.w3.org/1999/xlink" width="60" height="60" viewBox="0 0 60 60">
  <defs>
    <clipPath id="clip-path">
      <rect id="Rectangle_13" data-name="Rectangle 13" width="60" height="60" rx="16" transform="translate(264 345)" fill="#8aa77e" stroke="#707070" stroke-width="1"/>
    </clipPath>
  </defs>
  <g id="Mask_Group_5" data-name="Mask Group 5" transform="translate(-264 -345)" clip-path="url(#clip-path)">
    <g id="Rectangle_113" data-name="Rectangle 113" transform="translate(259 341)" fill="#ecd6b4" stroke="#707070" stroke-width="1">
      <rect width="73" height="67" stroke="none"/>
      <rect x="0.5" y="0.5" width="72" height="66" fill="none"/>
    </g>
    <ellipse id="Ellipse_24" data-name="Ellipse 24" cx="21" cy="5.5" rx="21" ry="5.5" transform="translate(279 381)" fill="#c7ab81"/>
    <g id="Group_121" data-name="Group 121" transform="translate(278.656 337.826)">
      <path id="path102" d="M1193.325-830.759a10.757,10.757,0,0,1-7.889-1.826c-3.562-2.527-5.038-8.038-3.565-12.067a10.559,10.559,0,0,1,3.889-5.414,18.013,18.013,0,0,1,2.7-1.468c2.674-1.172,5.828-1.756,8.391-.561a7.625,7.625,0,0,1,2.924,2.711q.266.4.5.818a13.642,13.642,0,0,1-.459,13.783,9.674,9.674,0,0,1-6.488,4.024" transform="translate(-1161.069 852.752)" fill="#c37764"/>
      <path id="path104" d="M1220.406-741.823a11.358,11.358,0,0,0-3.192-3.022,10.092,10.092,0,0,0,.508,1.394c1.62,3.58,4.841,3.974,8.335,3.673,2.485-.213,4.424-2.232,5.519-4.5a21.651,21.651,0,0,0-11.169,2.455" transform="translate(-1192.903 757.096)" fill="#b76a5c"/>
      <path id="path106" d="M1217.13-837.479a21.651,21.651,0,0,1,11.169-2.455,10.8,10.8,0,0,0,.65-1.691,11.654,11.654,0,0,0-.12-6.941q-.233-.422-.5-.818a7.627,7.627,0,0,0-2.924-2.711c-2.563-1.195-5.717-.611-8.392.561a12.506,12.506,0,0,0-2.875,4.313,11.224,11.224,0,0,0-.2,6.72,11.355,11.355,0,0,1,3.192,3.022" transform="translate(-1189.627 852.752)" fill="#d0836f"/>
      <path id="path108" d="M1286.934-836.232c1.559.307,2.937-1.123,1.909-2.639-.624-.921-2.916-1.533-3.7-.416-.844,1.209.693,2.84,1.787,3.055" transform="translate(-1252.907 841.35)" fill="#ec9683"/>
      <path id="path110" d="M1081.882-742.245a20.139,20.139,0,0,1-1.775,5.9,9.771,9.771,0,0,1-2.17,3.275c-3.736,3.718-9.026,4.954-13.529,2.045a9.442,9.442,0,0,1-4.2-7.06,9.646,9.646,0,0,1,2.76-7.491,13.735,13.735,0,0,1,7.037-3.845c3.422-.726,7.576-.206,10.122,2.4a6.158,6.158,0,0,1,1.427,2.223,6.216,6.216,0,0,1,.324,2.552" transform="translate(-1053.701 761.418)" fill="#c37764"/>
      <path id="path112" d="M1215.741-687a20.136,20.136,0,0,1-1.775,5.9,9.77,9.77,0,0,1-2.17,3.275,5.94,5.94,0,0,1-.6-2.952c.119-1.93.73-5.016,2.449-6.181.945-.64,1.622-.525,2.1-.041" transform="translate(-1187.56 706.177)" fill="#b76a5c"/>
      <path id="path114" d="M1081.639-749.422a13.735,13.735,0,0,0-7.037,3.845,7.8,7.8,0,0,0-.009,8.6c2.489,3.587,7.961,2.839,11.389,1.264a12.412,12.412,0,0,0,3.353-2.263c.583-2.488,1.8-5.377,3.78-7.011a6.217,6.217,0,0,0-1.354-2.035c-2.546-2.608-6.7-3.128-10.122-2.4" transform="translate(-1065.331 761.418)" fill="#d0836f"/>
      <path id="path116" d="M1163.911-736.118c2.945,1.6,4.8-2.443,1.448-2.867-1.846-.234-3.431,1.788-1.448,2.867" transform="translate(-1144.839 751.918)" fill="#ec9683"/>
      <path id="path118" d="M1233.5-716.132a10.756,10.756,0,0,1-7.889-1.826c-3.562-2.526-5.038-8.038-3.566-12.067a10.562,10.562,0,0,1,3.889-5.414,18.041,18.041,0,0,1,2.7-1.468c2.674-1.172,5.828-1.756,8.392-.561a7.611,7.611,0,0,1,2.923,2.711c.177.264.345.537.5.818a13.645,13.645,0,0,1-.459,13.782,9.677,9.677,0,0,1-6.489,4.024" transform="translate(-1196.687 751.139)" fill="#c37764"/>
      <path id="path120" d="M1305.035-729.142l.319-.057c.062-.01.122-.017.183-.023l-.5.08" transform="translate(-1270.753 743.247)" fill="#d0836f"/>
      <path id="path122" d="M1269.122-727c-.825,2.859-3.075,5.925-6.169,6.191-3.494.3-6.714-.093-8.335-3.673a11.121,11.121,0,0,1-.307-8.114,12.5,12.5,0,0,1,2.875-4.313c2.674-1.172,5.827-1.756,8.392-.561a7.61,7.61,0,0,1,2.923,2.711c.177.264.345.537.5.818a11.668,11.668,0,0,1,.12,6.941" transform="translate(-1225.238 751.139)" fill="#d0836f"/>
      <path id="path124" d="M1327.114-721.605c1.559.307,2.937-1.123,1.909-2.639-.624-.921-2.916-1.532-3.7-.416-.844,1.209.693,2.84,1.787,3.055" transform="translate(-1288.525 739.737)" fill="#ec9683"/>
      <path id="path652" d="M1013.348-552.864c-3.437.646-11.827,1.318-10.018,7,1.718,5.4,10.816,3.276,14.892,3.862,6.033.868,11.293,2.526,17.674,2.275,2.837-.113,6.6-1.237,7.511-4.268,1.736-5.758-13.2-9.917-17.322-9.954a66.11,66.11,0,0,0-12.737,1.083" transform="translate(-1003.078 587.874)" fill="#ced0cd"/>
      <path id="path654" d="M1022.2-538.784c1.546.639,4.458-.075,6.092-.292,2.585-.343,4.947-.761,7.547-.239,6.055,1.214,11.681,4.157,18.026,2.614,2.106-.512,4.127-2.829,2.99-5.1-.952-1.9-5.135-3.549-7.017-4.228-5.489-1.981-12.012-1.689-17.783-1.45-3.125.129-6.677.235-9.559,1.776-2.779,1.486-3.938,5.415-.3,6.919" transform="translate(-1018.004 582.288)" fill="#eaeae8"/>
      <path id="path656" d="M1131.256-568.09q.235.2.448.414c3.881,3.967-2.447,6.407-5.456,6.411a21.788,21.788,0,0,1-9.238-1.763c-5.264-2.635-1.341-5.785,2.532-6.852,3.342-.921,8.808-.647,11.714,1.79" transform="translate(-1101.817 602.427)" fill="#f36d24"/>
      <path id="path658" d="M1031.321-515.942q-.058.048-.113.1c.032-.03-.322.457-.105.179a1.433,1.433,0,0,0-.319.906,1.736,1.736,0,0,0,.762,1.471c.784.558,1.752-.356,1.537-1.182a1.813,1.813,0,0,0-.175-.423c.122.22-.019-.085-.036-.148l.014.115a1.039,1.039,0,0,0-.143-.527q.138.547.049.028a.707.707,0,0,1-.028-.137.846.846,0,0,0-.6-.6.894.894,0,0,0-.84.222h0" transform="translate(-1027.637 554.405)" fill="#fff"/>
      <path id="path660" d="M1055.5-517.909a1.736,1.736,0,0,0-.016.518.655.655,0,0,0,.424.546.409.409,0,0,0,.5-.285.674.674,0,0,0-.014-.309c-.01-.033-.037-.2-.023-.072-.014-.134-.047-.264-.065-.4a.421.421,0,0,0-.808,0h0" transform="translate(-1049.524 556.192)" fill="#fff"/>
      <path id="path662" d="M1160.863-564.47c2.293-.251,2.362-2.818.117-3.262-1.287-.255-4.511.37-3.72,2.165.506,1.149,2.53,1.214,3.6,1.1" transform="translate(-1139.646 600.139)" fill="#f5863b"/>
    </g>
  </g>
</svg>
